<svg viewBox="0 0 330 200" xmlns="http://www.w3.org/2000/svg"><g><g><g><g><g><line x1="51.5625" y1="178" x2="46.5625" y2="178" style="visibility: inherit;" fill="rgb(0, 0, 0)" stroke="rgb(204, 204, 204)" stroke-width="1px"></line><line x1="51.5625" y1="164.30769230769232" x2="46.5625" y2="164.30769230769232" style="visibility: inherit;" fill="rgb(0, 0, 0)" stroke="rgb(204, 204, 204)" stroke-width="1px"></line><line x1="51.5625" y1="150.6153846153846" x2="46.5625" y2="150.6153846153846" style="visibility: inherit;" fill="rgb(0, 0, 0)" stroke="rgb(204, 204, 204)" stroke-width="1px"></line><line x1="51.5625" y1="136.9230769230769" x2="46.5625" y2="136.9230769230769" style="visibility: inherit;" fill="rgb(0, 0, 0)" stroke="rgb(204, 204, 204)" stroke-width="1px"></line><line x1="51.5625" y1="123.23076923076923" x2="46.5625" y2="123.23076923076923" style="visibility: inherit;" fill="rgb(0, 0, 0)" stroke="rgb(204, 204, 204)" stroke-width="1px"></line><line x1="51.5625" y1="109.53846153846155" x2="46.5625" y2="109.53846153846155" style="visibility: inherit;" fill="rgb(0, 0, 0)" stroke="rgb(204, 204, 204)" stroke-width="1px"></line><line x1="51.5625" y1="95.84615384615387" x2="46.5625" y2="95.84615384615387" style="visibility: inherit;" fill="rgb(0, 0, 0)" stroke="rgb(204, 204, 204)" stroke-width="1px"></line><line x1="51.5625" y1="82.15384615384616" x2="46.5625" y2="82.15384615384616" style="visibility: inherit;" fill="rgb(0, 0, 0)" stroke="rgb(204, 204, 204)" stroke-width="1px"></line><line x1="51.5625" y1="68.46153846153848" x2="46.5625" y2="68.46153846153848" style="visibility: inherit;" fill="rgb(0, 0, 0)" stroke="rgb(204, 204, 204)" stroke-width="1px"></line><line x1="51.5625" y1="54.769230769230774" x2="46.5625" y2="54.769230769230774" style="visibility: inherit;" fill="rgb(0, 0, 0)" stroke="rgb(204, 204, 204)" stroke-width="1px"></line><line x1="51.5625" y1="41.07692307692309" x2="46.5625" y2="41.07692307692309" style="visibility: inherit;" fill="rgb(0, 0, 0)" stroke="rgb(204, 204, 204)" stroke-width="1px"></line><line x1="51.5625" y1="27.384615384615387" x2="46.5625" y2="27.384615384615387" style="visibility: inherit;" fill="rgb(0, 0, 0)" stroke="rgb(204, 204, 204)" stroke-width="1px"></line><line x1="51.5625" y1="13.692307692307683" x2="46.5625" y2="13.692307692307683" style="visibility: inherit;" fill="rgb(0, 0, 0)" stroke="rgb(204, 204, 204)" stroke-width="1px"></line><line x1="51.5625" y1="0" x2="46.5625" y2="0" style="visibility: inherit;" fill="rgb(0, 0, 0)" stroke="rgb(204, 204, 204)" stroke-width="1px"></line></g><g transform="translate(41.5625, 0)"><text x="0" y="178" dx="0em" dy="0.3em" style="text-anchor: end; visibility: hidden; font-family: Roboto, sans-serif; font-size: 12px; font-weight: 200;" fill="rgb(50, 49, 63)" stroke="none" stroke-width="1px">-0.1</text><text x="0" y="164.30769230769232" dx="0em" dy="0.3em" style="text-anchor: end; visibility: inherit; font-family: Roboto, sans-serif; font-size: 12px; font-weight: 200;" fill="rgb(50, 49, 63)" stroke="none" stroke-width="1px">0</text><text x="0" y="150.6153846153846" dx="0em" dy="0.3em" style="text-anchor: end; visibility: hidden; font-family: Roboto, sans-serif; font-size: 12px; font-weight: 200;" fill="rgb(50, 49, 63)" stroke="none" stroke-width="1px">0.1</text><text x="0" y="136.9230769230769" dx="0em" dy="0.3em" style="text-anchor: end; visibility: inherit; font-family: Roboto, sans-serif; font-size: 12px; font-weight: 200;" fill="rgb(50, 49, 63)" stroke="none" stroke-width="1px">0.2</text><text x="0" y="123.23076923076923" dx="0em" dy="0.3em" style="text-anchor: end; visibility: hidden; font-family: Roboto, sans-serif; font-size: 12px; font-weight: 200;" fill="rgb(50, 49, 63)" stroke="none" stroke-width="1px">0.3</text><text x="0" y="109.53846153846155" dx="0em" dy="0.3em" style="text-anchor: end; visibility: inherit; font-family: Roboto, sans-serif; font-size: 12px; font-weight: 200;" fill="rgb(50, 49, 63)" stroke="none" stroke-width="1px">0.4</text><text x="0" y="95.84615384615387" dx="0em" dy="0.3em" style="text-anchor: end; visibility: hidden; font-family: Roboto, sans-serif; font-size: 12px; font-weight: 200;" fill="rgb(50, 49, 63)" stroke="none" stroke-width="1px">0.5</text><text x="0" y="82.15384615384616" dx="0em" dy="0.3em" style="text-anchor: end; visibility: inherit; font-family: Roboto, sans-serif; font-size: 12px; font-weight: 200;" fill="rgb(50, 49, 63)" stroke="none" stroke-width="1px">0.6</text><text x="0" y="68.46153846153848" dx="0em" dy="0.3em" style="text-anchor: end; visibility: hidden; font-family: Roboto, sans-serif; font-size: 12px; font-weight: 200;" fill="rgb(50, 49, 63)" stroke="none" stroke-width="1px">0.7</text><text x="0" y="54.769230769230774" dx="0em" dy="0.3em" style="text-anchor: end; visibility: inherit; font-family: Roboto, sans-serif; font-size: 12px; font-weight: 200;" fill="rgb(50, 49, 63)" stroke="none" stroke-width="1px">0.8</text><text x="0" y="41.07692307692309" dx="0em" dy="0.3em" style="text-anchor: end; visibility: hidden; font-family: Roboto, sans-serif; font-size: 12px; font-weight: 200;" fill="rgb(50, 49, 63)" stroke="none" stroke-width="1px">0.9</text><text x="0" y="27.384615384615387" dx="0em" dy="0.3em" style="text-anchor: end; visibility: inherit; font-family: Roboto, sans-serif; font-size: 12px; font-weight: 200;" fill="rgb(50, 49, 63)" stroke="none" stroke-width="1px">1</text><text x="0" y="13.692307692307683" dx="0em" dy="0.3em" style="text-anchor: end; visibility: hidden; font-family: Roboto, sans-serif; font-size: 12px; font-weight: 200;" fill="rgb(50, 49, 63)" stroke="none" stroke-width="1px">1.1</text><text x="0" y="0" dx="0em" dy="0.3em" style="text-anchor: end; visibility: hidden; font-family: Roboto, sans-serif; font-size: 12px; font-weight: 200;" fill="rgb(50, 49, 63)" stroke="none" stroke-width="1px">1.2</text></g><line x1="51.5625" y1="0" x2="51.5625" y2="178" fill="rgb(0, 0, 0)" stroke="rgb(204, 204, 204)" stroke-width="1px"></line></g></g><g transform="translate(51, 0)" clip-path="url(#clip_0)"><clipPath id="clip_0"><rect width="278" height="178"></rect></clipPath><g><g><g><line x1="0" y1="0" x2="0" y2="178" fill="rgb(0, 0, 0)" stroke="rgb(60, 60, 60)" stroke-width="1px" opacity="0.25"></line><line x1="23.203125" y1="0" x2="23.203125" y2="178" fill="rgb(0, 0, 0)" stroke="rgb(60, 60, 60)" stroke-width="1px" opacity="0.25"></line><line x1="46.40625" y1="0" x2="46.40625" y2="178" fill="rgb(0, 0, 0)" stroke="rgb(60, 60, 60)" stroke-width="1px" opacity="0.25"></line><line x1="69.609375" y1="0" x2="69.609375" y2="178" fill="rgb(0, 0, 0)" stroke="rgb(60, 60, 60)" stroke-width="1px" opacity="0.25"></line><line x1="92.8125" y1="0" x2="92.8125" y2="178" fill="rgb(0, 0, 0)" stroke="rgb(60, 60, 60)" stroke-width="1px" opacity="0.25"></line><line x1="116.015625" y1="0" x2="116.015625" y2="178" fill="rgb(0, 0, 0)" stroke="rgb(60, 60, 60)" stroke-width="1px" opacity="0.25"></line><line x1="139.21875" y1="0" x2="139.21875" y2="178" fill="rgb(0, 0, 0)" stroke="rgb(60, 60, 60)" stroke-width="1px" opacity="0.25"></line><line x1="162.421875" y1="0" x2="162.421875" y2="178" fill="rgb(0, 0, 0)" stroke="rgb(60, 60, 60)" stroke-width="1px" opacity="0.25"></line><line x1="185.625" y1="0" x2="185.625" y2="178" fill="rgb(0, 0, 0)" stroke="rgb(60, 60, 60)" stroke-width="1px" opacity="0.25"></line><line x1="208.828125" y1="0" x2="208.828125" y2="178" fill="rgb(0, 0, 0)" stroke="rgb(60, 60, 60)" stroke-width="1px" opacity="0.25"></line><line x1="232.03125" y1="0" x2="232.03125" y2="178" fill="rgb(0, 0, 0)" stroke="rgb(60, 60, 60)" stroke-width="1px" opacity="0.25"></line><line x1="255.234375" y1="0" x2="255.234375" y2="178" fill="rgb(0, 0, 0)" stroke="rgb(60, 60, 60)" stroke-width="1px" opacity="0.25"></line><line x1="278.4375" y1="0" x2="278.4375" y2="178" fill="rgb(0, 0, 0)" stroke="rgb(60, 60, 60)" stroke-width="1px" opacity="0.25"></line></g><g><line x1="0" y1="178" x2="278.4375" y2="178" fill="rgb(0, 0, 0)" stroke="rgb(60, 60, 60)" stroke-width="1px" opacity="0.25"></line><line x1="0" y1="164.30769230769232" x2="278.4375" y2="164.30769230769232" fill="rgb(0, 0, 0)" stroke="rgb(60, 60, 60)" stroke-width="1px" opacity="0.25"></line><line x1="0" y1="150.6153846153846" x2="278.4375" y2="150.6153846153846" fill="rgb(0, 0, 0)" stroke="rgb(60, 60, 60)" stroke-width="1px" opacity="0.25"></line><line x1="0" y1="136.9230769230769" x2="278.4375" y2="136.9230769230769" fill="rgb(0, 0, 0)" stroke="rgb(60, 60, 60)" stroke-width="1px" opacity="0.25"></line><line x1="0" y1="123.23076923076923" x2="278.4375" y2="123.23076923076923" fill="rgb(0, 0, 0)" stroke="rgb(60, 60, 60)" stroke-width="1px" opacity="0.25"></line><line x1="0" y1="109.53846153846155" x2="278.4375" y2="109.53846153846155" fill="rgb(0, 0, 0)" stroke="rgb(60, 60, 60)" stroke-width="1px" opacity="0.25"></line><line x1="0" y1="95.84615384615387" x2="278.4375" y2="95.84615384615387" fill="rgb(0, 0, 0)" stroke="rgb(60, 60, 60)" stroke-width="1px" opacity="0.25"></line><line x1="0" y1="82.15384615384616" x2="278.4375" y2="82.15384615384616" fill="rgb(0, 0, 0)" stroke="rgb(60, 60, 60)" stroke-width="1px" opacity="0.25"></line><line x1="0" y1="68.46153846153848" x2="278.4375" y2="68.46153846153848" fill="rgb(0, 0, 0)" stroke="rgb(60, 60, 60)" stroke-width="1px" opacity="0.25"></line><line x1="0" y1="54.769230769230774" x2="278.4375" y2="54.769230769230774" fill="rgb(0, 0, 0)" stroke="rgb(60, 60, 60)" stroke-width="1px" opacity="0.25"></line><line x1="0" y1="41.07692307692309" x2="278.4375" y2="41.07692307692309" fill="rgb(0, 0, 0)" stroke="rgb(60, 60, 60)" stroke-width="1px" opacity="0.25"></line><line x1="0" y1="27.384615384615387" x2="278.4375" y2="27.384615384615387" fill="rgb(0, 0, 0)" stroke="rgb(60, 60, 60)" stroke-width="1px" opacity="0.25"></line><line x1="0" y1="13.692307692307683" x2="278.4375" y2="13.692307692307683" fill="rgb(0, 0, 0)" stroke="rgb(60, 60, 60)" stroke-width="1px" opacity="0.25"></line><line x1="0" y1="0" x2="278.4375" y2="0" fill="rgb(0, 0, 0)" stroke="rgb(60, 60, 60)" stroke-width="1px" opacity="0.25"></line></g></g></g><g><g><line x1="0" y1="164.30769230769232" x2="278.4375" y2="164.30769230769232" fill="rgb(0, 0, 0)" stroke="rgb(153, 153, 153)" stroke-width="1.5px"></line></g></g><g><g><line x1="23.203125" y1="0" x2="23.203125" y2="178" fill="rgb(0, 0, 0)" stroke="rgb(153, 153, 153)" stroke-width="1.5px"></line></g></g><g><g><g><g><g><path stroke="rgb(204, 51, 17)" stroke-width="2px" d="M23.203125,164.30769230769232L23.43515625,164.30769230769232L23.6671875,164.30769230769232L23.89921875,164.30769230769232L24.13125,164.30769230769232L24.36328125,164.30769230769232L24.5953125,107.96111807810826L24.82734375,130.88477721661775L25.059375,144.39004523857133L25.29140625,152.40557088466466L25.523437499999996,157.18375456359314L25.75546875,160.03954609779976L25.9875,161.74903729590292L26.21953125,162.77330195705852L26.4515625,163.38734681198267L26.683593750000004,163.7555888954055L26.915625,163.97646764771443L27.14765625,164.1089709687371L27.3796875,164.1884643483257L27.61171875,164.23615727580133L27.84375,164.2647719162757L28.07578125,164.2819402988155L28.3078125,164.29224118371542L28.53984375,164.29842166259164L28.771875,164.30212993117462L29.00390625,164.30435488557706L29.2359375,164.3056898557895L29.46796875,164.30649083704247L29.700000000000003,164.30697142547947L29.932031249999998,164.30725977842837L30.1640625,164.3074327901569L30.39609375,164.3075365971793L30.628125,164.3075988813875L30.860156250000003,164.30763625191048L31.092187499999998,164.3076586742236L31.32421875,164.30767212761123L31.55625,164.3076801996437L31.78828125,164.30768504286317L32.0203125,164.30768794879484L32.25234375,164.30768969235382L32.484375,164.30769073848924L32.71640625,164.30769136617045L32.9484375,164.30769174277918L33.18046875,164.30769196874445L33.4125,164.3076921043236L33.64453125,164.30769218567107L33.8765625,164.30769223447956L34.10859375,164.30769226376466L34.340625,164.3076922813357L34.57265625,164.30769229187837L34.8046875,164.30769229820393L35.03671875,164.30769230199928L35.268750000000004,164.3076923042765L35.50078125,164.30769230564283L35.7328125,164.3076923064626L35.96484375000001,164.3076923069545L36.196875,164.3076923072496L36.42890625,164.3076923074267L36.660937499999996,164.30769230753293L36.89296875,164.30769230759668L37.125,164.30769230763494L37.35703125,164.3076923076579L37.589062500000004,164.30769230767166L37.82109375,164.3076923076799L38.053124999999994,164.30769230768487L38.28515625,164.30769230768786L38.5171875,164.30769230768962L38.74921875,164.3076923076907L38.98125,164.30769230769135L39.21328125,164.30769230769172L39.4453125,164.30769230769195L39.67734375,164.3076923076921L39.909375000000004,164.30769230769218L40.14140625,164.30769230769224L40.373437499999994,164.30769230769226L40.60546875,164.30769230769226L40.8375,164.3076923076923L41.06953125,164.3076923076923L41.3015625,164.3076923076923L41.53359375,109.53846153846155L41.765625,76.67692307692307L41.997656250000006,111.72923076923078L42.229687500000004,132.7606153846154L42.461718749999996,145.37944615384615L42.693749999999994,152.95074461538462L42.92578125,157.4935236923077L43.1578125,160.21919113846153L43.38984375,161.85459160615386L43.621875,162.83583188676923L43.85390625,163.42457605513846L44.0859375,163.77782255616L44.317968750000006,163.98977045677293L44.550000000000004,164.11693919714068L44.782031249999996,164.19324044136133L45.014062499999994,164.23902118789374L45.24609375,164.26648963581314L45.478125,164.28297070456483L45.71015625,164.29285934581583L45.9421875,164.2987925305664L46.17421875,164.30235244141676L46.40625,164.304488387927L46.638281250000006,164.3057699558331L46.8703125,109.53730812734601L47.102343749999996,131.44546179948455L47.334375,144.59035400276764L47.56640625,152.4772893247375L47.7984375,157.20945051791944L48.03046875,160.04874723382858L48.2625,161.75232526337408L48.49453125,162.77447208110138L48.7265625,163.38776017173774L48.958593750000006,163.75573302611957L49.190625,163.97651673874864L49.422656249999996,164.10898696632614L49.6546875,109.41923833364183L49.88671875,131.374619923262L50.11875,144.54784887703414L50.350781250000004,152.4517862492974L50.5828125,157.19414867265536L50.81484375,160.03956612667014L51.04687499999999,161.746816599079L51.27890625,162.77116688252434L51.5109375,108.61654628336073L51.742968749999996,76.1237739238626L51.975,56.62811050816372L52.20703125,44.93071245874439L52.4390625,37.91227362909278L52.671093750000004,88.47044110053261L52.903125,64.03611081416572L53.13515625,104.14474341157637L53.36718750000001,73.44069220079196L53.59921875,55.01826147432134L53.83125,43.964803038438966L54.063281249999996,92.1019587461403L54.2953125,66.21502140153035L54.52734375,50.68285899476435L54.759375,41.36356155070477L54.991406250000004,35.771983084269024L55.2234375,87.18626677363834L55.455468749999994,63.26560621802917L55.6875,48.91320988466364L55.91953125,95.0710028538751L56.1515625,67.99644786617121L56.38359375,106.52094564277964L56.615625,129.6356443087447L56.84765625,88.735232739093L57.0796875,64.19498579730195L57.311718750000004,104.24006840145809L57.54375,73.49788719472102L57.775781249999994,55.05257847067876L58.0078125,43.98539323625342L58.23984375,37.345082095598194L58.471875,33.360895411205064L58.70390625,30.9703834005692L58.9359375,29.536076194187675L59.16796875,28.67549187035876L59.400000000000006,28.159141276061398L59.632031250000004,27.84933091948301L59.864062499999996,82.43267547476674L60.096093749999994,115.18268220793696L60.328125,80.06345547860832L60.56015625,58.99191944101116L60.7921875,46.348997818452844L61.02421875,93.53247561414864L61.25625,67.07333152233534L61.48828125,51.19784506724737L61.720312500000006,41.67255319419458L61.952343750000004,35.957378070362886L62.184374999999996,32.52827299606388L62.416406249999994,30.470809951484497L62.6484375,29.236332124736858L62.88046875,28.495645428688253L63.1125,28.051233411059115L63.34453125,27.784586200481613L63.5765625,27.62459787413511L63.80859375,27.52860487832723L64.040625,82.24023985007327L64.27265625,60.29799006389011L64.5046875,47.132640192180226L64.73671875000001,94.00266103838504L64.96875,67.3554427768772L65.20078125,106.13634258920324L65.4328125,74.63565170736808L65.66484375,55.73523717826702L65.896875,44.394988460806374L66.12890625,37.59083923032999L66.3609375,33.50834969204416L66.59296875,31.058855969072653L66.825,29.589159735289737L67.05703125000001,28.707341995020002L67.2890625,28.17825135085815L67.52109374999999,27.860796964361047L67.753125,82.43955510169356L67.98515625,60.41757921486229L68.2171875,101.97362445199433L68.44921875,72.13802082504272L68.68125,54.23665864887178L68.91328125,43.49584134316924L69.1453125,37.05135095974767L69.37734375000001,33.18465672969476L69.609375,30.86464019166303L69.84140625,29.472630268843975L70.0734375,28.63742431515253L70.30546875,28.13630074293766L70.53750000000001,27.83562659960873L70.76953125,27.6552221136114L71.0015625,27.546979422012978L71.23359375000001,27.48203380705394L71.465625,27.443066438078503L71.69765625000001,27.419686016693277L71.92968750000001,27.40565776386212L72.16171874999999,27.3972408121634L72.39375,27.3921906411442L72.62578124999999,27.389160538532657L72.8578125,27.38734247696577L73.08984375,82.15548240925641L73.32187499999999,60.24713559939998L73.55390625,47.102127513486145L73.7859375,39.215122661937855L74.01796875,34.48291975100886L74.25,31.643598004451476L74.48203125,29.940004956517015L74.7140625,28.917849127756384L74.94609375,28.30455563049997L75.17812500000001,27.936579532146123L75.41015625,27.715793873133855L75.6421875,27.583322477726472L75.87421875000001,27.50383964048204L76.10624999999999,27.45614993813538L76.33828125,27.427536116727367L76.5703125,27.41036782388259L76.80234374999999,27.4000668481757L77.034375,27.39388626275157L77.26640625,27.390177911497105L77.4984375,27.387952900744427L77.73046875,82.15584866352359L77.9625,60.2473553519603L78.19453125,47.10225936502234L78.4265625,39.21520177285955L78.65859375,34.48296721756189L78.890625,31.6436264843833L79.12265625,29.94002204447612L79.3546875,28.917859380531837L79.58671875,83.07379255139604L79.81875000000001,60.79812168468378L80.05078125,102.20194993388719L80.2828125,72.27501611417847L80.51484375000001,54.318855822353235L80.74687499999999,43.5451596472581L80.97890625,37.080941942201015L81.2109375,33.20241131916677L81.44296874999999,30.875292945346217L81.675,29.479021921053864L81.90703125,28.64125930647849L82.1390625,28.138601737733236L82.37109375,82.60623796571689L82.603125,60.51758893327629L82.83515625,47.26439951381191L83.0671875,39.312485862133286L83.29921875000001,34.541337671126115L83.53125,31.678648756521834L83.76328125,29.961035407759237L83.99531250000001,28.930467398501705L84.22734375,28.312126592947177L84.45937500000001,27.94112210961444L84.69140624999999,27.71851941961482L84.92343749999999,27.584957805615044L85.15546875,27.504820837215195L85.38749999999999,27.45673865617528L85.61953125,27.427889347551297L85.8515625,82.17981053160773L86.08359374999999,115.03096324204155L86.315625,79.97242409907109L86.54765625,58.937300613288805L86.7796875,46.316226521819445L87.01171875,38.74358206693781L87.24375,34.19999539400883L87.47578125,31.473843390251442L87.7078125,29.838152187997032L87.93984375000001,28.856737466644354L88.171875,28.26788863383278L88.40390625,27.914579334145802L88.63593750000001,27.702593754333627L88.86796875,27.57540240644633L89.10000000000001,82.26831836694474L89.33203125000001,60.31483717401299L89.56406249999999,47.14274845825395L89.79609375,39.23949522879851L90.02812499999999,34.497543291125254L90.26015625,31.65237212852132L90.4921875,29.94526943095895L90.72421874999999,28.921007812421543L90.95625,28.306450841299064L91.18828125,27.937716658625583L91.4203125,27.71647614902151L91.65234375,27.58373184325905L91.884375,27.504085259801585L92.11640625,27.4562973097271L92.3484375,27.427624539682423L92.58046875000001,27.410420877655596L92.8125,82.16932944967029L93.04453125,60.255443823648335L93.27656250000001,47.10711244803516L93.50859374999999,39.21811362266724L93.740625,34.484714327446504L93.97265625,31.644674750314056L94.20468749999999,29.940651004034578L94.43671875,28.91823675626689L94.66875,28.304788207606286L94.90078125,27.936719078409922L95.1328125,27.715877600892103L95.36484375,82.35260348361219L95.596875,60.36540824401348L95.82890625,47.17309110025424L96.0609375,39.2577008139987L96.29296875,89.27769741147614L96.525,64.52046460073184L96.75703125,49.66612491428526L96.9890625,95.52275187164807L97.22109375000001,68.26749727683502L97.453125,51.91434451994717L97.68515625,42.10245286581446L97.91718750000001,36.215317873334826L98.14921874999999,32.683036877847066L98.38125,30.563668280554385L98.61328125,29.29204712217879L98.84531249999999,83.2983051963842L99.07734375,60.932829271676674L99.309375,47.513543716852176L99.54140625,39.46197238395746L99.7734375,34.63102958422063L100.00546875,31.73246390437852L100.2375,84.76255526570405L100.46953125,61.8113793132686L100.70156250000001,48.040673741807325L100.93359375,39.77825039893052L101.165625,34.820796393204475L101.39765625000001,86.61555475899962L101.6296875,62.92317900924594L101.86171875000001,48.70775355939374L102.09374999999999,40.178498289482405L102.32578124999999,35.060945127535604L102.5578125,31.990413230367533L102.78984374999999,30.148094092066675L103.021875,29.042702609086138L103.25390625,28.379467719297853L103.48593749999999,27.981526785424855L103.71796875,27.742762225101075L103.95,27.599503488906798L104.18203125,27.513548247190236L104.4140625,27.4619751021603L104.64609375,82.20026198437311L104.878125,60.274003344470025L105.11015625,47.118248160528175L105.34218750000001,93.99402581939383L105.57421875,67.35026164548246L105.80625,106.1332339103664L106.03828125000001,74.633786500066L106.2703125,55.73411805388575L106.50234375000001,44.39431698617761L106.73437500000001,37.59043634555272L106.96640624999999,33.508107961177785L107.1984375,31.05871093055281L107.43046874999999,29.589072712177845L107.6625,28.707289781152845L107.89453125,28.178220022537865L108.12656249999999,27.860778167368867L108.35859375,27.670313054267474L108.590625,82.32526475563743L108.82265625,60.34900500722863L109.0546875,101.93247992741411L109.28671875,72.11333411029462L109.51875,108.9910773892537L109.75078125,76.34849258739838L109.98281250000001,111.53217247551595L110.21484375,77.87314963915573L110.446875,57.67773593733959L110.67890625000001,45.560487716249916L110.91093749999999,38.29013878359609L111.14296875,33.92792942400382L111.375,31.310603808248437L111.60703124999999,84.509439208026L111.8390625,61.659509678661756L112.07109375,47.94955196104319L112.303125,39.72357733047206L112.53515625,34.787992552129396L112.7671875,31.826641685123793L112.99921875,30.04983116492044L113.23125,28.98374485279841L113.46328125,28.3440930655252L113.6953125,27.960301993161266L113.92734375,27.730027349742922L114.159375,27.59186256369192L114.39140625,27.50896369206131L114.62343750000001,27.45922436908294L114.85546875,27.429380775295908L115.0875,27.411474619023693L115.31953125000001,27.400730925260373L115.55156249999999,27.394284709002367L115.78359375,27.390416979247583L116.015625,27.388096341394682L116.24765624999999,27.38670395868297L116.4796875,82.15509929828671L116.71171875,60.24690573281818L116.94375,47.10198959353708L117.17578125,93.98427067919917L117.4078125,67.34440856136564L117.63984375,106.1297220598963L117.871875,74.63167938978394L118.10390625000001,55.73285378771652L118.3359375,44.393558426476076L118.56796875,37.5899812097318L118.80000000000001,33.507834879685234L119.03203125,31.058547081657313L119.26406250000001,84.35820517207131L119.49609374999999,61.56876925708894L119.72812499999999,47.89510770809951L119.96015625,39.69091077870585L120.19218749999999,34.76839262106967L120.42421875,31.814881726487965L120.65625,30.042775189738933L120.88828124999999,28.979511267689496L121.1203125,28.34155291445985L121.35234375,27.95877790252207L121.584375,27.729112895359403L121.81640625,27.59131389106178L122.0484375,27.508634488483246L122.28046875,27.459026846936084L122.5125,27.42926226200782L122.74453125000001,27.41140351105084L122.9765625,27.40068826047664L123.20859375,27.394259110132136L123.44062500000001,27.390401619925427L123.67265625,27.388087125801416L123.90468750000001,27.38669842932701L124.13671875000001,27.38586521144237L124.36874999999999,82.15459604994234L124.60078125,60.24660378381156L124.83281249999999,47.1018084241331L125.06484375,39.21493120832601L125.296875,34.48280487884178L125.52890624999999,31.64352908115122L125.7609375,29.93996360253688L125.99296875,28.917824315368268L126.225,28.304540743067115L126.45703125,27.93657059968643L126.6890625,27.715788513658012L126.92109375,27.583319262040956L127.153125,27.50383771107073L127.38515625000001,27.456148780488594L127.6171875,27.427535422139304L127.84921875,27.41036740712974L128.08125,27.400066598124L128.31328125,27.39388611272055L128.5453125,27.390177821478467L128.77734375,27.387952846733224L129.009375,27.3866178618861L129.24140625,27.38581687097782L129.47343750000002,82.15456704566363L129.70546875,60.24658638124432L129.9375,47.10179798259275L130.16953125,39.2149249434018L130.4015625,89.25203188911802L130.63359375,64.50506528731695L130.865625,104.4261160954671L131.09765625,73.60951581112641L131.3296875,109.88878640975275L131.56171874999998,76.88711799969781L131.79375,57.08611695366485L132.02578125,45.20551632604507L132.2578125,38.0771559494732L132.48984375,88.56937049276085L132.721875,64.09546844950265L132.95390625,49.41112722354775L133.1859375,40.60052248797479L133.41796875,90.08339041586183L133.65,65.00388040336324L133.88203125,49.9561743958641L134.11406250000002,95.69678156059537L134.34609375,68.37191509020337L134.578125,51.97699520796817L134.81015625,42.14004327862706L135.04218749999998,36.237872121022384L135.27421875,32.6965694264596L135.50625,30.5717878097219L135.73828125,84.06614960891007L135.9703125,61.39353591919218L136.20234375,47.789967705361484L136.434375,39.62782677706305L136.66640625,34.73054222008398L136.8984375,31.792171485896546L137.13046875,30.02914904538408L137.3625,28.971335581076612L137.59453125,28.336647502492113L137.8265625,27.95583465534143L138.05859375,27.727346947051014L138.290625,27.590254322076753L138.52265625,27.50799874709221L138.75468750000002,27.458645402101464L138.98671875,27.429033395107037L139.21875,27.41126619091038L139.45078125,82.16983663762316L139.6828125,60.25574813642005L139.91484375,47.107295035698186L140.146875,39.21822317526507L140.37890625,34.484780059005196L140.6109375,31.644714189249257L140.84296875,84.7099054366265L141.07500000000002,61.779789415822066L141.30703125,48.0217198033394L141.5390625,39.766878035849786L141.77109375,34.81397297535603L142.003125,31.842229939059752L142.23515625000002,30.059184117282L142.46718750000002,28.98935662421537L142.69921875,28.347460128375378L142.93125,27.962322230871393L143.16328125,27.73123949236899L143.39531250000002,27.59258984926754L143.62734375000002,27.50940006340667L143.85937500000003,27.45948619189016L144.09140624999998,27.42953786898024L144.32343749999998,27.411568875234305L144.55546875,27.40078747898675L144.7875,27.39431864123821L145.01953125,27.390437338589063L145.25156249999998,27.38810855699959L145.48359374999998,27.3867112880459L145.715625,27.385872926673706L145.94765625,82.15460067908116L146.1796875,60.24660656129486L146.41171875,47.101810090623076L146.64374999999998,39.214932208219984L146.87578125,89.25203624800895L147.1078125,64.50506790265152L147.33984375,49.656886895437076L147.571875,40.74797829110838L147.80390625,35.402633128511205L148.0359375,32.195426030952866L148.26796875,30.27110177241788L148.5,29.11650721729686L148.73203125,28.423750484224275L148.9640625,28.008096444380712L149.19609375000002,27.758704020474585L149.428125,27.609068566130908L149.66015625,27.51928729352471L149.8921875,27.46541852996097L150.12421875,27.433097271822742L150.35625000000002,27.413704516939795L150.58828125000002,27.402068864010033L150.8203125,27.395087472252182L151.05234375,27.390898637197466L151.284375,27.388385336164635L151.51640625000002,27.386877355544947L151.74843750000002,27.385972567173113L151.98046874999997,27.385429694150016L152.21249999999998,27.385103970336182L152.44453124999998,27.38490853604786L152.6765625,27.384791275474853L152.90859375,27.38472091913109L153.140625,82.15390947455559L153.37265624999998,115.01542260781027L153.60468749999998,79.96309971853233L153.83671875,113.7009367541963L154.06875,79.17440820636395L154.30078125,58.45849107766453L154.5328125,100.79817156967563L154.76484374999998,71.43274909565153L154.996875,53.81349561123707L155.22890625,43.24194352058841L155.4609375,36.899012266199186L155.69296875,33.09325351356567L155.925,30.809798261985552L156.15703125,29.43972511103749L156.3890625,28.617681220468647L156.62109375,28.124454886127346L156.853125,27.828519085522558L157.08515625,82.42018837439048L157.3171875,60.40595917848044L157.54921875,47.19742166093442L157.78125,39.272299150406816L158.01328125,34.517225644090246L158.2453125,31.664181540300316L158.47734375000002,29.952355078026326L158.709375,28.925259200661948L158.94140625,28.309001674243316L159.1734375,27.939247158392135L159.40546875,27.717394448881443L159.63750000000002,27.584282823175013L159.86953125000002,27.504415847751186L160.1015625,27.456495662496877L160.33359375,27.42774355134429L160.565625,82.1797230538835L160.79765625000002,60.26167998617627L161.02968750000002,47.11085414555191L161.26171875000003,39.22035864117732L161.49374999999998,34.48606133855252L161.72578124999998,31.645482956977652L161.9578125,29.94113592803275L162.18984375,28.918527710665806L162.421875,28.304962780245628L162.65390624999998,27.93682382199353L162.88593749999998,27.71594044704228L163.11796875,27.583410422071502L163.35,27.50389240708906L163.58203125,27.45618159809958L163.8140625,27.427555112705903L164.04609374999998,27.41037922146969L164.278125,82.16930445595875L164.51015625,60.255428827421404L164.7421875,47.10710345029901L164.97421875,39.21810822402556L165.20625,34.48471108826149L165.43828125,31.644672806803033L165.6703125,29.94064983792797L165.90234375,28.918236056602964L166.134375,28.304787787807918L166.36640625,27.93671882653091L166.59843750000002,27.71587744976469L166.83046875,27.583372623704957L167.0625,82.27310049729992L167.29453125,60.3177064522261L167.5265625,47.14447002518182L167.75859375000002,39.24052816895525L167.99062500000002,34.4981630552193L168.22265625,31.652743986977743L168.4546875,29.945492546032803L168.68671875,28.921141681465837L168.91875000000002,28.30653116272564L169.15078125000002,27.937764851481536L169.38281249999997,27.716505064735067L169.61484374999998,27.583749192687215L169.84687499999998,27.504095669458465L170.07890625,82.22553432475203L170.3109375,60.289166748697376L170.54296875,47.12734620306459L170.77499999999998,39.23025387568489L171.00703124999998,34.49199847925708L171.2390625,31.649045241400405L171.47109375,29.9432732986864L171.703125,83.68904090228878L171.93515625,61.16727069521942L172.16718749999998,47.65420857097782L172.39921875,39.54637129643284L172.63125,34.681668931705865L172.86328125,31.762847512869662L173.0953125,84.78078543079873L173.32734375,61.82231741232538L173.559375,48.04723660124138L173.79140625,39.78218811459096L174.0234375,34.82315902260073L174.25546875,31.8477415674066L174.4875,30.06249109429012L174.71953125,28.991340810420233L174.9515625,28.34865064009829L175.18359375,27.963036537905115L175.415625,27.731668076589223L175.64765625,27.5928469997997L175.87968750000002,27.509554353725964L176.11171875,27.459578766081716L176.34375,27.429593413495187L176.57578125,27.41160220194328L176.8078125,27.400807475012122L177.03984375000002,27.394330638853436L177.27187500000002,27.390444537158224L177.50390625,27.388112876141097L177.7359375,27.386713879530806L177.96796875,27.38587448156464L178.20000000000002,27.385370842784937L178.43203125000002,27.385068659517096L178.66406250000003,27.384887349556422L178.89609374999998,27.38477856358001L179.12812499999998,27.38471329199415L179.36015625,27.38467412904264L179.5921875,82.15388140050251L179.82421875,60.246174994147665L180.05624999999998,47.10155115033476L180.28828124999998,39.21477684404701L180.5203125,34.48271226027435L180.75234375,31.643473510010754L180.984375,29.939930259852606L181.21640625,83.6870350789885L181.44843749999998,61.166067201239244L181.68046875,47.65348647458972L181.9125,39.54593803859999L182.14453125,34.68140897700613L182.3765625,31.76269154004985L182.60859375,30.011461077876053L182.840625,28.960722800571787L183.07265625,28.33027983418922L183.3046875,27.95201405435969L183.53671875,82.49428535569274L183.76875,60.450417367261814L184.00078125000002,47.224096574203244L184.2328125,39.2883040983681L184.46484375,89.29605938209778L184.696875,64.53148178310484L184.92890625,49.67273522370907L185.16093750000002,40.75748728807159L185.39296875000002,35.408338526689114L185.625,32.19884926985962L185.85703125,30.273155715761938L186.0890625,29.1177395833033L186.32109375000002,28.424489903828142L186.55312500000002,28.00854009614303L186.78515624999997,82.52820098076276L187.01718749999998,60.47076674230381L187.24921874999998,47.236306199228444L187.48125,39.29562987338323L187.71328125,34.53122407787609L187.9453125,31.672580600571795L188.17734374999998,29.957394514189243L188.40937499999998,83.69751363159047L188.64140625,61.172354332800445L188.8734375,47.65725875352641L189.10546875,39.548201405962L189.3375,34.68276699742336L189.56953124999998,31.763506352300183L189.8015625,30.011949965226265L190.03359375,28.96101613298191L190.265625,28.330455833635295L190.49765625,27.952119654027328L190.7296875,27.725117946262554L190.96171875,27.588916921603687L191.19375,27.507196306808375L191.42578125,27.45816393793117L191.6578125,27.428744516604837L191.88984375,27.41109286380906L192.121875,27.4005018721316L192.35390625,27.394147277125118L192.5859375,27.390334520121222L192.81796875,27.388046865918888L193.05,27.386674273397478L193.28203125000002,27.38585071788466L193.5140625,27.385356584576936L193.74609375,27.38506010459231L193.978125,27.38488221660153L194.21015625,82.15400625303785L194.44218750000002,60.24624990566887L194.67421875000002,47.10159609724749L194.90625,39.21480381219464L195.13828125,34.48272844116295L195.3703125,31.64348321854391L195.60234375000002,29.939936084972494L195.83437500000002,28.917807804829653L196.06640625000003,28.304530836743933L196.29843749999998,27.936564655892518L196.53046874999998,27.715784947381653L196.7625,27.583317122275155L196.99453125,27.503836427211258L197.2265625,27.456148010172896L197.45859374999998,27.427534959949888L197.69062499999998,27.410367129816084L197.92265625,27.4000664317358L198.1546875,27.393886012887624L198.38671875,27.390177761578734L198.61875,27.387952810793372L198.85078124999998,27.386617840322195L199.0828125,27.38581685803948L199.31484375,82.1545670379006L199.546875,60.24658637658651L199.77890625,47.10179797979807L200.0109375,39.21492494172497L200.24296875,34.48280111888114L200.475,31.643526825174863L200.70703125,29.939962248951073L200.9390625,28.9178235032168L201.17109375,28.304540255776246L201.40312500000002,27.9365703073119L201.63515625,27.7157883382333L201.8671875,27.583319156786114L202.09921875,27.50383764791782L202.33125,27.456148742596874L202.56328125000002,82.19676616863504L202.79531250000002,115.04113662425794L203.02734375,79.97852812840091L203.259375,58.940963030886714L203.49140625,46.318423972378184L203.72343750000002,38.744900537273054L203.95546875000002,34.200786476209984L204.18749999999997,31.474318039572147L204.41953124999998,29.83843697758944L204.65156249999998,28.856908340399816L204.88359375,28.26799115808605L205.115625,27.91464084869779L205.34765625,27.702630663064824L205.57968749999998,27.57542455168505L205.81171874999998,27.499100884857192L206.04375,27.453306684760463L206.27578125,27.425830164702415L206.5078125,27.4093442526676L206.73984375,27.399452705446723L206.97187499999998,27.39351777711419L207.20390625,27.389956820114673L207.4359375,27.387820245914945L207.66796875,27.38653830139514L207.9,27.385769134683247L208.13203125,27.385307634656105L208.3640625,27.3850307346398L208.59609375,27.38486459463005L208.828125,82.15399567985496L209.06015625,60.24624356175914L209.2921875,47.10159229090165L209.52421875,39.21480152838712L209.75625,34.48272707087841L209.98828125,31.643482396373223L210.2203125,29.93993559167007L210.45234375,83.68703827807899L210.68437500000002,61.16606912069355L210.91640625,47.65348762626229L211.1484375,39.54593872960353L211.38046875,34.68140939160826L211.6125,31.762691788811118L211.84453125000002,30.011461227132838L212.07656250000002,28.96072289012586L212.30859375,28.33027988792166L212.540625,82.72124485582992L212.77265625,60.58659306734412L213.00468750000002,47.30580199425262L213.23671875000002,39.33732735039772L213.46875000000003,34.55624256408479L213.70078124999998,31.687591692297048L213.93281249999998,29.966401169224387L214.16484375,28.93368685538079L214.396875,28.314058267074625L214.62890625,27.942281114090925L214.86093749999998,27.71921482230071L215.09296874999998,27.58537504722659L215.325,27.505071182182117L215.55703125,27.45688886315544L215.7890625,82.1972102409702L216.02109375,60.27217229842826L216.25312499999998,47.11714953290312L216.48515625,39.22413587358801L216.7171875,34.48832767799897L216.94921875,31.646842760645534L217.18125,29.94195181023348L217.41328125,28.919017239986253L217.6453125,28.305256497837906L217.87734375,27.93700005254891L218.109375,27.71604618537549L218.34140625,27.583473865071443L218.5734375,27.503930472889028L218.80546875000002,27.45620443757958L219.0375,27.42756881639392L219.26953125,27.410387443682506L219.5015625,27.400078620055673L219.73359375,27.39389332587954L219.96562500000002,27.390182149373874L220.19765625000002,27.387955443470467L220.4296875,82.15585018915921L220.66171875,60.24735626734168L220.89375,47.10225991425118L221.12578125000002,39.215202102396866L221.35781250000002,34.48296741528427L221.58984374999997,31.643626603016717L221.82187499999998,29.940022115656184L222.05390624999998,28.917859423239864L222.2859375,28.304561807790055L222.51796875,82.70581400775096L222.75,115.3465653277275L222.98203124999998,134.93101611971343L223.21406249999998,91.9124558256742L223.44609375,66.1013196492507L223.678125,50.61463794339657L223.91015625,41.3226289198841L224.1421875,35.74742350577661L224.37421874999998,87.17153102654291L224.60625,63.256764769771905L224.83828125,48.90790501570929L225.0703125,40.298589163271714L225.30234375,35.132999651809186L225.534375,32.03364594493167L225.76640625,30.174033720805166L225.9984375,29.058266386329258L226.23046875,28.388805985643717L226.4625,82.75636051446315L226.69453125,60.60766246252404L226.9265625,47.31844363136057L227.15859375,39.34491233266249L227.390625,34.560793553443645L227.62265625,31.690322285912348L227.8546875,29.968039525393564L228.08671875000002,28.934669869082295L228.31875,28.31464807529553L228.55078125,27.94263499902347L228.7828125,27.719427153260252L229.01484375,27.585502445802295L229.24687500000002,82.2743783905583L229.47890625000002,115.08770395741189L229.7109375,80.0064685282933L229.94296875,58.95772727082213L230.175,101.09771328557021L230.40703125000002,71.61247412518829L230.63906250000002,53.92133062895914L230.87109375000003,98.0758753004524L231.10312499999998,69.7993713341176L231.33515624999998,52.83346895431672L231.5671875,97.42315829566697L231.79921875,69.40774113124634L232.03125,52.59849083259396L232.26328124999998,42.51294065340254L232.49531249999998,36.46161054588766L232.72734375,87.60004325060952L232.959375,63.51387210421188L233.19140625,49.062169416373266L233.4234375,40.391147803670115L233.65546874999998,35.18853483604823L233.8875,32.066967055475075L234.11953125,30.194026387131217L234.3515625,29.070261986124866L234.58359375,28.396003345521088L234.815625,27.991448161158807L235.04765625,27.748715050541428L235.2796875,27.603075184171022L235.51171875,27.515691264348767L235.74375,27.463260912455418L235.97578125,27.43180270131938L236.20781250000002,27.412927774637804L236.43984375,27.40160281862884L236.671875,27.394807845023468L236.90390625,27.390730860860216L237.1359375,82.15751543959307L237.36796875000002,60.24835541760201L237.60000000000002,47.10285940440736L237.83203125,39.215561796490555L238.0640625,34.48318323174051L238.29609375,31.643756092890467L238.52812500000002,84.7093305788112L238.76015625000002,61.77944450113288L238.99218749999997,48.02151285452588L239.22421874999998,39.766753866561686L239.45624999999998,34.81389847378317L239.68828125,31.842185238116063L239.9203125,30.05915729671579L240.15234375,28.989340531875612L240.38437499999998,28.347450472971527L240.61640624999998,27.962316437629084L240.8484375,82.50046678565438L241.08046875,60.45412622523877L241.3125,47.22632188898942L241.54453125,39.289639287239815L241.77656249999998,34.527629726190035L242.00859375,31.670423989560184L242.240625,84.72533131681303L242.47265625,61.789044943933966L242.7046875,48.02727312020654L242.93671875,39.770210025970066L243.16875,34.81597216942819L243.40078125,31.843429455503085L243.6328125,84.82913459637878L243.86484375,116.6205576809042L244.096875,135.69541153161944L244.32890625,92.37109307281783L244.5609375,66.37650199753685L244.79296875,50.779747352368254L245.025,41.42169456526711L245.25703125,35.80686289300643L245.48906250000002,32.43796388965003L245.72109375,30.416624487636177L245.953125,29.203820846427856L246.18515625,28.47613866170287L246.4171875,28.039529350867884L246.64921875000002,82.54679453359765L246.88125000000002,60.48192287400474L247.11328125,47.242999878249L247.3453125,39.299646080795554L247.57734375,34.53363380232348L247.80937500000002,31.67402643524025L248.04140625000002,84.72749278422107L248.27343750000003,116.55957259360956L248.50546874999998,80.88958971001188L248.73749999999998,59.48759997985329L248.96953125,46.64640614175814L249.2015625,38.94168983890105L249.43359375,34.31886005718679L249.66562499999998,31.54516218815821L249.89765624999998,29.880943466741094L250.1296875,28.8824122338908L250.36171875,28.283293494180647L250.59375,82.69305301958532L250.82578125,60.56967796559735L251.05781249999998,47.295652933204565L251.28984375,39.33123791376888L251.521875,34.5525889021075L251.75390625,31.685399495110655L251.9859375,84.73431662014333L252.21796875,116.56366689516292L252.45,80.89204629094391L252.68203125,59.48907392841249L252.9140625,101.41652128012443L253.14609375,71.8037589219208L253.378125,108.8053322762294L253.61015625000002,76.23704551958382L253.8421875,111.46530423482722L254.07421875,132.60225946397327L254.30625,145.28443260146088L254.53828125,98.12450571472269L254.77031250000002,69.82854958267977L255.00234375000002,52.850975903454" style="fill: none;" fill="none"></path></g></g></g></g><g opacity="0.2"><g><g><g><path stroke="rgb(204, 51, 17)" stroke-width="2px" d="M23.203125,164.30769230769232L23.43515625,164.30769230769232L23.6671875,164.30769230769232L23.89921875,164.30769230769232L24.13125,164.30769230769232L24.36328125,164.30769230769232L24.5953125,27.384615384615387L24.82734375,164.30769230769232L25.059375,164.30769230769232L25.29140625,164.30769230769232L25.523437499999996,164.30769230769232L25.75546875,164.30769230769232L25.9875,164.30769230769232L26.21953125,164.30769230769232L26.4515625,164.30769230769232L26.683593750000004,164.30769230769232L26.915625,164.30769230769232L27.14765625,164.30769230769232L27.3796875,164.30769230769232L27.61171875,164.30769230769232L27.84375,164.30769230769232L28.07578125,164.30769230769232L28.3078125,164.30769230769232L28.53984375,164.30769230769232L28.771875,164.30769230769232L29.00390625,164.30769230769232L29.2359375,164.30769230769232L29.46796875,164.30769230769232L29.700000000000003,164.30769230769232L29.932031249999998,164.30769230769232L30.1640625,164.30769230769232L30.39609375,164.30769230769232L30.628125,164.30769230769232L30.860156250000003,164.30769230769232L31.092187499999998,164.30769230769232L31.32421875,164.30769230769232L31.55625,164.30769230769232L31.78828125,164.30769230769232L32.0203125,164.30769230769232L32.25234375,164.30769230769232L32.484375,164.30769230769232L32.71640625,164.30769230769232L32.9484375,164.30769230769232L33.18046875,164.30769230769232L33.4125,164.30769230769232L33.64453125,164.30769230769232L33.8765625,164.30769230769232L34.10859375,164.30769230769232L34.340625,164.30769230769232L34.57265625,164.30769230769232L34.8046875,164.30769230769232L35.03671875,164.30769230769232L35.268750000000004,164.30769230769232L35.50078125,164.30769230769232L35.7328125,164.30769230769232L35.96484375000001,164.30769230769232L36.196875,164.30769230769232L36.42890625,164.30769230769232L36.660937499999996,164.30769230769232L36.89296875,164.30769230769232L37.125,164.30769230769232L37.35703125,164.30769230769232L37.589062500000004,164.30769230769232L37.82109375,164.30769230769232L38.053124999999994,164.30769230769232L38.28515625,164.30769230769232L38.5171875,164.30769230769232L38.74921875,164.30769230769232L38.98125,164.30769230769232L39.21328125,164.30769230769232L39.4453125,164.30769230769232L39.67734375,164.30769230769232L39.909375000000004,164.30769230769232L40.14140625,164.30769230769232L40.373437499999994,164.30769230769232L40.60546875,164.30769230769232L40.8375,164.30769230769232L41.06953125,164.30769230769232L41.3015625,164.30769230769232L41.53359375,27.384615384615387L41.765625,27.384615384615387L41.997656250000006,164.30769230769232L42.229687500000004,164.30769230769232L42.461718749999996,164.30769230769232L42.693749999999994,164.30769230769232L42.92578125,164.30769230769232L43.1578125,164.30769230769232L43.38984375,164.30769230769232L43.621875,164.30769230769232L43.85390625,164.30769230769232L44.0859375,164.30769230769232L44.317968750000006,164.30769230769232L44.550000000000004,164.30769230769232L44.782031249999996,164.30769230769232L45.014062499999994,164.30769230769232L45.24609375,164.30769230769232L45.478125,164.30769230769232L45.71015625,164.30769230769232L45.9421875,164.30769230769232L46.17421875,164.30769230769232L46.40625,164.30769230769232L46.638281250000006,164.30769230769232L46.8703125,27.384615384615387L47.102343749999996,164.30769230769232L47.334375,164.30769230769232L47.56640625,164.30769230769232L47.7984375,164.30769230769232L48.03046875,164.30769230769232L48.2625,164.30769230769232L48.49453125,164.30769230769232L48.7265625,164.30769230769232L48.958593750000006,164.30769230769232L49.190625,164.30769230769232L49.422656249999996,164.30769230769232L49.6546875,27.384615384615387L49.88671875,164.30769230769232L50.11875,164.30769230769232L50.350781250000004,164.30769230769232L50.5828125,164.30769230769232L50.81484375,164.30769230769232L51.04687499999999,164.30769230769232L51.27890625,164.30769230769232L51.5109375,27.384615384615387L51.742968749999996,27.384615384615387L51.975,27.384615384615387L52.20703125,27.384615384615387L52.4390625,27.384615384615387L52.671093750000004,164.30769230769232L52.903125,27.384615384615387L53.13515625,164.30769230769232L53.36718750000001,27.384615384615387L53.59921875,27.384615384615387L53.83125,27.384615384615387L54.063281249999996,164.30769230769232L54.2953125,27.384615384615387L54.52734375,27.384615384615387L54.759375,27.384615384615387L54.991406250000004,27.384615384615387L55.2234375,164.30769230769232L55.455468749999994,27.384615384615387L55.6875,27.384615384615387L55.91953125,164.30769230769232L56.1515625,27.384615384615387L56.38359375,164.30769230769232L56.615625,164.30769230769232L56.84765625,27.384615384615387L57.0796875,27.384615384615387L57.311718750000004,164.30769230769232L57.54375,27.384615384615387L57.775781249999994,27.384615384615387L58.0078125,27.384615384615387L58.23984375,27.384615384615387L58.471875,27.384615384615387L58.70390625,27.384615384615387L58.9359375,27.384615384615387L59.16796875,27.384615384615387L59.400000000000006,27.384615384615387L59.632031250000004,27.384615384615387L59.864062499999996,164.30769230769232L60.096093749999994,164.30769230769232L60.328125,27.384615384615387L60.56015625,27.384615384615387L60.7921875,27.384615384615387L61.02421875,164.30769230769232L61.25625,27.384615384615387L61.48828125,27.384615384615387L61.720312500000006,27.384615384615387L61.952343750000004,27.384615384615387L62.184374999999996,27.384615384615387L62.416406249999994,27.384615384615387L62.6484375,27.384615384615387L62.88046875,27.384615384615387L63.1125,27.384615384615387L63.34453125,27.384615384615387L63.5765625,27.384615384615387L63.80859375,27.384615384615387L64.040625,164.30769230769232L64.27265625,27.384615384615387L64.5046875,27.384615384615387L64.73671875000001,164.30769230769232L64.96875,27.384615384615387L65.20078125,164.30769230769232L65.4328125,27.384615384615387L65.66484375,27.384615384615387L65.896875,27.384615384615387L66.12890625,27.384615384615387L66.3609375,27.384615384615387L66.59296875,27.384615384615387L66.825,27.384615384615387L67.05703125000001,27.384615384615387L67.2890625,27.384615384615387L67.52109374999999,27.384615384615387L67.753125,164.30769230769232L67.98515625,27.384615384615387L68.2171875,164.30769230769232L68.44921875,27.384615384615387L68.68125,27.384615384615387L68.91328125,27.384615384615387L69.1453125,27.384615384615387L69.37734375000001,27.384615384615387L69.609375,27.384615384615387L69.84140625,27.384615384615387L70.0734375,27.384615384615387L70.30546875,27.384615384615387L70.53750000000001,27.384615384615387L70.76953125,27.384615384615387L71.0015625,27.384615384615387L71.23359375000001,27.384615384615387L71.465625,27.384615384615387L71.69765625000001,27.384615384615387L71.92968750000001,27.384615384615387L72.16171874999999,27.384615384615387L72.39375,27.384615384615387L72.62578124999999,27.384615384615387L72.8578125,27.384615384615387L73.08984375,164.30769230769232L73.32187499999999,27.384615384615387L73.55390625,27.384615384615387L73.7859375,27.384615384615387L74.01796875,27.384615384615387L74.25,27.384615384615387L74.48203125,27.384615384615387L74.7140625,27.384615384615387L74.94609375,27.384615384615387L75.17812500000001,27.384615384615387L75.41015625,27.384615384615387L75.6421875,27.384615384615387L75.87421875000001,27.384615384615387L76.10624999999999,27.384615384615387L76.33828125,27.384615384615387L76.5703125,27.384615384615387L76.80234374999999,27.384615384615387L77.034375,27.384615384615387L77.26640625,27.384615384615387L77.4984375,27.384615384615387L77.73046875,164.30769230769232L77.9625,27.384615384615387L78.19453125,27.384615384615387L78.4265625,27.384615384615387L78.65859375,27.384615384615387L78.890625,27.384615384615387L79.12265625,27.384615384615387L79.3546875,27.384615384615387L79.58671875,164.30769230769232L79.81875000000001,27.384615384615387L80.05078125,164.30769230769232L80.2828125,27.384615384615387L80.51484375000001,27.384615384615387L80.74687499999999,27.384615384615387L80.97890625,27.384615384615387L81.2109375,27.384615384615387L81.44296874999999,27.384615384615387L81.675,27.384615384615387L81.90703125,27.384615384615387L82.1390625,27.384615384615387L82.37109375,164.30769230769232L82.603125,27.384615384615387L82.83515625,27.384615384615387L83.0671875,27.384615384615387L83.29921875000001,27.384615384615387L83.53125,27.384615384615387L83.76328125,27.384615384615387L83.99531250000001,27.384615384615387L84.22734375,27.384615384615387L84.45937500000001,27.384615384615387L84.69140624999999,27.384615384615387L84.92343749999999,27.384615384615387L85.15546875,27.384615384615387L85.38749999999999,27.384615384615387L85.61953125,27.384615384615387L85.8515625,164.30769230769232L86.08359374999999,164.30769230769232L86.315625,27.384615384615387L86.54765625,27.384615384615387L86.7796875,27.384615384615387L87.01171875,27.384615384615387L87.24375,27.384615384615387L87.47578125,27.384615384615387L87.7078125,27.384615384615387L87.93984375000001,27.384615384615387L88.171875,27.384615384615387L88.40390625,27.384615384615387L88.63593750000001,27.384615384615387L88.86796875,27.384615384615387L89.10000000000001,164.30769230769232L89.33203125000001,27.384615384615387L89.56406249999999,27.384615384615387L89.79609375,27.384615384615387L90.02812499999999,27.384615384615387L90.26015625,27.384615384615387L90.4921875,27.384615384615387L90.72421874999999,27.384615384615387L90.95625,27.384615384615387L91.18828125,27.384615384615387L91.4203125,27.384615384615387L91.65234375,27.384615384615387L91.884375,27.384615384615387L92.11640625,27.384615384615387L92.3484375,27.384615384615387L92.58046875000001,27.384615384615387L92.8125,164.30769230769232L93.04453125,27.384615384615387L93.27656250000001,27.384615384615387L93.50859374999999,27.384615384615387L93.740625,27.384615384615387L93.97265625,27.384615384615387L94.20468749999999,27.384615384615387L94.43671875,27.384615384615387L94.66875,27.384615384615387L94.90078125,27.384615384615387L95.1328125,27.384615384615387L95.36484375,164.30769230769232L95.596875,27.384615384615387L95.82890625,27.384615384615387L96.0609375,27.384615384615387L96.29296875,164.30769230769232L96.525,27.384615384615387L96.75703125,27.384615384615387L96.9890625,164.30769230769232L97.22109375000001,27.384615384615387L97.453125,27.384615384615387L97.68515625,27.384615384615387L97.91718750000001,27.384615384615387L98.14921874999999,27.384615384615387L98.38125,27.384615384615387L98.61328125,27.384615384615387L98.84531249999999,164.30769230769232L99.07734375,27.384615384615387L99.309375,27.384615384615387L99.54140625,27.384615384615387L99.7734375,27.384615384615387L100.00546875,27.384615384615387L100.2375,164.30769230769232L100.46953125,27.384615384615387L100.70156250000001,27.384615384615387L100.93359375,27.384615384615387L101.165625,27.384615384615387L101.39765625000001,164.30769230769232L101.6296875,27.384615384615387L101.86171875000001,27.384615384615387L102.09374999999999,27.384615384615387L102.32578124999999,27.384615384615387L102.5578125,27.384615384615387L102.78984374999999,27.384615384615387L103.021875,27.384615384615387L103.25390625,27.384615384615387L103.48593749999999,27.384615384615387L103.71796875,27.384615384615387L103.95,27.384615384615387L104.18203125,27.384615384615387L104.4140625,27.384615384615387L104.64609375,164.30769230769232L104.878125,27.384615384615387L105.11015625,27.384615384615387L105.34218750000001,164.30769230769232L105.57421875,27.384615384615387L105.80625,164.30769230769232L106.03828125000001,27.384615384615387L106.2703125,27.384615384615387L106.50234375000001,27.384615384615387L106.73437500000001,27.384615384615387L106.96640624999999,27.384615384615387L107.1984375,27.384615384615387L107.43046874999999,27.384615384615387L107.6625,27.384615384615387L107.89453125,27.384615384615387L108.12656249999999,27.384615384615387L108.35859375,27.384615384615387L108.590625,164.30769230769232L108.82265625,27.384615384615387L109.0546875,164.30769230769232L109.28671875,27.384615384615387L109.51875,164.30769230769232L109.75078125,27.384615384615387L109.98281250000001,164.30769230769232L110.21484375,27.384615384615387L110.446875,27.384615384615387L110.67890625000001,27.384615384615387L110.91093749999999,27.384615384615387L111.14296875,27.384615384615387L111.375,27.384615384615387L111.60703124999999,164.30769230769232L111.8390625,27.384615384615387L112.07109375,27.384615384615387L112.303125,27.384615384615387L112.53515625,27.384615384615387L112.7671875,27.384615384615387L112.99921875,27.384615384615387L113.23125,27.384615384615387L113.46328125,27.384615384615387L113.6953125,27.384615384615387L113.92734375,27.384615384615387L114.159375,27.384615384615387L114.39140625,27.384615384615387L114.62343750000001,27.384615384615387L114.85546875,27.384615384615387L115.0875,27.384615384615387L115.31953125000001,27.384615384615387L115.55156249999999,27.384615384615387L115.78359375,27.384615384615387L116.015625,27.384615384615387L116.24765624999999,27.384615384615387L116.4796875,164.30769230769232L116.71171875,27.384615384615387L116.94375,27.384615384615387L117.17578125,164.30769230769232L117.4078125,27.384615384615387L117.63984375,164.30769230769232L117.871875,27.384615384615387L118.10390625000001,27.384615384615387L118.3359375,27.384615384615387L118.56796875,27.384615384615387L118.80000000000001,27.384615384615387L119.03203125,27.384615384615387L119.26406250000001,164.30769230769232L119.49609374999999,27.384615384615387L119.72812499999999,27.384615384615387L119.96015625,27.384615384615387L120.19218749999999,27.384615384615387L120.42421875,27.384615384615387L120.65625,27.384615384615387L120.88828124999999,27.384615384615387L121.1203125,27.384615384615387L121.35234375,27.384615384615387L121.584375,27.384615384615387L121.81640625,27.384615384615387L122.0484375,27.384615384615387L122.28046875,27.384615384615387L122.5125,27.384615384615387L122.74453125000001,27.384615384615387L122.9765625,27.384615384615387L123.20859375,27.384615384615387L123.44062500000001,27.384615384615387L123.67265625,27.384615384615387L123.90468750000001,27.384615384615387L124.13671875000001,27.384615384615387L124.36874999999999,164.30769230769232L124.60078125,27.384615384615387L124.83281249999999,27.384615384615387L125.06484375,27.384615384615387L125.296875,27.384615384615387L125.52890624999999,27.384615384615387L125.7609375,27.384615384615387L125.99296875,27.384615384615387L126.225,27.384615384615387L126.45703125,27.384615384615387L126.6890625,27.384615384615387L126.92109375,27.384615384615387L127.153125,27.384615384615387L127.38515625000001,27.384615384615387L127.6171875,27.384615384615387L127.84921875,27.384615384615387L128.08125,27.384615384615387L128.31328125,27.384615384615387L128.5453125,27.384615384615387L128.77734375,27.384615384615387L129.009375,27.384615384615387L129.24140625,27.384615384615387L129.47343750000002,164.30769230769232L129.70546875,27.384615384615387L129.9375,27.384615384615387L130.16953125,27.384615384615387L130.4015625,164.30769230769232L130.63359375,27.384615384615387L130.865625,164.30769230769232L131.09765625,27.384615384615387L131.3296875,164.30769230769232L131.56171874999998,27.384615384615387L131.79375,27.384615384615387L132.02578125,27.384615384615387L132.2578125,27.384615384615387L132.48984375,164.30769230769232L132.721875,27.384615384615387L132.95390625,27.384615384615387L133.1859375,27.384615384615387L133.41796875,164.30769230769232L133.65,27.384615384615387L133.88203125,27.384615384615387L134.11406250000002,164.30769230769232L134.34609375,27.384615384615387L134.578125,27.384615384615387L134.81015625,27.384615384615387L135.04218749999998,27.384615384615387L135.27421875,27.384615384615387L135.50625,27.384615384615387L135.73828125,164.30769230769232L135.9703125,27.384615384615387L136.20234375,27.384615384615387L136.434375,27.384615384615387L136.66640625,27.384615384615387L136.8984375,27.384615384615387L137.13046875,27.384615384615387L137.3625,27.384615384615387L137.59453125,27.384615384615387L137.8265625,27.384615384615387L138.05859375,27.384615384615387L138.290625,27.384615384615387L138.52265625,27.384615384615387L138.75468750000002,27.384615384615387L138.98671875,27.384615384615387L139.21875,27.384615384615387L139.45078125,164.30769230769232L139.6828125,27.384615384615387L139.91484375,27.384615384615387L140.146875,27.384615384615387L140.37890625,27.384615384615387L140.6109375,27.384615384615387L140.84296875,164.30769230769232L141.07500000000002,27.384615384615387L141.30703125,27.384615384615387L141.5390625,27.384615384615387L141.77109375,27.384615384615387L142.003125,27.384615384615387L142.23515625000002,27.384615384615387L142.46718750000002,27.384615384615387L142.69921875,27.384615384615387L142.93125,27.384615384615387L143.16328125,27.384615384615387L143.39531250000002,27.384615384615387L143.62734375000002,27.384615384615387L143.85937500000003,27.384615384615387L144.09140624999998,27.384615384615387L144.32343749999998,27.384615384615387L144.55546875,27.384615384615387L144.7875,27.384615384615387L145.01953125,27.384615384615387L145.25156249999998,27.384615384615387L145.48359374999998,27.384615384615387L145.715625,27.384615384615387L145.94765625,164.30769230769232L146.1796875,27.384615384615387L146.41171875,27.384615384615387L146.64374999999998,27.384615384615387L146.87578125,164.30769230769232L147.1078125,27.384615384615387L147.33984375,27.384615384615387L147.571875,27.384615384615387L147.80390625,27.384615384615387L148.0359375,27.384615384615387L148.26796875,27.384615384615387L148.5,27.384615384615387L148.73203125,27.384615384615387L148.9640625,27.384615384615387L149.19609375000002,27.384615384615387L149.428125,27.384615384615387L149.66015625,27.384615384615387L149.8921875,27.384615384615387L150.12421875,27.384615384615387L150.35625000000002,27.384615384615387L150.58828125000002,27.384615384615387L150.8203125,27.384615384615387L151.05234375,27.384615384615387L151.284375,27.384615384615387L151.51640625000002,27.384615384615387L151.74843750000002,27.384615384615387L151.98046874999997,27.384615384615387L152.21249999999998,27.384615384615387L152.44453124999998,27.384615384615387L152.6765625,27.384615384615387L152.90859375,27.384615384615387L153.140625,164.30769230769232L153.37265624999998,164.30769230769232L153.60468749999998,27.384615384615387L153.83671875,164.30769230769232L154.06875,27.384615384615387L154.30078125,27.384615384615387L154.5328125,164.30769230769232L154.76484374999998,27.384615384615387L154.996875,27.384615384615387L155.22890625,27.384615384615387L155.4609375,27.384615384615387L155.69296875,27.384615384615387L155.925,27.384615384615387L156.15703125,27.384615384615387L156.3890625,27.384615384615387L156.62109375,27.384615384615387L156.853125,27.384615384615387L157.08515625,164.30769230769232L157.3171875,27.384615384615387L157.54921875,27.384615384615387L157.78125,27.384615384615387L158.01328125,27.384615384615387L158.2453125,27.384615384615387L158.47734375000002,27.384615384615387L158.709375,27.384615384615387L158.94140625,27.384615384615387L159.1734375,27.384615384615387L159.40546875,27.384615384615387L159.63750000000002,27.384615384615387L159.86953125000002,27.384615384615387L160.1015625,27.384615384615387L160.33359375,27.384615384615387L160.565625,164.30769230769232L160.79765625000002,27.384615384615387L161.02968750000002,27.384615384615387L161.26171875000003,27.384615384615387L161.49374999999998,27.384615384615387L161.72578124999998,27.384615384615387L161.9578125,27.384615384615387L162.18984375,27.384615384615387L162.421875,27.384615384615387L162.65390624999998,27.384615384615387L162.88593749999998,27.384615384615387L163.11796875,27.384615384615387L163.35,27.384615384615387L163.58203125,27.384615384615387L163.8140625,27.384615384615387L164.04609374999998,27.384615384615387L164.278125,164.30769230769232L164.51015625,27.384615384615387L164.7421875,27.384615384615387L164.97421875,27.384615384615387L165.20625,27.384615384615387L165.43828125,27.384615384615387L165.6703125,27.384615384615387L165.90234375,27.384615384615387L166.134375,27.384615384615387L166.36640625,27.384615384615387L166.59843750000002,27.384615384615387L166.83046875,27.384615384615387L167.0625,164.30769230769232L167.29453125,27.384615384615387L167.5265625,27.384615384615387L167.75859375000002,27.384615384615387L167.99062500000002,27.384615384615387L168.22265625,27.384615384615387L168.4546875,27.384615384615387L168.68671875,27.384615384615387L168.91875000000002,27.384615384615387L169.15078125000002,27.384615384615387L169.38281249999997,27.384615384615387L169.61484374999998,27.384615384615387L169.84687499999998,27.384615384615387L170.07890625,164.30769230769232L170.3109375,27.384615384615387L170.54296875,27.384615384615387L170.77499999999998,27.384615384615387L171.00703124999998,27.384615384615387L171.2390625,27.384615384615387L171.47109375,27.384615384615387L171.703125,164.30769230769232L171.93515625,27.384615384615387L172.16718749999998,27.384615384615387L172.39921875,27.384615384615387L172.63125,27.384615384615387L172.86328125,27.384615384615387L173.0953125,164.30769230769232L173.32734375,27.384615384615387L173.559375,27.384615384615387L173.79140625,27.384615384615387L174.0234375,27.384615384615387L174.25546875,27.384615384615387L174.4875,27.384615384615387L174.71953125,27.384615384615387L174.9515625,27.384615384615387L175.18359375,27.384615384615387L175.415625,27.384615384615387L175.64765625,27.384615384615387L175.87968750000002,27.384615384615387L176.11171875,27.384615384615387L176.34375,27.384615384615387L176.57578125,27.384615384615387L176.8078125,27.384615384615387L177.03984375000002,27.384615384615387L177.27187500000002,27.384615384615387L177.50390625,27.384615384615387L177.7359375,27.384615384615387L177.96796875,27.384615384615387L178.20000000000002,27.384615384615387L178.43203125000002,27.384615384615387L178.66406250000003,27.384615384615387L178.89609374999998,27.384615384615387L179.12812499999998,27.384615384615387L179.36015625,27.384615384615387L179.5921875,164.30769230769232L179.82421875,27.384615384615387L180.05624999999998,27.384615384615387L180.28828124999998,27.384615384615387L180.5203125,27.384615384615387L180.75234375,27.384615384615387L180.984375,27.384615384615387L181.21640625,164.30769230769232L181.44843749999998,27.384615384615387L181.68046875,27.384615384615387L181.9125,27.384615384615387L182.14453125,27.384615384615387L182.3765625,27.384615384615387L182.60859375,27.384615384615387L182.840625,27.384615384615387L183.07265625,27.384615384615387L183.3046875,27.384615384615387L183.53671875,164.30769230769232L183.76875,27.384615384615387L184.00078125000002,27.384615384615387L184.2328125,27.384615384615387L184.46484375,164.30769230769232L184.696875,27.384615384615387L184.92890625,27.384615384615387L185.16093750000002,27.384615384615387L185.39296875000002,27.384615384615387L185.625,27.384615384615387L185.85703125,27.384615384615387L186.0890625,27.384615384615387L186.32109375000002,27.384615384615387L186.55312500000002,27.384615384615387L186.78515624999997,164.30769230769232L187.01718749999998,27.384615384615387L187.24921874999998,27.384615384615387L187.48125,27.384615384615387L187.71328125,27.384615384615387L187.9453125,27.384615384615387L188.17734374999998,27.384615384615387L188.40937499999998,164.30769230769232L188.64140625,27.384615384615387L188.8734375,27.384615384615387L189.10546875,27.384615384615387L189.3375,27.384615384615387L189.56953124999998,27.384615384615387L189.8015625,27.384615384615387L190.03359375,27.384615384615387L190.265625,27.384615384615387L190.49765625,27.384615384615387L190.7296875,27.384615384615387L190.96171875,27.384615384615387L191.19375,27.384615384615387L191.42578125,27.384615384615387L191.6578125,27.384615384615387L191.88984375,27.384615384615387L192.121875,27.384615384615387L192.35390625,27.384615384615387L192.5859375,27.384615384615387L192.81796875,27.384615384615387L193.05,27.384615384615387L193.28203125000002,27.384615384615387L193.5140625,27.384615384615387L193.74609375,27.384615384615387L193.978125,27.384615384615387L194.21015625,164.30769230769232L194.44218750000002,27.384615384615387L194.67421875000002,27.384615384615387L194.90625,27.384615384615387L195.13828125,27.384615384615387L195.3703125,27.384615384615387L195.60234375000002,27.384615384615387L195.83437500000002,27.384615384615387L196.06640625000003,27.384615384615387L196.29843749999998,27.384615384615387L196.53046874999998,27.384615384615387L196.7625,27.384615384615387L196.99453125,27.384615384615387L197.2265625,27.384615384615387L197.45859374999998,27.384615384615387L197.69062499999998,27.384615384615387L197.92265625,27.384615384615387L198.1546875,27.384615384615387L198.38671875,27.384615384615387L198.61875,27.384615384615387L198.85078124999998,27.384615384615387L199.0828125,27.384615384615387L199.31484375,164.30769230769232L199.546875,27.384615384615387L199.77890625,27.384615384615387L200.0109375,27.384615384615387L200.24296875,27.384615384615387L200.475,27.384615384615387L200.70703125,27.384615384615387L200.9390625,27.384615384615387L201.17109375,27.384615384615387L201.40312500000002,27.384615384615387L201.63515625,27.384615384615387L201.8671875,27.384615384615387L202.09921875,27.384615384615387L202.33125,27.384615384615387L202.56328125000002,164.30769230769232L202.79531250000002,164.30769230769232L203.02734375,27.384615384615387L203.259375,27.384615384615387L203.49140625,27.384615384615387L203.72343750000002,27.384615384615387L203.95546875000002,27.384615384615387L204.18749999999997,27.384615384615387L204.41953124999998,27.384615384615387L204.65156249999998,27.384615384615387L204.88359375,27.384615384615387L205.115625,27.384615384615387L205.34765625,27.384615384615387L205.57968749999998,27.384615384615387L205.81171874999998,27.384615384615387L206.04375,27.384615384615387L206.27578125,27.384615384615387L206.5078125,27.384615384615387L206.73984375,27.384615384615387L206.97187499999998,27.384615384615387L207.20390625,27.384615384615387L207.4359375,27.384615384615387L207.66796875,27.384615384615387L207.9,27.384615384615387L208.13203125,27.384615384615387L208.3640625,27.384615384615387L208.59609375,27.384615384615387L208.828125,164.30769230769232L209.06015625,27.384615384615387L209.2921875,27.384615384615387L209.52421875,27.384615384615387L209.75625,27.384615384615387L209.98828125,27.384615384615387L210.2203125,27.384615384615387L210.45234375,164.30769230769232L210.68437500000002,27.384615384615387L210.91640625,27.384615384615387L211.1484375,27.384615384615387L211.38046875,27.384615384615387L211.6125,27.384615384615387L211.84453125000002,27.384615384615387L212.07656250000002,27.384615384615387L212.30859375,27.384615384615387L212.540625,164.30769230769232L212.77265625,27.384615384615387L213.00468750000002,27.384615384615387L213.23671875000002,27.384615384615387L213.46875000000003,27.384615384615387L213.70078124999998,27.384615384615387L213.93281249999998,27.384615384615387L214.16484375,27.384615384615387L214.396875,27.384615384615387L214.62890625,27.384615384615387L214.86093749999998,27.384615384615387L215.09296874999998,27.384615384615387L215.325,27.384615384615387L215.55703125,27.384615384615387L215.7890625,164.30769230769232L216.02109375,27.384615384615387L216.25312499999998,27.384615384615387L216.48515625,27.384615384615387L216.7171875,27.384615384615387L216.94921875,27.384615384615387L217.18125,27.384615384615387L217.41328125,27.384615384615387L217.6453125,27.384615384615387L217.87734375,27.384615384615387L218.109375,27.384615384615387L218.34140625,27.384615384615387L218.5734375,27.384615384615387L218.80546875000002,27.384615384615387L219.0375,27.384615384615387L219.26953125,27.384615384615387L219.5015625,27.384615384615387L219.73359375,27.384615384615387L219.96562500000002,27.384615384615387L220.19765625000002,27.384615384615387L220.4296875,164.30769230769232L220.66171875,27.384615384615387L220.89375,27.384615384615387L221.12578125000002,27.384615384615387L221.35781250000002,27.384615384615387L221.58984374999997,27.384615384615387L221.82187499999998,27.384615384615387L222.05390624999998,27.384615384615387L222.2859375,27.384615384615387L222.51796875,164.30769230769232L222.75,164.30769230769232L222.98203124999998,164.30769230769232L223.21406249999998,27.384615384615387L223.44609375,27.384615384615387L223.678125,27.384615384615387L223.91015625,27.384615384615387L224.1421875,27.384615384615387L224.37421874999998,164.30769230769232L224.60625,27.384615384615387L224.83828125,27.384615384615387L225.0703125,27.384615384615387L225.30234375,27.384615384615387L225.534375,27.384615384615387L225.76640625,27.384615384615387L225.9984375,27.384615384615387L226.23046875,27.384615384615387L226.4625,164.30769230769232L226.69453125,27.384615384615387L226.9265625,27.384615384615387L227.15859375,27.384615384615387L227.390625,27.384615384615387L227.62265625,27.384615384615387L227.8546875,27.384615384615387L228.08671875000002,27.384615384615387L228.31875,27.384615384615387L228.55078125,27.384615384615387L228.7828125,27.384615384615387L229.01484375,27.384615384615387L229.24687500000002,164.30769230769232L229.47890625000002,164.30769230769232L229.7109375,27.384615384615387L229.94296875,27.384615384615387L230.175,164.30769230769232L230.40703125000002,27.384615384615387L230.63906250000002,27.384615384615387L230.87109375000003,164.30769230769232L231.10312499999998,27.384615384615387L231.33515624999998,27.384615384615387L231.5671875,164.30769230769232L231.79921875,27.384615384615387L232.03125,27.384615384615387L232.26328124999998,27.384615384615387L232.49531249999998,27.384615384615387L232.72734375,164.30769230769232L232.959375,27.384615384615387L233.19140625,27.384615384615387L233.4234375,27.384615384615387L233.65546874999998,27.384615384615387L233.8875,27.384615384615387L234.11953125,27.384615384615387L234.3515625,27.384615384615387L234.58359375,27.384615384615387L234.815625,27.384615384615387L235.04765625,27.384615384615387L235.2796875,27.384615384615387L235.51171875,27.384615384615387L235.74375,27.384615384615387L235.97578125,27.384615384615387L236.20781250000002,27.384615384615387L236.43984375,27.384615384615387L236.671875,27.384615384615387L236.90390625,27.384615384615387L237.1359375,164.30769230769232L237.36796875000002,27.384615384615387L237.60000000000002,27.384615384615387L237.83203125,27.384615384615387L238.0640625,27.384615384615387L238.29609375,27.384615384615387L238.52812500000002,164.30769230769232L238.76015625000002,27.384615384615387L238.99218749999997,27.384615384615387L239.22421874999998,27.384615384615387L239.45624999999998,27.384615384615387L239.68828125,27.384615384615387L239.9203125,27.384615384615387L240.15234375,27.384615384615387L240.38437499999998,27.384615384615387L240.61640624999998,27.384615384615387L240.8484375,164.30769230769232L241.08046875,27.384615384615387L241.3125,27.384615384615387L241.54453125,27.384615384615387L241.77656249999998,27.384615384615387L242.00859375,27.384615384615387L242.240625,164.30769230769232L242.47265625,27.384615384615387L242.7046875,27.384615384615387L242.93671875,27.384615384615387L243.16875,27.384615384615387L243.40078125,27.384615384615387L243.6328125,164.30769230769232L243.86484375,164.30769230769232L244.096875,164.30769230769232L244.32890625,27.384615384615387L244.5609375,27.384615384615387L244.79296875,27.384615384615387L245.025,27.384615384615387L245.25703125,27.384615384615387L245.48906250000002,27.384615384615387L245.72109375,27.384615384615387L245.953125,27.384615384615387L246.18515625,27.384615384615387L246.4171875,27.384615384615387L246.64921875000002,164.30769230769232L246.88125000000002,27.384615384615387L247.11328125,27.384615384615387L247.3453125,27.384615384615387L247.57734375,27.384615384615387L247.80937500000002,27.384615384615387L248.04140625000002,164.30769230769232L248.27343750000003,164.30769230769232L248.50546874999998,27.384615384615387L248.73749999999998,27.384615384615387L248.96953125,27.384615384615387L249.2015625,27.384615384615387L249.43359375,27.384615384615387L249.66562499999998,27.384615384615387L249.89765624999998,27.384615384615387L250.1296875,27.384615384615387L250.36171875,27.384615384615387L250.59375,164.30769230769232L250.82578125,27.384615384615387L251.05781249999998,27.384615384615387L251.28984375,27.384615384615387L251.521875,27.384615384615387L251.75390625,27.384615384615387L251.9859375,164.30769230769232L252.21796875,164.30769230769232L252.45,27.384615384615387L252.68203125,27.384615384615387L252.9140625,164.30769230769232L253.14609375,27.384615384615387L253.378125,164.30769230769232L253.61015625000002,27.384615384615387L253.8421875,164.30769230769232L254.07421875,164.30769230769232L254.30625,164.30769230769232L254.53828125,27.384615384615387L254.77031250000002,27.384615384615387L255.00234375000002,27.384615384615387" style="fill: none;" fill="none"></path></g></g></g></g></g><g><g><span fill="rgb(0, 0, 0)" stroke="none" stroke-width="1px">Alt + Scroll to Zoom</span></g></g></g><g transform="translate(51, 178)" clip-path="url(#clip_1)"><clipPath id="clip_1"><rect width="278" height="22"></rect></clipPath><g><g><line x1="0" y1="0" x2="0" y2="5" style="visibility: inherit;" fill="rgb(0, 0, 0)" stroke="rgb(204, 204, 204)" stroke-width="1px"></line><line x1="23.203125" y1="0" x2="23.203125" y2="5" style="visibility: inherit;" fill="rgb(0, 0, 0)" stroke="rgb(204, 204, 204)" stroke-width="1px"></line><line x1="46.40625" y1="0" x2="46.40625" y2="5" style="visibility: inherit;" fill="rgb(0, 0, 0)" stroke="rgb(204, 204, 204)" stroke-width="1px"></line><line x1="69.609375" y1="0" x2="69.609375" y2="5" style="visibility: inherit;" fill="rgb(0, 0, 0)" stroke="rgb(204, 204, 204)" stroke-width="1px"></line><line x1="92.8125" y1="0" x2="92.8125" y2="5" style="visibility: inherit;" fill="rgb(0, 0, 0)" stroke="rgb(204, 204, 204)" stroke-width="1px"></line><line x1="116.015625" y1="0" x2="116.015625" y2="5" style="visibility: inherit;" fill="rgb(0, 0, 0)" stroke="rgb(204, 204, 204)" stroke-width="1px"></line><line x1="139.21875" y1="0" x2="139.21875" y2="5" style="visibility: inherit;" fill="rgb(0, 0, 0)" stroke="rgb(204, 204, 204)" stroke-width="1px"></line><line x1="162.421875" y1="0" x2="162.421875" y2="5" style="visibility: inherit;" fill="rgb(0, 0, 0)" stroke="rgb(204, 204, 204)" stroke-width="1px"></line><line x1="185.625" y1="0" x2="185.625" y2="5" style="visibility: inherit;" fill="rgb(0, 0, 0)" stroke="rgb(204, 204, 204)" stroke-width="1px"></line><line x1="208.828125" y1="0" x2="208.828125" y2="5" style="visibility: inherit;" fill="rgb(0, 0, 0)" stroke="rgb(204, 204, 204)" stroke-width="1px"></line><line x1="232.03125" y1="0" x2="232.03125" y2="5" style="visibility: inherit;" fill="rgb(0, 0, 0)" stroke="rgb(204, 204, 204)" stroke-width="1px"></line><line x1="255.234375" y1="0" x2="255.234375" y2="5" style="visibility: inherit;" fill="rgb(0, 0, 0)" stroke="rgb(204, 204, 204)" stroke-width="1px"></line><line x1="278.4375" y1="0" x2="278.4375" y2="5" style="visibility: inherit;" fill="rgb(0, 0, 0)" stroke="rgb(204, 204, 204)" stroke-width="1px"></line></g><g transform="translate(0, 8)"><text x="0" y="0" dx="0em" dy="0.95em" style="text-anchor: middle; visibility: hidden; font-family: Roboto, sans-serif; font-size: 12px; font-weight: 200;" fill="rgb(50, 49, 63)" stroke="none" stroke-width="1px">-100</text><text x="23.203125" y="0" dx="0em" dy="0.95em" style="text-anchor: middle; visibility: inherit; font-family: Roboto, sans-serif; font-size: 12px; font-weight: 200;" fill="rgb(50, 49, 63)" stroke="none" stroke-width="1px">0</text><text x="46.40625" y="0" dx="0em" dy="0.95em" style="text-anchor: middle; visibility: hidden; font-family: Roboto, sans-serif; font-size: 12px; font-weight: 200;" fill="rgb(50, 49, 63)" stroke="none" stroke-width="1px">100</text><text x="69.609375" y="0" dx="0em" dy="0.95em" style="text-anchor: middle; visibility: inherit; font-family: Roboto, sans-serif; font-size: 12px; font-weight: 200;" fill="rgb(50, 49, 63)" stroke="none" stroke-width="1px">200</text><text x="92.8125" y="0" dx="0em" dy="0.95em" style="text-anchor: middle; visibility: hidden; font-family: Roboto, sans-serif; font-size: 12px; font-weight: 200;" fill="rgb(50, 49, 63)" stroke="none" stroke-width="1px">300</text><text x="116.015625" y="0" dx="0em" dy="0.95em" style="text-anchor: middle; visibility: inherit; font-family: Roboto, sans-serif; font-size: 12px; font-weight: 200;" fill="rgb(50, 49, 63)" stroke="none" stroke-width="1px">400</text><text x="139.21875" y="0" dx="0em" dy="0.95em" style="text-anchor: middle; visibility: hidden; font-family: Roboto, sans-serif; font-size: 12px; font-weight: 200;" fill="rgb(50, 49, 63)" stroke="none" stroke-width="1px">500</text><text x="162.421875" y="0" dx="0em" dy="0.95em" style="text-anchor: middle; visibility: inherit; font-family: Roboto, sans-serif; font-size: 12px; font-weight: 200;" fill="rgb(50, 49, 63)" stroke="none" stroke-width="1px">600</text><text x="185.625" y="0" dx="0em" dy="0.95em" style="text-anchor: middle; visibility: hidden; font-family: Roboto, sans-serif; font-size: 12px; font-weight: 200;" fill="rgb(50, 49, 63)" stroke="none" stroke-width="1px">700</text><text x="208.828125" y="0" dx="0em" dy="0.95em" style="text-anchor: middle; visibility: inherit; font-family: Roboto, sans-serif; font-size: 12px; font-weight: 200;" fill="rgb(50, 49, 63)" stroke="none" stroke-width="1px">800</text><text x="232.03125" y="0" dx="0em" dy="0.95em" style="text-anchor: middle; visibility: hidden; font-family: Roboto, sans-serif; font-size: 12px; font-weight: 200;" fill="rgb(50, 49, 63)" stroke="none" stroke-width="1px">900</text><text x="255.234375" y="0" dx="0em" dy="0.95em" style="text-anchor: middle; visibility: inherit; font-family: Roboto, sans-serif; font-size: 12px; font-weight: 200;" fill="rgb(50, 49, 63)" stroke="none" stroke-width="1px">1k</text><text x="278.4375" y="0" dx="0em" dy="0.95em" style="text-anchor: middle; visibility: hidden; font-family: Roboto, sans-serif; font-size: 12px; font-weight: 200;" fill="rgb(50, 49, 63)" stroke="none" stroke-width="1px">1.1k</text></g><line x1="0" y1="0" x2="278.4375" y2="0" fill="rgb(0, 0, 0)" stroke="rgb(204, 204, 204)" stroke-width="1px"></line></g></g></g></g></svg>