<svg viewBox="0 0 330 200" xmlns="http://www.w3.org/2000/svg"><g><g><g><g><g><line x1="51.5625" y1="178" x2="46.5625" y2="178" style="visibility: inherit;" fill="rgb(0, 0, 0)" stroke="rgb(204, 204, 204)" stroke-width="1px"></line><line x1="51.5625" y1="158.2222222222222" x2="46.5625" y2="158.2222222222222" style="visibility: inherit;" fill="rgb(0, 0, 0)" stroke="rgb(204, 204, 204)" stroke-width="1px"></line><line x1="51.5625" y1="138.44444444444446" x2="46.5625" y2="138.44444444444446" style="visibility: inherit;" fill="rgb(0, 0, 0)" stroke="rgb(204, 204, 204)" stroke-width="1px"></line><line x1="51.5625" y1="118.66666666666666" x2="46.5625" y2="118.66666666666666" style="visibility: inherit;" fill="rgb(0, 0, 0)" stroke="rgb(204, 204, 204)" stroke-width="1px"></line><line x1="51.5625" y1="98.8888888888889" x2="46.5625" y2="98.8888888888889" style="visibility: inherit;" fill="rgb(0, 0, 0)" stroke="rgb(204, 204, 204)" stroke-width="1px"></line><line x1="51.5625" y1="79.1111111111111" x2="46.5625" y2="79.1111111111111" style="visibility: inherit;" fill="rgb(0, 0, 0)" stroke="rgb(204, 204, 204)" stroke-width="1px"></line><line x1="51.5625" y1="59.33333333333334" x2="46.5625" y2="59.33333333333334" style="visibility: inherit;" fill="rgb(0, 0, 0)" stroke="rgb(204, 204, 204)" stroke-width="1px"></line><line x1="51.5625" y1="39.55555555555557" x2="46.5625" y2="39.55555555555557" style="visibility: inherit;" fill="rgb(0, 0, 0)" stroke="rgb(204, 204, 204)" stroke-width="1px"></line><line x1="51.5625" y1="19.777777777777786" x2="46.5625" y2="19.777777777777786" style="visibility: inherit;" fill="rgb(0, 0, 0)" stroke="rgb(204, 204, 204)" stroke-width="1px"></line><line x1="51.5625" y1="0" x2="46.5625" y2="0" style="visibility: inherit;" fill="rgb(0, 0, 0)" stroke="rgb(204, 204, 204)" stroke-width="1px"></line></g><g transform="translate(41.5625, 0)"><text x="0" y="178" dx="0em" dy="0.3em" style="text-anchor: end; visibility: hidden; font-family: Roboto, sans-serif; font-size: 12px; font-weight: 200;" fill="rgb(50, 49, 63)" stroke="none" stroke-width="1px">-0.1</text><text x="0" y="158.2222222222222" dx="0em" dy="0.3em" style="text-anchor: end; visibility: inherit; font-family: Roboto, sans-serif; font-size: 12px; font-weight: 200;" fill="rgb(50, 49, 63)" stroke="none" stroke-width="1px">0</text><text x="0" y="138.44444444444446" dx="0em" dy="0.3em" style="text-anchor: end; visibility: hidden; font-family: Roboto, sans-serif; font-size: 12px; font-weight: 200;" fill="rgb(50, 49, 63)" stroke="none" stroke-width="1px">0.1</text><text x="0" y="118.66666666666666" dx="0em" dy="0.3em" style="text-anchor: end; visibility: inherit; font-family: Roboto, sans-serif; font-size: 12px; font-weight: 200;" fill="rgb(50, 49, 63)" stroke="none" stroke-width="1px">0.2</text><text x="0" y="98.8888888888889" dx="0em" dy="0.3em" style="text-anchor: end; visibility: hidden; font-family: Roboto, sans-serif; font-size: 12px; font-weight: 200;" fill="rgb(50, 49, 63)" stroke="none" stroke-width="1px">0.3</text><text x="0" y="79.1111111111111" dx="0em" dy="0.3em" style="text-anchor: end; visibility: inherit; font-family: Roboto, sans-serif; font-size: 12px; font-weight: 200;" fill="rgb(50, 49, 63)" stroke="none" stroke-width="1px">0.4</text><text x="0" y="59.33333333333334" dx="0em" dy="0.3em" style="text-anchor: end; visibility: hidden; font-family: Roboto, sans-serif; font-size: 12px; font-weight: 200;" fill="rgb(50, 49, 63)" stroke="none" stroke-width="1px">0.5</text><text x="0" y="39.55555555555557" dx="0em" dy="0.3em" style="text-anchor: end; visibility: inherit; font-family: Roboto, sans-serif; font-size: 12px; font-weight: 200;" fill="rgb(50, 49, 63)" stroke="none" stroke-width="1px">0.6</text><text x="0" y="19.777777777777786" dx="0em" dy="0.3em" style="text-anchor: end; visibility: hidden; font-family: Roboto, sans-serif; font-size: 12px; font-weight: 200;" fill="rgb(50, 49, 63)" stroke="none" stroke-width="1px">0.7</text><text x="0" y="0" dx="0em" dy="0.3em" style="text-anchor: end; visibility: hidden; font-family: Roboto, sans-serif; font-size: 12px; font-weight: 200;" fill="rgb(50, 49, 63)" stroke="none" stroke-width="1px">0.8</text></g><line x1="51.5625" y1="0" x2="51.5625" y2="178" fill="rgb(0, 0, 0)" stroke="rgb(204, 204, 204)" stroke-width="1px"></line></g></g><g transform="translate(51, 0)" clip-path="url(#clip_0)"><clipPath id="clip_0"><rect width="278" height="178"></rect></clipPath><g><g><g><line x1="0" y1="0" x2="0" y2="178" fill="rgb(0, 0, 0)" stroke="rgb(60, 60, 60)" stroke-width="1px" opacity="0.25"></line><line x1="23.203125" y1="0" x2="23.203125" y2="178" fill="rgb(0, 0, 0)" stroke="rgb(60, 60, 60)" stroke-width="1px" opacity="0.25"></line><line x1="46.40625" y1="0" x2="46.40625" y2="178" fill="rgb(0, 0, 0)" stroke="rgb(60, 60, 60)" stroke-width="1px" opacity="0.25"></line><line x1="69.609375" y1="0" x2="69.609375" y2="178" fill="rgb(0, 0, 0)" stroke="rgb(60, 60, 60)" stroke-width="1px" opacity="0.25"></line><line x1="92.8125" y1="0" x2="92.8125" y2="178" fill="rgb(0, 0, 0)" stroke="rgb(60, 60, 60)" stroke-width="1px" opacity="0.25"></line><line x1="116.015625" y1="0" x2="116.015625" y2="178" fill="rgb(0, 0, 0)" stroke="rgb(60, 60, 60)" stroke-width="1px" opacity="0.25"></line><line x1="139.21875" y1="0" x2="139.21875" y2="178" fill="rgb(0, 0, 0)" stroke="rgb(60, 60, 60)" stroke-width="1px" opacity="0.25"></line><line x1="162.421875" y1="0" x2="162.421875" y2="178" fill="rgb(0, 0, 0)" stroke="rgb(60, 60, 60)" stroke-width="1px" opacity="0.25"></line><line x1="185.625" y1="0" x2="185.625" y2="178" fill="rgb(0, 0, 0)" stroke="rgb(60, 60, 60)" stroke-width="1px" opacity="0.25"></line><line x1="208.828125" y1="0" x2="208.828125" y2="178" fill="rgb(0, 0, 0)" stroke="rgb(60, 60, 60)" stroke-width="1px" opacity="0.25"></line><line x1="232.03125" y1="0" x2="232.03125" y2="178" fill="rgb(0, 0, 0)" stroke="rgb(60, 60, 60)" stroke-width="1px" opacity="0.25"></line><line x1="255.234375" y1="0" x2="255.234375" y2="178" fill="rgb(0, 0, 0)" stroke="rgb(60, 60, 60)" stroke-width="1px" opacity="0.25"></line><line x1="278.4375" y1="0" x2="278.4375" y2="178" fill="rgb(0, 0, 0)" stroke="rgb(60, 60, 60)" stroke-width="1px" opacity="0.25"></line></g><g><line x1="0" y1="178" x2="278.4375" y2="178" fill="rgb(0, 0, 0)" stroke="rgb(60, 60, 60)" stroke-width="1px" opacity="0.25"></line><line x1="0" y1="158.2222222222222" x2="278.4375" y2="158.2222222222222" fill="rgb(0, 0, 0)" stroke="rgb(60, 60, 60)" stroke-width="1px" opacity="0.25"></line><line x1="0" y1="138.44444444444446" x2="278.4375" y2="138.44444444444446" fill="rgb(0, 0, 0)" stroke="rgb(60, 60, 60)" stroke-width="1px" opacity="0.25"></line><line x1="0" y1="118.66666666666666" x2="278.4375" y2="118.66666666666666" fill="rgb(0, 0, 0)" stroke="rgb(60, 60, 60)" stroke-width="1px" opacity="0.25"></line><line x1="0" y1="98.8888888888889" x2="278.4375" y2="98.8888888888889" fill="rgb(0, 0, 0)" stroke="rgb(60, 60, 60)" stroke-width="1px" opacity="0.25"></line><line x1="0" y1="79.1111111111111" x2="278.4375" y2="79.1111111111111" fill="rgb(0, 0, 0)" stroke="rgb(60, 60, 60)" stroke-width="1px" opacity="0.25"></line><line x1="0" y1="59.33333333333334" x2="278.4375" y2="59.33333333333334" fill="rgb(0, 0, 0)" stroke="rgb(60, 60, 60)" stroke-width="1px" opacity="0.25"></line><line x1="0" y1="39.55555555555557" x2="278.4375" y2="39.55555555555557" fill="rgb(0, 0, 0)" stroke="rgb(60, 60, 60)" stroke-width="1px" opacity="0.25"></line><line x1="0" y1="19.777777777777786" x2="278.4375" y2="19.777777777777786" fill="rgb(0, 0, 0)" stroke="rgb(60, 60, 60)" stroke-width="1px" opacity="0.25"></line><line x1="0" y1="0" x2="278.4375" y2="0" fill="rgb(0, 0, 0)" stroke="rgb(60, 60, 60)" stroke-width="1px" opacity="0.25"></line></g></g></g><g><g><line x1="0" y1="158.2222222222222" x2="278.4375" y2="158.2222222222222" fill="rgb(0, 0, 0)" stroke="rgb(153, 153, 153)" stroke-width="1.5px"></line></g></g><g><g><line x1="23.203125" y1="0" x2="23.203125" y2="178" fill="rgb(0, 0, 0)" stroke="rgb(153, 153, 153)" stroke-width="1.5px"></line></g></g><g><g><g><g><g><path stroke="rgb(51, 187, 238)" stroke-width="2px" d="M23.783203125,158.2222222222222L23.89921875,158.2222222222222L24.36328125,158.2222222222222L24.479296875000003,158.2222222222222L24.711328124999998,158.2222222222222L24.82734375,158.2222222222222L24.943359375,158.2222222222222L25.175390625000002,158.2222222222222L25.29140625,158.2222222222222L25.407421875,158.2222222222222L25.523437499999996,158.2222222222222L25.9875,158.2222222222222L27.031640624999998,158.2222222222222L27.14765625,158.2222222222222L27.3796875,158.2222222222222L27.727734374999997,158.2222222222222L27.84375,158.2222222222222L28.07578125,158.2222222222222L28.3078125,158.2222222222222L28.423828125,158.2222222222222L28.655859375000002,158.2222222222222L28.887890624999997,158.2222222222222L29.00390625,158.2222222222222L29.351953125,158.2222222222222L29.46796875,158.2222222222222L29.583984375,158.2222222222222L29.700000000000003,158.2222222222222L29.816015625000002,158.2222222222222L30.1640625,158.2222222222222L30.280078125,158.2222222222222L30.512109375,158.2222222222222L30.744140625,158.2222222222222L30.860156250000003,158.2222222222222L30.976171875000002,158.2222222222222L31.092187499999998,158.2222222222222L31.440234375,158.2222222222222L31.55625,158.2222222222222L31.672265625,158.2222222222222L31.78828125,158.2222222222222L32.0203125,158.2222222222222L32.368359375000004,158.2222222222222L32.9484375,158.2222222222222L33.064453125,158.2222222222222L33.18046875,158.2222222222222L33.296484375,158.2222222222222L33.4125,158.2222222222222L33.528515625000004,158.2222222222222L34.10859375,158.2222222222222L35.03671875,158.2222222222222L35.384765625,158.2222222222222L35.50078125,158.2222222222222L36.312890624999994,158.2222222222222L36.660937499999996,158.2222222222222L36.89296875,158.2222222222222L37.008984375,158.2222222222222L37.125,158.2222222222222L37.589062500000004,158.2222222222222L37.705078125,158.2222222222222L37.82109375,158.2222222222222L38.169140625,158.2222222222222L38.28515625,158.2222222222222L38.633203125,158.2222222222222L39.097265625,158.2222222222222L39.329296875,158.2222222222222L39.561328125,158.2222222222222L39.67734375,158.2222222222222L39.793359375,158.2222222222222L39.909375000000004,158.2222222222222L40.373437499999994,158.2222222222222L40.60546875,158.2222222222222L40.953515625,158.2222222222222L41.06953125,158.2222222222222L41.185546875,158.2222222222222L41.417578125,79.1111111111111L41.53359375,110.75555555555556L41.649609375000004,129.74222222222224L41.997656250000006,141.1342222222222L42.229687500000004,147.96942222222222L42.34570312499999,152.07054222222223L42.577734375,154.53121422222222L42.693749999999994,156.0076174222222L43.041796874999996,156.89345934222223L43.621875,157.42496449422222L43.737890625,157.74386758542224L43.85390625,157.93520944014222L44.0859375,158.05001455297423L44.201953125,158.11889762067344L44.433984375,158.16022746129295L44.66601562500001,158.18502536566464L44.782031249999996,158.19990410828768L44.898046875,158.20883135386148L45.014062499999994,158.2141877012058L45.24609375,158.21740150961236L45.362109374999996,158.21932979465632L46.17421875,158.22048676568267L46.638281250000006,158.2211809482985L47.102343749999996,158.22159745786797L47.218359375,158.22184736360967L47.334375,158.2219973070547L47.7984375,158.2220872731217L48.146484375,158.2221412527619L48.49453125,158.22217364054603L48.610546875000004,158.22219307321652L48.958593750000006,158.2222047328188L49.074609374999994,158.22221172858016L49.306640625,158.222215926037L49.422656249999996,158.22221844451107L49.538671875,158.22221995559553L49.770703125,158.22222086224622L49.88671875,158.2222214062366L50.11875,158.22222173263086L50.234765625,158.2222219284674L50.350781250000004,158.22222204596935L50.698828125000006,158.22222211647048L51.04687499999999,79.11111104766006L51.626953125,110.75555551748494L51.858984375,129.74222219937985L52.091015625,141.1342222085168L52.20703125,147.96942221399897L52.787109375,152.07054221728828L53.13515625,154.53121421926184L53.251171875000004,156.007617420446L53.36718750000001,156.89345934115647L53.483203124999996,157.42496449358276L53.715234374999994,157.74386758503854L54.179296875,157.93520943991203L54.411328125,158.0500145528361L54.643359375,158.11889762059056L54.875390625,158.1602274612432L55.455468749999994,158.18502536563483L55.6875,158.19990410826978L56.1515625,158.20883135385077L56.731640625,158.21418770119934L56.963671875,158.2174015096085L57.0796875,158.219329794654L57.427734375,158.22048676568127L57.659765625000006,158.22118094829767L57.775781249999994,158.2215974578675L57.891796875,158.22184736360938L58.123828124999996,158.22199730705452L58.23984375,158.22208727312162L58.355859375,158.22214125276184L58.819921875,158.222173640546L58.9359375,158.2221930732165L59.16796875,158.2222047328188L59.516015625,158.22221172858016L59.980078125,158.222215926037L60.096093749999994,158.22221844451107L60.212109375,158.22221995559553L60.328125,158.22222086224622L60.56015625,158.2222214062366L60.908203125,79.11111062151974L61.02421875,110.75555526180074L61.140234375,50.63111093485822L61.48828125,93.66755544980383L61.604296875,119.48942215877119L61.836328125,134.9825421841516L62.532421875,144.27841419937982L62.764453124999996,149.8559374085168L63.1125,153.20245133399897L63.228515625,155.21035968928828L63.460546875,156.41510470246186L63.5765625,157.137951710366L64.156640625,157.57165991510848L64.27265625,157.831884837954L64.5046875,157.9880197916613L64.73671875000001,158.08170076388566L64.852734375,158.1379093472203L64.96875,158.17163449722105L65.316796875,158.1918695872215L65.4328125,158.2040106412218L65.78085937499999,158.21129527362197L65.896875,79.10455494195094L66.12890625,110.75162185405947L66.244921875,129.73986200132455L66.476953125,141.1328060896836L66.941015625,68.85746143158796L67.05703125000001,104.60336574784165L67.173046875,126.05090833759388L67.405078125,138.9194338914452L67.52109374999999,146.640549223756L67.869140625,72.16210731203138L67.98515625,106.58615327610772L68.101171875,48.12946974344242L68.2171875,92.16657073495433L68.44921875,118.58883132986149L68.565234375,134.44218768680577L68.68125,143.95420150097237L68.797265625,70.55029867836119L69.84140625,105.6190680959056L69.957421875,126.66032974643224L70.189453125,139.28508673674824L70.53750000000001,67.74882981982672L71.349609375,103.93818678078493L71.465625,125.65180095735984L71.92968750000001,59.56885835219368L72.04570312499999,99.03020390020508L72.16171874999999,122.70701122901195L72.39375,136.91309562629604L72.62578124999999,145.43674626466654L73.08984375,150.5509366476888L74.133984375,153.61945087750217L74.25,76.34944830427908L74.366015625,109.09855787145634L74.48203125,128.7480236117627L74.7140625,140.5377030559465L74.830078125,147.61151072245679L75.17812500000001,151.85579532236295L75.526171875,75.29125497119554L76.33828125,108.46364187160621L76.454296875,128.36707401185262L76.5703125,61.19802218488936L76.68632812499999,100.00770219982249L76.918359375,123.2935102087824L77.034375,137.26499501415833L77.150390625,145.64788589738387L77.38242187499999,150.67762042731923L77.4984375,153.69546114528043L77.614453125,155.50616557605713L77.846484375,156.59258823452316L78.078515625,157.24444182960278L78.19453125,157.63555398665056L78.65859375,157.87022128087924L79.470703125,78.89991054630529L79.81875000000001,110.62883521667207L79.93476562500001,129.6661900188921L80.166796875,141.08860290022415L80.39882812500001,147.94205062902338L80.74687499999999,152.05411926630293L82.02304687499999,154.52136044867063L82.37109375,156.00170515809128L82.487109375,156.88991198374367L82.603125,157.42283607913507L82.83515625,78.63147942525882L83.0671875,110.46777654404418L83.183203125,129.5695548153154L83.415234375,61.919510666967014L83.99531250000001,21.329484177958L84.111328125,76.08657939566366L84.80742187499999,108.9408365262871L85.039453125,128.65339080466114L85.15546875,140.48092337168558L85.271484375,147.57744291190025L85.38749999999999,72.72424352491791L85.50351562499999,106.92343500383966L85.61953125,127.44294989119267L85.735546875,139.7546588236045L85.8515625,147.14168418305158L85.967578125,151.57389939871985L86.08359374999999,154.23322852812078L86.315625,155.82882600576136L86.663671875,156.7861844923457L86.7796875,157.36059958429632L86.895703125,157.70524863946667L87.127734375,157.9120380725689L87.591796875,78.9250006213191L87.823828125,110.64388926168034L88.055859375,129.6752224458971L88.51992187500001,141.09402235642713L88.63593750000001,147.94530230274518L88.751953125,152.056070270536L88.983984375,154.5225310512105L89.21601562500001,156.00240751961516L89.44804687499999,156.89033340065802L89.680078125,157.4230889292837L89.79609375,157.7427422464591L90.14414062499999,157.93453423676434L90.376171875,158.0496094309475L90.4921875,158.1186545474574L90.608203125,158.16008161736332L90.72421874999999,158.18493785930687L90.840234375,158.19985160447303L90.95625,158.2087998515727L91.18828125,79.10305768872138L91.304296875,31.639612391010616L91.884375,82.27265632349524L92.00039062500001,112.65248268298605L92.232421875,51.7692673875694L92.3484375,94.35044932143053L92.464453125,119.8991584817472L92.8125,135.2283839779372L93.04453125,65.31480816454011L93.27656250000001,102.47777378761295L93.50859374999999,45.66444205034556L93.740625,90.68755411909622L93.97265625,117.7014213603466L94.08867187499999,133.90974170509688L94.20468749999999,143.63473391194702L94.552734375,70.35861812494598L95.016796875,26.39294865274536L95.1328125,79.12465808053611L95.36484375,110.76368373721056L95.480859375,129.74709913121524L95.712890625,141.137148367618L96.176953125,147.9711779094597L96.75703125,152.07159563456472L97.569140625,154.53184626962772L97.68515625,156.00799665066552L97.91718750000001,156.8936868792882L98.03320312500001,157.4251010164618L98.14921874999999,78.63283838765486L98.26523437499999,110.4685919214818L98.38125,129.57004404177798L98.497265625,141.03091531395566L98.72929687499999,147.9074380772623L98.84531249999999,152.03335173524627L99.309375,75.39778881892552L99.42539062499999,29.4164510691331L99.657421875,80.93875953036874L99.889453125,111.85214460711013L100.2375,130.40017565315497L100.46953125,141.52899428078186L100.585546875,148.206285457358L100.70156250000001,73.10154905219257L101.049609375,107.14981832020446L101.165625,127.57877988101154L101.28164062500001,139.83615681749583L101.39765625000001,147.1905829793864L101.513671875,151.6032386765207L101.745703125,154.2508320948013L101.86171875000001,155.83938814576968L101.97773437500001,156.7925217763507L102.20976562499999,157.3644019546993L102.32578124999999,157.70753006170847L102.441796875,157.913406925914L102.5578125,158.03693304443726L102.673828125,158.11104871555125L102.78984374999999,158.15551811821965L103.021875,158.18219975982066L103.137890625,158.1982087447813L103.48593749999999,158.20781413575767L103.95,158.2135773703435L104.298046875,158.21703531109497L104.4140625,158.2191100755459L104.530078125,158.22035493421643L104.762109375,158.22110184941874L104.878125,79.11043888742903L104.994140625,110.75515222134632L105.11015625,129.74198022169665L105.34218750000001,141.13407702190688L105.458203125,68.85822399092191L105.57421875,104.60382328344203L106.03828125000001,126.0511828589541L106.50234375000001,138.91959860426135L106.61835937500001,146.6406480514457L106.85039062499999,151.27327771975632L106.96640624999999,154.05285552074267L107.082421875,155.7206022013345L107.1984375,77.61013909857847L107.314453125,109.85497234803599L107.43046874999999,129.20187229771048L107.778515625,61.698901156404055L107.89453125,100.30822958273133L108.590625,123.4738266385277L108.82265625,58.262073760894395L108.938671875,98.24613314542552L109.0546875,122.23656877614421L109.170703125,136.63083015457542L109.40273437500001,145.26738698163413L109.75078125,150.44932107786937L109.866796875,153.5584815356105L110.21484375,155.4239778102552L110.330859375,156.543275575042L110.446875,157.2148542339141L110.67890625000001,78.50669031812622L110.91093749999999,110.39290307976462L111.258984375,50.41351962563655L111.375,93.5370006642708L111.60703124999999,119.41108928745139L111.955078125,134.93554246135972L112.07109375,144.25021436570472L112.18710937499999,149.8390175083117L112.419140625,153.1922993938759L112.53515625,155.20426852521445L112.651171875,156.41145000401755L112.883203125,157.13575889129942L112.99921875,157.57034422366854L113.115234375,157.83109542309L113.6953125,157.9875461427429L114.159375,78.97030546342351L114.275390625,110.67107216694299L114.507421875,129.6915321890547L114.73945312500001,141.10380820232172L114.971484375,68.84006269917079L115.0875,104.59292650839137L115.20351562500001,126.04464479392371L115.31953125000001,138.91567576524312L115.43554687500001,146.63829434803478L115.55156249999999,151.27186549770974L115.78359375,154.05200818751473L116.015625,155.72009380139772L116.24765624999999,156.72094516972751L116.595703125,157.32145599072538L116.82773437499999,157.68176248332412L116.94375,157.89794637888338L117.059765625,158.0276567162189L117.523828125,158.10548291862023L117.755859375,158.15217864006104L117.871875,79.06908496181438L118.10390625000001,110.73033986597753L118.451953125,50.615981697364305L118.68398437500001,93.65847790730746L118.80000000000001,119.48397563327337L118.916015625,134.9792742688529L119.26406250000001,144.27645345020065L119.61210937499999,149.85476095900927L119.72812499999999,153.20174546429445L119.96015625,155.20993616746557L120.19218749999999,156.41485058936823L120.42421875,157.13779924250983L121.004296875,157.57156843439478L121.236328125,157.83182994952574L121.35234375,157.98798685860433L121.468359375,158.0816810040515L121.584375,158.1378974913198L121.932421875,158.17162738368077L122.628515625,158.19186531909736L122.860546875,158.2040080803473L122.9765625,158.21129373709726L123.092578125,158.21566513114723L123.20859375,158.21828796757725L123.32460937500001,158.21986166943523L123.788671875,158.22080589055003L124.02070312500001,158.2213724232189L124.13671875000001,158.22171234282024L124.484765625,158.22191629458104L124.60078125,158.2220386656375L124.716796875,158.2221120882714L124.83281249999999,79.11104503074063L124.94882812499999,110.75551590733325L125.180859375,50.631087322177734L125.296875,93.66754128219553L125.412890625,40.37830254709508L125.52890624999999,87.51587041714595L125.7609375,115.79841113917645L126.108984375,132.76793557239475L126.341015625,142.94965023232575L126.45703125,149.05867902828433L126.6890625,152.7240963058595L126.80507812500001,154.9233466724046L127.153125,156.24289689233163L127.269140625,157.0346270242879L127.50117187500001,157.5096651034616L127.6171875,157.79468795096585L128.429296875,157.9657016594684L128.5453125,158.0683098845699L128.661328125,158.12987481963083L128.77734375,158.16681378066738L128.893359375,158.18897715728932L129.009375,158.2022751832625L129.125390625,158.21025399884638L129.357421875,158.21504128819672L129.47343750000002,79.1068025506958L129.589453125,110.75297041930638L129.9375,129.74067114047273L130.05351562500002,141.1332915731725L130.16953125,147.96886383279238L130.285546875,72.95909607745321L130.517578125,27.953235424249716L131.213671875,80.06083014343871L131.3296875,111.32538697495212L131.445703125,130.08412107386016L131.677734375,141.339361533205L132.141796875,68.98139469770076L132.48984375,25.566614596398253L132.837890625,78.62885764672782L133.301953125,110.4662034769256L133.65,129.56861097504424L133.766015625,141.03005547391544L133.88203125,68.79581106212704L134.11406250000002,25.45526441505399L134.230078125,78.56204753792129L134.34609375,110.42611741164166L134.69414062500002,129.54455933587388L134.81015625,141.01562449041322L135.04218749999998,147.8982635831368L135.27421875,152.027847038771L135.390234375,154.50559711215146L135.62226562499998,76.88113604506866L135.854296875,30.30645940481899L135.9703125,81.47276453178029L136.20234375,112.17254760795706L136.434375,51.481306342552024L136.550390625,15.066561583309L136.66640625,72.32882583887428L136.782421875,106.68618439221346L137.13046875,127.30059952421696L137.246484375,139.66924860341908L137.3625,147.09043805094032L137.710546875,72.43204060834198L137.8265625,106.74811325389408L138.75468750000002,127.33775684122533L139.102734375,139.6915429936241L139.21875,147.10381468506336L139.45078125,151.5511776999269L139.6828125,154.21959550884503L139.798828125,155.8206461941959L140.146875,77.67016549429532L140.262890625,109.89098818546607L140.49492187500002,50.11237068905743L140.6109375,14.245200191212236L140.726953125,71.83600900361624L140.84296875,106.39049429105863L141.191015625,48.01207435241297L142.119140625,12.985022389225552L142.23515625000002,71.0799023224242L142.351171875,26.82571917123233L142.583203125,79.3843203916283L142.81523437500002,110.91948112386586L142.93125,129.8405775632084L143.04726562500002,141.19323542681394L143.27929687499997,68.89371903386612L143.51132812499998,25.51400919809749L143.62734375000002,78.59729440774737L143.74335937499998,31.336154422426205L144.09140624999998,82.09058154234462L144.207421875,112.54323781429567L144.32343749999998,51.70372046635517L144.90351562499998,15.200010057590871L145.135546875,72.40889492344341L145.25156249999998,106.73422584295491L145.48359374999998,127.32942439466184L145.599609375,139.686543525686L145.831640625,67.98970389318939L146.527734375,104.08271122480252L146.64374999999998,46.62740451265931L146.87578125,12.154220485373376L147.1078125,70.58142118011291L147.571875,105.63774159695663L147.80390625,126.67153384706286L148.0359375,139.2918091971266L148.26796875,67.75286329605373L148.5,103.94060686652114L148.73203125,46.54214189769046L148.848046875,91.21417402750318L148.9640625,38.90628219427969L149.080078125,7.521547094345595L149.19609375000002,67.80181714549624L149.66015625,103.96997917618663L149.8921875,125.67087639460088L150.008203125,59.5803036145383L150.704296875,19.925959946500765L150.93632812500002,75.24446485678935L151.16835937500002,108.43556780296251L151.284375,128.3502295706664L151.400390625,140.2990266312887L152.09648437500002,147.4683048676621L152.44453124999998,151.76987180948618L152.6765625,154.35081197458058L153.02460937499998,155.89937607363723L153.37265624999998,77.71740342196011L153.488671875,109.91933094206497L153.720703125,50.129376343016766L153.83671875,93.36651469469895L153.95273437499998,119.30879770570827L154.06875,134.87416751231385L154.30078125,144.2133893962772L154.416796875,70.70581141554408L154.648828125,105.71237573821537L154.76484374999998,47.60520322070698L154.880859375,91.85201082131307L155.22890625,118.40009538167672L155.34492187499998,55.21783500678383L155.576953125,96.4195898929592L156.505078125,121.1406428246644L156.62109375,135.97327458368753L156.737109375,144.8728536391014L156.853125,150.21260107234974L157.201171875,153.4164495322987L157.3171875,155.33875860826814L157.433203125,156.49214405384976L157.78125,78.07306421008761L157.89726562500002,110.13272741494147L158.01328125,129.36852533785375L158.361328125,140.91000409160114L159.753515625,147.8348913438496L160.1015625,151.98982369519862L160.33359375,154.48278310600807L160.44960937500002,155.97855875249374L160.68164062499997,77.764913029274L160.79765625000002,109.9478367064533L161.14570312499998,129.2575909127609L161.49374999999998,140.8434434365454L161.609765625,147.79495495081616L161.72578124999998,151.96586185937858L161.841796875,154.46840600451603L161.9578125,155.9699324915985L162.07382812499998,156.870848383848L162.18984375,157.4113979191977L162.30585937499998,157.7357276404075L162.537890625,157.9303254731334L162.769921875,78.9359730616578L162.88593749999998,110.65047272588359L163.11796875,129.67917252441904L163.35,141.0963924035403L163.58203125,147.9467243310131L163.698046875,152.05692348749676L163.8140625,154.52304298138694L163.930078125,156.00271467772103L164.04609374999998,156.8905176955215L164.162109375,157.4231995062018L164.626171875,157.74280859260998L165.20625,157.93457404445488L165.322265625,158.04963331556183L165.554296875,79.00755776711486L165.6703125,31.582312438046724L166.134375,82.23827635171692L166.250390625,33.52074358880792L166.36640625,83.40133504217364L166.59843750000002,113.32968991419307L166.946484375,131.28670283740473L167.29453125,142.06091059133172L167.5265625,69.41432413257682L167.75859375000002,104.937483368435L167.874609375,126.25137890994988L168.106640625,139.03971623485882L168.22265625,146.7127186298042L168.57070312500002,151.31652006677137L168.68671875,154.07880092895172L168.802734375,155.73616944625994L169.034765625,156.73059055664484L169.15078125000002,157.3272432228758L169.266796875,78.57412371150326L169.49882812500002,110.43336311579084L169.61484374999998,129.5489067583634L169.73085937500002,141.01823294390692L169.84687499999998,147.89982865523302L169.96289062500003,152.02878608202872L170.07890625,154.50616053810612L170.658984375,155.99258521175256L170.77499999999998,156.88444001594044L171.00703124999998,157.41955289845313L171.47109375,157.74062062796077L171.58710937499998,157.93326126566535L171.819140625,158.0488456482881L172.283203125,158.11819627786176L172.515234375,158.15980665560593L172.74726562499998,158.18477288225245L172.979296875,158.19975261824035L173.0953125,158.2087404598331L173.211328125,158.21413316478873L173.32734375,158.21736878776213L173.559375,79.10819905043506L173.907421875,110.75380831914994L174.0234375,129.74117388037885L174.25546875,141.13359321711619L174.371484375,147.96904481915863L174.4875,152.07031578038405L174.71953125,154.5310783571193L175.18359375,76.89642479204937L175.415625,109.42674376411851L175.531640625,128.94493514735998L175.763671875,140.65584997730488L175.87968750000002,68.57128776416072L176.227734375,104.43166154738532L176.34375,125.94788581732008L176.923828125,138.85762037928095L177.03984375000002,146.60346111645745L177.155859375,151.25096555876337L177.27187500000002,154.03946822414693L177.50390625,76.60145871226592L177.7359375,109.24976411624846L177.85195312500002,128.83874735863796L177.96796875,140.59213730407166L178.08398437499997,68.53306016022077L178.20000000000002,25.297613873910258L178.31601562499998,78.46745721323502L178.66406250000003,110.36936321682991L179.012109375,129.51050681898684L179.244140625,140.995192980281L179.47617187499998,68.77489356594639L179.5921875,104.55382502845671L179.70820312499998,126.02118390596293L179.82421875,138.90159923246665L179.940234375,146.6298484283689L180.404296875,151.2667979459102L180.86835937499998,154.04896765643502L181.100390625,155.71826948274992L181.21640625,156.71985057853882L181.564453125,157.3207992360122L181.68046875,157.6813684304962L181.796484375,78.78659883607551L182.14453125,110.56084819053417L182.492578125,129.6253978032094L182.60859375,141.06412757081452L182.724609375,147.9273654313776L182.956640625,72.93419703660435L183.07265625,107.0494071108515L183.188671875,48.40742204428869L183.53671875,92.33334211546209L183.76875,118.68889415816615L183.884765625,134.50222538378858L184.00078125000002,143.99022411916204L184.116796875,149.6830233603861L184.2328125,153.09870290512055L184.348828125,155.14811063196123L184.58085937500002,156.3777552680656L184.696875,157.11554204972825L185.044921875,78.44710300761473L185.625,31.24603958234663L187.01718749999998,2.92540152718574L187.13320312500002,65.04412980520034L187.24921874999998,23.20425566089799L187.36523437500003,77.2114422854277L187.82929687499998,30.5046431490344L188.17734374999998,81.59167477830951L188.293359375,112.24389375587458L188.525390625,130.63522514241367L188.64140625,141.67002397433708L188.75742187499998,148.29090327349115L188.8734375,73.15231974187245L189.10546875,107.18028073401236L189.3375,127.59705732929629L189.453515625,139.84712328646668L189.56953124999998,147.19716286076888L189.8015625,72.4960754942391L189.917578125,106.78653418543234L190.03359375,127.3608094001483L190.265625,139.70537452897787L190.49765625,147.1121136062756L191.19375,151.55615705265424L191.42578125,75.11147200937032L192.005859375,108.3557720945111L192.121875,128.30235214559553L192.5859375,140.27030017624622L193.166015625,147.4510689946366L193.28203125000002,151.75953028567085L193.74609375,154.3446070602914L194.21015625,76.78454201395262L194.558203125,109.35961409726046L194.90625,49.79354623613405L195.02226562500002,14.053905519458224L195.13828125,71.72123220056382L195.48632812499997,106.32162820922717L195.60234375000002,47.97075470331409L195.95039062499998,12.960230599766223L196.182421875,-8.046083862362487L196.29843749999998,58.46123857147139L196.414453125,98.36563203177174L197.2265625,122.30826810795193L197.342578125,136.67384975366005L197.45859374999998,145.29319874108492L197.574609375,150.46480813353983L197.806640625,153.5677737690128L197.92265625,155.42955315029656L198.038671875,77.43550966795571L198.1546875,109.75019468966232L198.27070312499998,129.13900570268626L198.38671875,140.77229231050066L198.502734375,147.7522642751893L198.61875,151.94024745400245L198.734765625,154.45303736129037L199.0828125,155.9607113056631L199.31484375,156.86531567228675L199.894921875,157.40807829226094L200.0109375,157.73373586424546L200.126953125,157.92913040743616L200.358984375,158.04636713335057L201.17109375,158.11670916889923L201.40312500000002,79.04780327911733L201.98320312500002,110.71757085635929L202.09921875,129.71943140270446L202.56328125000002,141.12054773051156L202.79531250000002,68.85010641608471L202.911328125,104.59895273853974L203.14335937500002,46.937149420901626L203.259375,91.45117854142985L203.49140625,118.1595960137468L203.607421875,134.18464649713698L204.30351562500002,143.79967678717108L204.41953124999998,149.5686949611915L204.53554687500002,73.91899475449269L205.115625,28.52917463047339L205.23164062499998,80.40639366717294L206.27578125,32.42161397808154L206.39179687499998,82.74185727573781L206.73984375,112.93400325433159L206.855859375,51.93817973037673L206.97187499999998,15.340685616003812L207.20390625,-6.61781085261993L207.4359375,59.31820237731692L207.66796875,98.87981031527904L208.016015625,43.50566396694521L208.13203125,10.281176157944891L208.3640625,-9.653516527455306L208.480078125,57.49677897241571L208.712109375,97.7869562723383L208.944140625,42.84995154118077L209.06015625,88.99885981359735L209.2921875,37.5770936659362L209.408203125,85.8351450884506L209.872265625,35.678864830848156L209.98828125,5.5850966762866605L210.2203125,-12.471164216450209L210.336328125,55.806190359018764L210.45234375,96.77260310430013L210.568359375,121.35245075146898L210.800390625,136.10035933977028L210.91640625,144.94910449275105L211.032421875,150.25835158453953L211.1484375,153.4438998396126L211.6125,155.35522879265645L211.84453125000002,156.50202616448274L211.960546875,157.19010458757853L212.07656250000002,78.4918405303249L212.30859375,110.38399320708382L212.540625,129.5192848131392L212.77265625,61.88934866566127L213.00468750000002,100.42249808828566L213.12070312499998,123.54238774186028L213.23671875000002,137.41432153400507L213.46875000000003,66.6263706981808L213.584765625,24.15360019668629L213.70078124999998,77.78104900690066L213.816796875,109.95751829302927L213.93281249999998,129.26339986470646L214.048828125,61.735817696601636L214.28085937499998,100.33037950684988L214.396875,123.48711659299882L214.744921875,137.3811588446882L214.86093749999998,66.60647308459069L215.09296874999998,103.25277273964329L215.208984375,125.24055253267487L215.55703125,59.322109297382696L215.67304687499998,98.88215446731851L215.7890625,122.61818156928L215.905078125,136.85979783045687L216.02109375,145.40476758716304L216.25312499999998,71.42063833007558L216.7171875,27.030160775823116L216.94921875,0.39587424327164755L217.065234375,63.526413434851875L217.18125,101.40473694980001L217.529296875,45.02061994765779L217.6453125,11.190149746372464L217.87734375,70.00297873671235L218.34140625,105.29067613091631L218.457421875,126.46329456743868L218.5734375,60.05575451824099L218.689453125,99.32234159983348L218.921484375,122.88229384878896L219.38554687500002,57.907154087051175L219.5015625,98.03318134111959L219.73359375,122.10879769356062L219.849609375,136.55416750502528L219.96562500000002,66.11027828079293L220.081640625,23.843944746253534L220.313671875,77.59525573664101L220.66171875,109.84604233087349L220.77773437500002,50.08540317630188L220.89375,14.229019683558896L221.009765625,71.82630069902423L221.12578125000002,106.38466930830344L221.473828125,127.11969047387095L221.58984374999997,139.56070317321146L222.05390624999998,147.02531079281576L222.16992187500003,151.50407536457834L222.40195312499998,75.08022299652478L222.51796875,108.33702268680378L222.63398437499998,49.17999138986003L223.098046875,13.68577261169381L223.44609375,71.50035245590519L223.678125,27.07798925132089L224.026171875,79.53568243968141L224.1421875,111.01029835269775L224.258203125,129.89506790050754L224.37421874999998,62.1148185180823L224.490234375,21.446668888627155L224.722265625,-2.954220889045925L224.83828125,-17.594754755649767L224.95429687499998,52.73203603549902L225.30234375,94.92811051018829L225.418359375,41.134644083890755L225.650390625,8.858564228112238L225.76640625,68.60402742575623L225.882421875,25.340194233231536L226.23046875,-0.6181056822833111L226.4625,62.918025479518924L226.578515625,101.03970417660024L226.69453125,123.91271139484903L226.810546875,137.63651572579832L227.62265625,66.75968721325674L227.738671875,24.233590105731846L228.08671875000002,77.829042952328L228.66679687500002,109.98631466028569L229.130859375,129.28067768506028L229.362890625,61.74618438881396L229.594921875,100.33659952217725L229.82695312500002,44.37973749108415L229.94296875,10.805620272428271L230.05898437500002,-9.338850058765251L230.175,57.68557885362975L230.63906250000002,97.90023620106673L230.75507812499998,42.917919498417824L230.87109375000003,89.03964058793957L231.10312499999998,37.60156213054153L231.219140625,85.8498261672138L231.33515624999998,35.68767347810607L231.79921875,84.70149297575252L232.03125,114.1097846743404L232.26328124999998,52.64364858238203L232.49531249999998,94.8750780383181L232.611328125,41.10282460076865L232.843359375,87.95058364935008L233.307421875,116.05923907849895L233.539453125,132.92443233598826L233.65546874999998,143.04354829048182L234.003515625,70.00390675206688L234.3515625,105.29123294012904L234.815625,126.4636286529663L235.04765625,139.16706608066866L235.163671875,146.78912853729008L235.51171875,151.36236601126294L235.97578125,154.10630849564666L236.091796875,76.64156287516579L236.20781250000002,109.27382661398836L236.323828125,128.8531848572819L236.671875,140.60079980325804L236.78789062500002,68.53825765973261L236.90390625,25.300732373617354L237.1359375,-0.6417827980517847L237.251953125,62.903819210057804L237.36796875000002,101.03118041492358L237.60000000000002,44.79648602673191L237.716015625,90.16678050492803L238.0640625,38.277846080734605L238.18007812500002,7.144485426218545L238.412109375,67.57558014462003L238.644140625,103.83423697566091L238.76015625000002,125.58943107428544L238.876171875,138.64254753346015L239.68828125,146.47441740896497L239.80429687499998,151.17353933426787L239.9203125,153.9930124894496L240.03632812499998,76.57358527144753L240.732421875,109.23304005175741L240.8484375,128.82871291994334L240.96445312499998,140.5861166408549L241.08046875,68.5294477622907L241.19648437499998,25.295446435152215L241.428515625,-0.6449543611308917L242.124609375,-25.547739125562714L242.588671875,47.960245413551284L242.7046875,92.06503613701967L242.820703125,118.52791057110068L242.93671875,134.4056352315493L243.052734375,143.93227002781848L243.284765625,149.64825090557997L243.40078125,153.07783943223686L243.86484375,155.13559254823102L244.212890625,156.37024441782748L244.32890625,157.1110355395854L244.676953125,157.55551021264012L244.79296875,157.82219501647296L244.90898437500002,157.98220589877266L245.025,158.07821242815248L245.141015625,158.1358163457804L245.373046875,158.17037869635712L245.48906250000002,158.19111610670316L245.605078125,158.20355855291078L245.72109375,158.21102402063536L245.837109375,79.10439219015899L246.30117187500002,110.75152420298427L246.4171875,129.73980341067946L246.533203125,141.13277093529655L246.88125000000002,147.96855145006683L247.11328125,152.07001975892896L247.22929687500002,75.41978963313517L247.3453125,108.54076266876999L247.57734375,128.41334649015087L247.69335937499997,140.3368967829794L247.80937500000002,147.49102695867654L248.04140625000002,151.7835050640948L248.15742187499998,75.24788081623466L248.50546874999998,29.326506267518585L248.73749999999998,80.88479264940004L248.96953125,32.708653367417824L249.08554687499998,82.91408090933957L249.31757812499998,33.92622632338154L249.66562499999998,4.533513571806699L249.89765624999998,66.00899703197292L250.013671875,102.89428710807266L250.1296875,125.02546115373246L250.36171875,138.30416558112836L250.59375,146.27138823756593L250.709765625,71.94061072031732L250.82578125,106.4532553210793L251.28984375,127.16084208153644L251.405859375,139.58539413781077L251.637890625,67.92901426046424L251.869921875,104.04629744516743L252.45,46.60555624487823L252.9140625,91.25222263581581L253.030078125,38.929111359267274L253.14609375,86.64635570444925L253.262109375,115.27670231155842L254.654296875,132.45491027582395L254.886328125,63.65072394327214L255.118359375,101.47932325485216" style="fill: none;" fill="none"></path></g></g></g></g><g opacity="0.2"><g><g><g><path stroke="rgb(51, 187, 238)" stroke-width="2px" d="M23.783203125,158.2222222222222L23.89921875,158.2222222222222L24.36328125,158.2222222222222L24.479296875000003,158.2222222222222L24.711328124999998,158.2222222222222L24.82734375,158.2222222222222L24.943359375,158.2222222222222L25.175390625000002,158.2222222222222L25.29140625,158.2222222222222L25.407421875,158.2222222222222L25.523437499999996,158.2222222222222L25.9875,158.2222222222222L27.031640624999998,158.2222222222222L27.14765625,158.2222222222222L27.3796875,158.2222222222222L27.727734374999997,158.2222222222222L27.84375,158.2222222222222L28.07578125,158.2222222222222L28.3078125,158.2222222222222L28.423828125,158.2222222222222L28.655859375000002,158.2222222222222L28.887890624999997,158.2222222222222L29.00390625,158.2222222222222L29.351953125,158.2222222222222L29.46796875,158.2222222222222L29.583984375,158.2222222222222L29.700000000000003,158.2222222222222L29.816015625000002,158.2222222222222L30.1640625,158.2222222222222L30.280078125,158.2222222222222L30.512109375,158.2222222222222L30.744140625,158.2222222222222L30.860156250000003,158.2222222222222L30.976171875000002,158.2222222222222L31.092187499999998,158.2222222222222L31.440234375,158.2222222222222L31.55625,158.2222222222222L31.672265625,158.2222222222222L31.78828125,158.2222222222222L32.0203125,158.2222222222222L32.368359375000004,158.2222222222222L32.9484375,158.2222222222222L33.064453125,158.2222222222222L33.18046875,158.2222222222222L33.296484375,158.2222222222222L33.4125,158.2222222222222L33.528515625000004,158.2222222222222L34.10859375,158.2222222222222L35.03671875,158.2222222222222L35.384765625,158.2222222222222L35.50078125,158.2222222222222L36.312890624999994,158.2222222222222L36.660937499999996,158.2222222222222L36.89296875,158.2222222222222L37.008984375,158.2222222222222L37.125,158.2222222222222L37.589062500000004,158.2222222222222L37.705078125,158.2222222222222L37.82109375,158.2222222222222L38.169140625,158.2222222222222L38.28515625,158.2222222222222L38.633203125,158.2222222222222L39.097265625,158.2222222222222L39.329296875,158.2222222222222L39.561328125,158.2222222222222L39.67734375,158.2222222222222L39.793359375,158.2222222222222L39.909375000000004,158.2222222222222L40.373437499999994,158.2222222222222L40.60546875,158.2222222222222L40.953515625,158.2222222222222L41.06953125,158.2222222222222L41.185546875,158.2222222222222L41.417578125,-39.55555555555557L41.53359375,158.2222222222222L41.649609375000004,158.2222222222222L41.997656250000006,158.2222222222222L42.229687500000004,158.2222222222222L42.34570312499999,158.2222222222222L42.577734375,158.2222222222222L42.693749999999994,158.2222222222222L43.041796874999996,158.2222222222222L43.621875,158.2222222222222L43.737890625,158.2222222222222L43.85390625,158.2222222222222L44.0859375,158.2222222222222L44.201953125,158.2222222222222L44.433984375,158.2222222222222L44.66601562500001,158.2222222222222L44.782031249999996,158.2222222222222L44.898046875,158.2222222222222L45.014062499999994,158.2222222222222L45.24609375,158.2222222222222L45.362109374999996,158.2222222222222L46.17421875,158.2222222222222L46.638281250000006,158.2222222222222L47.102343749999996,158.2222222222222L47.218359375,158.2222222222222L47.334375,158.2222222222222L47.7984375,158.2222222222222L48.146484375,158.2222222222222L48.49453125,158.2222222222222L48.610546875000004,158.2222222222222L48.958593750000006,158.2222222222222L49.074609374999994,158.2222222222222L49.306640625,158.2222222222222L49.422656249999996,158.2222222222222L49.538671875,158.2222222222222L49.770703125,158.2222222222222L49.88671875,158.2222222222222L50.11875,158.2222222222222L50.234765625,158.2222222222222L50.350781250000004,158.2222222222222L50.698828125000006,158.2222222222222L51.04687499999999,-39.55555555555557L51.626953125,158.2222222222222L51.858984375,158.2222222222222L52.091015625,158.2222222222222L52.20703125,158.2222222222222L52.787109375,158.2222222222222L53.13515625,158.2222222222222L53.251171875000004,158.2222222222222L53.36718750000001,158.2222222222222L53.483203124999996,158.2222222222222L53.715234374999994,158.2222222222222L54.179296875,158.2222222222222L54.411328125,158.2222222222222L54.643359375,158.2222222222222L54.875390625,158.2222222222222L55.455468749999994,158.2222222222222L55.6875,158.2222222222222L56.1515625,158.2222222222222L56.731640625,158.2222222222222L56.963671875,158.2222222222222L57.0796875,158.2222222222222L57.427734375,158.2222222222222L57.659765625000006,158.2222222222222L57.775781249999994,158.2222222222222L57.891796875,158.2222222222222L58.123828124999996,158.2222222222222L58.23984375,158.2222222222222L58.355859375,158.2222222222222L58.819921875,158.2222222222222L58.9359375,158.2222222222222L59.16796875,158.2222222222222L59.516015625,158.2222222222222L59.980078125,158.2222222222222L60.096093749999994,158.2222222222222L60.212109375,158.2222222222222L60.328125,158.2222222222222L60.56015625,158.2222222222222L60.908203125,-39.55555555555557L61.02421875,158.2222222222222L61.140234375,-39.55555555555557L61.48828125,158.2222222222222L61.604296875,158.2222222222222L61.836328125,158.2222222222222L62.532421875,158.2222222222222L62.764453124999996,158.2222222222222L63.1125,158.2222222222222L63.228515625,158.2222222222222L63.460546875,158.2222222222222L63.5765625,158.2222222222222L64.156640625,158.2222222222222L64.27265625,158.2222222222222L64.5046875,158.2222222222222L64.73671875000001,158.2222222222222L64.852734375,158.2222222222222L64.96875,158.2222222222222L65.316796875,158.2222222222222L65.4328125,158.2222222222222L65.78085937499999,158.2222222222222L65.896875,-39.55555555555557L66.12890625,158.2222222222222L66.244921875,158.2222222222222L66.476953125,158.2222222222222L66.941015625,-39.55555555555557L67.05703125000001,158.2222222222222L67.173046875,158.2222222222222L67.405078125,158.2222222222222L67.52109374999999,158.2222222222222L67.869140625,-39.55555555555557L67.98515625,158.2222222222222L68.101171875,-39.55555555555557L68.2171875,158.2222222222222L68.44921875,158.2222222222222L68.565234375,158.2222222222222L68.68125,158.2222222222222L68.797265625,-39.55555555555557L69.84140625,158.2222222222222L69.957421875,158.2222222222222L70.189453125,158.2222222222222L70.53750000000001,-39.55555555555557L71.349609375,158.2222222222222L71.465625,158.2222222222222L71.92968750000001,-39.55555555555557L72.04570312499999,158.2222222222222L72.16171874999999,158.2222222222222L72.39375,158.2222222222222L72.62578124999999,158.2222222222222L73.08984375,158.2222222222222L74.133984375,158.2222222222222L74.25,-39.55555555555557L74.366015625,158.2222222222222L74.48203125,158.2222222222222L74.7140625,158.2222222222222L74.830078125,158.2222222222222L75.17812500000001,158.2222222222222L75.526171875,-39.55555555555557L76.33828125,158.2222222222222L76.454296875,158.2222222222222L76.5703125,-39.55555555555557L76.68632812499999,158.2222222222222L76.918359375,158.2222222222222L77.034375,158.2222222222222L77.150390625,158.2222222222222L77.38242187499999,158.2222222222222L77.4984375,158.2222222222222L77.614453125,158.2222222222222L77.846484375,158.2222222222222L78.078515625,158.2222222222222L78.19453125,158.2222222222222L78.65859375,158.2222222222222L79.470703125,-39.55555555555557L79.81875000000001,158.2222222222222L79.93476562500001,158.2222222222222L80.166796875,158.2222222222222L80.39882812500001,158.2222222222222L80.74687499999999,158.2222222222222L82.02304687499999,158.2222222222222L82.37109375,158.2222222222222L82.487109375,158.2222222222222L82.603125,158.2222222222222L82.83515625,-39.55555555555557L83.0671875,158.2222222222222L83.183203125,158.2222222222222L83.415234375,-39.55555555555557L83.99531250000001,-39.55555555555557L84.111328125,158.2222222222222L84.80742187499999,158.2222222222222L85.039453125,158.2222222222222L85.15546875,158.2222222222222L85.271484375,158.2222222222222L85.38749999999999,-39.55555555555557L85.50351562499999,158.2222222222222L85.61953125,158.2222222222222L85.735546875,158.2222222222222L85.8515625,158.2222222222222L85.967578125,158.2222222222222L86.08359374999999,158.2222222222222L86.315625,158.2222222222222L86.663671875,158.2222222222222L86.7796875,158.2222222222222L86.895703125,158.2222222222222L87.127734375,158.2222222222222L87.591796875,-39.55555555555557L87.823828125,158.2222222222222L88.055859375,158.2222222222222L88.51992187500001,158.2222222222222L88.63593750000001,158.2222222222222L88.751953125,158.2222222222222L88.983984375,158.2222222222222L89.21601562500001,158.2222222222222L89.44804687499999,158.2222222222222L89.680078125,158.2222222222222L89.79609375,158.2222222222222L90.14414062499999,158.2222222222222L90.376171875,158.2222222222222L90.4921875,158.2222222222222L90.608203125,158.2222222222222L90.72421874999999,158.2222222222222L90.840234375,158.2222222222222L90.95625,158.2222222222222L91.18828125,-39.55555555555557L91.304296875,-39.55555555555557L91.884375,158.2222222222222L92.00039062500001,158.2222222222222L92.232421875,-39.55555555555557L92.3484375,158.2222222222222L92.464453125,158.2222222222222L92.8125,158.2222222222222L93.04453125,-39.55555555555557L93.27656250000001,158.2222222222222L93.50859374999999,-39.55555555555557L93.740625,158.2222222222222L93.97265625,158.2222222222222L94.08867187499999,158.2222222222222L94.20468749999999,158.2222222222222L94.552734375,-39.55555555555557L95.016796875,-39.55555555555557L95.1328125,158.2222222222222L95.36484375,158.2222222222222L95.480859375,158.2222222222222L95.712890625,158.2222222222222L96.176953125,158.2222222222222L96.75703125,158.2222222222222L97.569140625,158.2222222222222L97.68515625,158.2222222222222L97.91718750000001,158.2222222222222L98.03320312500001,158.2222222222222L98.14921874999999,-39.55555555555557L98.26523437499999,158.2222222222222L98.38125,158.2222222222222L98.497265625,158.2222222222222L98.72929687499999,158.2222222222222L98.84531249999999,158.2222222222222L99.309375,-39.55555555555557L99.42539062499999,-39.55555555555557L99.657421875,158.2222222222222L99.889453125,158.2222222222222L100.2375,158.2222222222222L100.46953125,158.2222222222222L100.585546875,158.2222222222222L100.70156250000001,-39.55555555555557L101.049609375,158.2222222222222L101.165625,158.2222222222222L101.28164062500001,158.2222222222222L101.39765625000001,158.2222222222222L101.513671875,158.2222222222222L101.745703125,158.2222222222222L101.86171875000001,158.2222222222222L101.97773437500001,158.2222222222222L102.20976562499999,158.2222222222222L102.32578124999999,158.2222222222222L102.441796875,158.2222222222222L102.5578125,158.2222222222222L102.673828125,158.2222222222222L102.78984374999999,158.2222222222222L103.021875,158.2222222222222L103.137890625,158.2222222222222L103.48593749999999,158.2222222222222L103.95,158.2222222222222L104.298046875,158.2222222222222L104.4140625,158.2222222222222L104.530078125,158.2222222222222L104.762109375,158.2222222222222L104.878125,-39.55555555555557L104.994140625,158.2222222222222L105.11015625,158.2222222222222L105.34218750000001,158.2222222222222L105.458203125,-39.55555555555557L105.57421875,158.2222222222222L106.03828125000001,158.2222222222222L106.50234375000001,158.2222222222222L106.61835937500001,158.2222222222222L106.85039062499999,158.2222222222222L106.96640624999999,158.2222222222222L107.082421875,158.2222222222222L107.1984375,-39.55555555555557L107.314453125,158.2222222222222L107.43046874999999,158.2222222222222L107.778515625,-39.55555555555557L107.89453125,158.2222222222222L108.590625,158.2222222222222L108.82265625,-39.55555555555557L108.938671875,158.2222222222222L109.0546875,158.2222222222222L109.170703125,158.2222222222222L109.40273437500001,158.2222222222222L109.75078125,158.2222222222222L109.866796875,158.2222222222222L110.21484375,158.2222222222222L110.330859375,158.2222222222222L110.446875,158.2222222222222L110.67890625000001,-39.55555555555557L110.91093749999999,158.2222222222222L111.258984375,-39.55555555555557L111.375,158.2222222222222L111.60703124999999,158.2222222222222L111.955078125,158.2222222222222L112.07109375,158.2222222222222L112.18710937499999,158.2222222222222L112.419140625,158.2222222222222L112.53515625,158.2222222222222L112.651171875,158.2222222222222L112.883203125,158.2222222222222L112.99921875,158.2222222222222L113.115234375,158.2222222222222L113.6953125,158.2222222222222L114.159375,-39.55555555555557L114.275390625,158.2222222222222L114.507421875,158.2222222222222L114.73945312500001,158.2222222222222L114.971484375,-39.55555555555557L115.0875,158.2222222222222L115.20351562500001,158.2222222222222L115.31953125000001,158.2222222222222L115.43554687500001,158.2222222222222L115.55156249999999,158.2222222222222L115.78359375,158.2222222222222L116.015625,158.2222222222222L116.24765624999999,158.2222222222222L116.595703125,158.2222222222222L116.82773437499999,158.2222222222222L116.94375,158.2222222222222L117.059765625,158.2222222222222L117.523828125,158.2222222222222L117.755859375,158.2222222222222L117.871875,-39.55555555555557L118.10390625000001,158.2222222222222L118.451953125,-39.55555555555557L118.68398437500001,158.2222222222222L118.80000000000001,158.2222222222222L118.916015625,158.2222222222222L119.26406250000001,158.2222222222222L119.61210937499999,158.2222222222222L119.72812499999999,158.2222222222222L119.96015625,158.2222222222222L120.19218749999999,158.2222222222222L120.42421875,158.2222222222222L121.004296875,158.2222222222222L121.236328125,158.2222222222222L121.35234375,158.2222222222222L121.468359375,158.2222222222222L121.584375,158.2222222222222L121.932421875,158.2222222222222L122.628515625,158.2222222222222L122.860546875,158.2222222222222L122.9765625,158.2222222222222L123.092578125,158.2222222222222L123.20859375,158.2222222222222L123.32460937500001,158.2222222222222L123.788671875,158.2222222222222L124.02070312500001,158.2222222222222L124.13671875000001,158.2222222222222L124.484765625,158.2222222222222L124.60078125,158.2222222222222L124.716796875,158.2222222222222L124.83281249999999,-39.55555555555557L124.94882812499999,158.2222222222222L125.180859375,-39.55555555555557L125.296875,158.2222222222222L125.412890625,-39.55555555555557L125.52890624999999,158.2222222222222L125.7609375,158.2222222222222L126.108984375,158.2222222222222L126.341015625,158.2222222222222L126.45703125,158.2222222222222L126.6890625,158.2222222222222L126.80507812500001,158.2222222222222L127.153125,158.2222222222222L127.269140625,158.2222222222222L127.50117187500001,158.2222222222222L127.6171875,158.2222222222222L128.429296875,158.2222222222222L128.5453125,158.2222222222222L128.661328125,158.2222222222222L128.77734375,158.2222222222222L128.893359375,158.2222222222222L129.009375,158.2222222222222L129.125390625,158.2222222222222L129.357421875,158.2222222222222L129.47343750000002,-39.55555555555557L129.589453125,158.2222222222222L129.9375,158.2222222222222L130.05351562500002,158.2222222222222L130.16953125,158.2222222222222L130.285546875,-39.55555555555557L130.517578125,-39.55555555555557L131.213671875,158.2222222222222L131.3296875,158.2222222222222L131.445703125,158.2222222222222L131.677734375,158.2222222222222L132.141796875,-39.55555555555557L132.48984375,-39.55555555555557L132.837890625,158.2222222222222L133.301953125,158.2222222222222L133.65,158.2222222222222L133.766015625,158.2222222222222L133.88203125,-39.55555555555557L134.11406250000002,-39.55555555555557L134.230078125,158.2222222222222L134.34609375,158.2222222222222L134.69414062500002,158.2222222222222L134.81015625,158.2222222222222L135.04218749999998,158.2222222222222L135.27421875,158.2222222222222L135.390234375,158.2222222222222L135.62226562499998,-39.55555555555557L135.854296875,-39.55555555555557L135.9703125,158.2222222222222L136.20234375,158.2222222222222L136.434375,-39.55555555555557L136.550390625,-39.55555555555557L136.66640625,158.2222222222222L136.782421875,158.2222222222222L137.13046875,158.2222222222222L137.246484375,158.2222222222222L137.3625,158.2222222222222L137.710546875,-39.55555555555557L137.8265625,158.2222222222222L138.75468750000002,158.2222222222222L139.102734375,158.2222222222222L139.21875,158.2222222222222L139.45078125,158.2222222222222L139.6828125,158.2222222222222L139.798828125,158.2222222222222L140.146875,-39.55555555555557L140.262890625,158.2222222222222L140.49492187500002,-39.55555555555557L140.6109375,-39.55555555555557L140.726953125,158.2222222222222L140.84296875,158.2222222222222L141.191015625,-39.55555555555557L142.119140625,-39.55555555555557L142.23515625000002,158.2222222222222L142.351171875,-39.55555555555557L142.583203125,158.2222222222222L142.81523437500002,158.2222222222222L142.93125,158.2222222222222L143.04726562500002,158.2222222222222L143.27929687499997,-39.55555555555557L143.51132812499998,-39.55555555555557L143.62734375000002,158.2222222222222L143.74335937499998,-39.55555555555557L144.09140624999998,158.2222222222222L144.207421875,158.2222222222222L144.32343749999998,-39.55555555555557L144.90351562499998,-39.55555555555557L145.135546875,158.2222222222222L145.25156249999998,158.2222222222222L145.48359374999998,158.2222222222222L145.599609375,158.2222222222222L145.831640625,-39.55555555555557L146.527734375,158.2222222222222L146.64374999999998,-39.55555555555557L146.87578125,-39.55555555555557L147.1078125,158.2222222222222L147.571875,158.2222222222222L147.80390625,158.2222222222222L148.0359375,158.2222222222222L148.26796875,-39.55555555555557L148.5,158.2222222222222L148.73203125,-39.55555555555557L148.848046875,158.2222222222222L148.9640625,-39.55555555555557L149.080078125,-39.55555555555557L149.19609375000002,158.2222222222222L149.66015625,158.2222222222222L149.8921875,158.2222222222222L150.008203125,-39.55555555555557L150.704296875,-39.55555555555557L150.93632812500002,158.2222222222222L151.16835937500002,158.2222222222222L151.284375,158.2222222222222L151.400390625,158.2222222222222L152.09648437500002,158.2222222222222L152.44453124999998,158.2222222222222L152.6765625,158.2222222222222L153.02460937499998,158.2222222222222L153.37265624999998,-39.55555555555557L153.488671875,158.2222222222222L153.720703125,-39.55555555555557L153.83671875,158.2222222222222L153.95273437499998,158.2222222222222L154.06875,158.2222222222222L154.30078125,158.2222222222222L154.416796875,-39.55555555555557L154.648828125,158.2222222222222L154.76484374999998,-39.55555555555557L154.880859375,158.2222222222222L155.22890625,158.2222222222222L155.34492187499998,-39.55555555555557L155.576953125,158.2222222222222L156.505078125,158.2222222222222L156.62109375,158.2222222222222L156.737109375,158.2222222222222L156.853125,158.2222222222222L157.201171875,158.2222222222222L157.3171875,158.2222222222222L157.433203125,158.2222222222222L157.78125,-39.55555555555557L157.89726562500002,158.2222222222222L158.01328125,158.2222222222222L158.361328125,158.2222222222222L159.753515625,158.2222222222222L160.1015625,158.2222222222222L160.33359375,158.2222222222222L160.44960937500002,158.2222222222222L160.68164062499997,-39.55555555555557L160.79765625000002,158.2222222222222L161.14570312499998,158.2222222222222L161.49374999999998,158.2222222222222L161.609765625,158.2222222222222L161.72578124999998,158.2222222222222L161.841796875,158.2222222222222L161.9578125,158.2222222222222L162.07382812499998,158.2222222222222L162.18984375,158.2222222222222L162.30585937499998,158.2222222222222L162.537890625,158.2222222222222L162.769921875,-39.55555555555557L162.88593749999998,158.2222222222222L163.11796875,158.2222222222222L163.35,158.2222222222222L163.58203125,158.2222222222222L163.698046875,158.2222222222222L163.8140625,158.2222222222222L163.930078125,158.2222222222222L164.04609374999998,158.2222222222222L164.162109375,158.2222222222222L164.626171875,158.2222222222222L165.20625,158.2222222222222L165.322265625,158.2222222222222L165.554296875,-39.55555555555557L165.6703125,-39.55555555555557L166.134375,158.2222222222222L166.250390625,-39.55555555555557L166.36640625,158.2222222222222L166.59843750000002,158.2222222222222L166.946484375,158.2222222222222L167.29453125,158.2222222222222L167.5265625,-39.55555555555557L167.75859375000002,158.2222222222222L167.874609375,158.2222222222222L168.106640625,158.2222222222222L168.22265625,158.2222222222222L168.57070312500002,158.2222222222222L168.68671875,158.2222222222222L168.802734375,158.2222222222222L169.034765625,158.2222222222222L169.15078125000002,158.2222222222222L169.266796875,-39.55555555555557L169.49882812500002,158.2222222222222L169.61484374999998,158.2222222222222L169.73085937500002,158.2222222222222L169.84687499999998,158.2222222222222L169.96289062500003,158.2222222222222L170.07890625,158.2222222222222L170.658984375,158.2222222222222L170.77499999999998,158.2222222222222L171.00703124999998,158.2222222222222L171.47109375,158.2222222222222L171.58710937499998,158.2222222222222L171.819140625,158.2222222222222L172.283203125,158.2222222222222L172.515234375,158.2222222222222L172.74726562499998,158.2222222222222L172.979296875,158.2222222222222L173.0953125,158.2222222222222L173.211328125,158.2222222222222L173.32734375,158.2222222222222L173.559375,-39.55555555555557L173.907421875,158.2222222222222L174.0234375,158.2222222222222L174.25546875,158.2222222222222L174.371484375,158.2222222222222L174.4875,158.2222222222222L174.71953125,158.2222222222222L175.18359375,-39.55555555555557L175.415625,158.2222222222222L175.531640625,158.2222222222222L175.763671875,158.2222222222222L175.87968750000002,-39.55555555555557L176.227734375,158.2222222222222L176.34375,158.2222222222222L176.923828125,158.2222222222222L177.03984375000002,158.2222222222222L177.155859375,158.2222222222222L177.27187500000002,158.2222222222222L177.50390625,-39.55555555555557L177.7359375,158.2222222222222L177.85195312500002,158.2222222222222L177.96796875,158.2222222222222L178.08398437499997,-39.55555555555557L178.20000000000002,-39.55555555555557L178.31601562499998,158.2222222222222L178.66406250000003,158.2222222222222L179.012109375,158.2222222222222L179.244140625,158.2222222222222L179.47617187499998,-39.55555555555557L179.5921875,158.2222222222222L179.70820312499998,158.2222222222222L179.82421875,158.2222222222222L179.940234375,158.2222222222222L180.404296875,158.2222222222222L180.86835937499998,158.2222222222222L181.100390625,158.2222222222222L181.21640625,158.2222222222222L181.564453125,158.2222222222222L181.68046875,158.2222222222222L181.796484375,-39.55555555555557L182.14453125,158.2222222222222L182.492578125,158.2222222222222L182.60859375,158.2222222222222L182.724609375,158.2222222222222L182.956640625,-39.55555555555557L183.07265625,158.2222222222222L183.188671875,-39.55555555555557L183.53671875,158.2222222222222L183.76875,158.2222222222222L183.884765625,158.2222222222222L184.00078125000002,158.2222222222222L184.116796875,158.2222222222222L184.2328125,158.2222222222222L184.348828125,158.2222222222222L184.58085937500002,158.2222222222222L184.696875,158.2222222222222L185.044921875,-39.55555555555557L187.01718749999998,-39.55555555555557L187.13320312500002,158.2222222222222L187.24921874999998,-39.55555555555557L187.36523437500003,158.2222222222222L187.82929687499998,-39.55555555555557L188.17734374999998,158.2222222222222L188.293359375,158.2222222222222L188.525390625,158.2222222222222L188.64140625,158.2222222222222L188.75742187499998,158.2222222222222L188.8734375,-39.55555555555557L189.10546875,158.2222222222222L189.3375,158.2222222222222L189.453515625,158.2222222222222L189.56953124999998,158.2222222222222L189.8015625,-39.55555555555557L189.917578125,158.2222222222222L190.03359375,158.2222222222222L190.265625,158.2222222222222L190.49765625,158.2222222222222L191.19375,158.2222222222222L191.42578125,-39.55555555555557L192.005859375,158.2222222222222L192.121875,158.2222222222222L192.5859375,158.2222222222222L193.166015625,158.2222222222222L193.28203125000002,158.2222222222222L193.74609375,158.2222222222222L194.21015625,-39.55555555555557L194.558203125,158.2222222222222L194.90625,-39.55555555555557L195.02226562500002,-39.55555555555557L195.13828125,158.2222222222222L195.48632812499997,158.2222222222222L195.60234375000002,-39.55555555555557L196.182421875,-39.55555555555557L196.29843749999998,158.2222222222222L196.414453125,158.2222222222222L197.2265625,158.2222222222222L197.342578125,158.2222222222222L197.45859374999998,158.2222222222222L197.574609375,158.2222222222222L197.806640625,158.2222222222222L197.92265625,158.2222222222222L198.038671875,-39.55555555555557L198.1546875,158.2222222222222L198.27070312499998,158.2222222222222L198.38671875,158.2222222222222L198.502734375,158.2222222222222L198.61875,158.2222222222222L198.734765625,158.2222222222222L199.0828125,158.2222222222222L199.31484375,158.2222222222222L199.894921875,158.2222222222222L200.0109375,158.2222222222222L200.126953125,158.2222222222222L200.358984375,158.2222222222222L201.17109375,158.2222222222222L201.40312500000002,-39.55555555555557L201.98320312500002,158.2222222222222L202.09921875,158.2222222222222L202.56328125000002,158.2222222222222L202.79531250000002,-39.55555555555557L202.911328125,158.2222222222222L203.14335937500002,-39.55555555555557L203.259375,158.2222222222222L203.49140625,158.2222222222222L203.607421875,158.2222222222222L204.30351562500002,158.2222222222222L204.41953124999998,158.2222222222222L204.53554687500002,-39.55555555555557L205.115625,-39.55555555555557L205.23164062499998,158.2222222222222L206.27578125,-39.55555555555557L206.39179687499998,158.2222222222222L206.73984375,158.2222222222222L206.855859375,-39.55555555555557L207.20390625,-39.55555555555557L207.4359375,158.2222222222222L207.66796875,158.2222222222222L208.016015625,-39.55555555555557L208.3640625,-39.55555555555557L208.480078125,158.2222222222222L208.712109375,158.2222222222222L208.944140625,-39.55555555555557L209.06015625,158.2222222222222L209.2921875,-39.55555555555557L209.408203125,158.2222222222222L209.872265625,-39.55555555555557L210.2203125,-39.55555555555557L210.336328125,158.2222222222222L210.45234375,158.2222222222222L210.568359375,158.2222222222222L210.800390625,158.2222222222222L210.91640625,158.2222222222222L211.032421875,158.2222222222222L211.1484375,158.2222222222222L211.6125,158.2222222222222L211.84453125000002,158.2222222222222L211.960546875,158.2222222222222L212.07656250000002,-39.55555555555557L212.30859375,158.2222222222222L212.540625,158.2222222222222L212.77265625,-39.55555555555557L213.00468750000002,158.2222222222222L213.12070312499998,158.2222222222222L213.23671875000002,158.2222222222222L213.46875000000003,-39.55555555555557L213.584765625,-39.55555555555557L213.70078124999998,158.2222222222222L213.816796875,158.2222222222222L213.93281249999998,158.2222222222222L214.048828125,-39.55555555555557L214.28085937499998,158.2222222222222L214.396875,158.2222222222222L214.744921875,158.2222222222222L214.86093749999998,-39.55555555555557L215.09296874999998,158.2222222222222L215.208984375,158.2222222222222L215.55703125,-39.55555555555557L215.67304687499998,158.2222222222222L215.7890625,158.2222222222222L215.905078125,158.2222222222222L216.02109375,158.2222222222222L216.25312499999998,-39.55555555555557L216.94921875,-39.55555555555557L217.065234375,158.2222222222222L217.18125,158.2222222222222L217.529296875,-39.55555555555557L217.6453125,-39.55555555555557L217.87734375,158.2222222222222L218.34140625,158.2222222222222L218.457421875,158.2222222222222L218.5734375,-39.55555555555557L218.689453125,158.2222222222222L218.921484375,158.2222222222222L219.38554687500002,-39.55555555555557L219.5015625,158.2222222222222L219.73359375,158.2222222222222L219.849609375,158.2222222222222L219.96562500000002,-39.55555555555557L220.081640625,-39.55555555555557L220.313671875,158.2222222222222L220.66171875,158.2222222222222L220.77773437500002,-39.55555555555557L220.89375,-39.55555555555557L221.009765625,158.2222222222222L221.12578125000002,158.2222222222222L221.473828125,158.2222222222222L221.58984374999997,158.2222222222222L222.05390624999998,158.2222222222222L222.16992187500003,158.2222222222222L222.40195312499998,-39.55555555555557L222.51796875,158.2222222222222L222.63398437499998,-39.55555555555557L223.098046875,-39.55555555555557L223.44609375,158.2222222222222L223.678125,-39.55555555555557L224.026171875,158.2222222222222L224.1421875,158.2222222222222L224.258203125,158.2222222222222L224.37421874999998,-39.55555555555557L224.83828125,-39.55555555555557L224.95429687499998,158.2222222222222L225.30234375,158.2222222222222L225.418359375,-39.55555555555557L225.650390625,-39.55555555555557L225.76640625,158.2222222222222L225.882421875,-39.55555555555557L226.23046875,-39.55555555555557L226.4625,158.2222222222222L226.578515625,158.2222222222222L226.69453125,158.2222222222222L226.810546875,158.2222222222222L227.62265625,-39.55555555555557L227.738671875,-39.55555555555557L228.08671875000002,158.2222222222222L228.66679687500002,158.2222222222222L229.130859375,158.2222222222222L229.362890625,-39.55555555555557L229.594921875,158.2222222222222L229.82695312500002,-39.55555555555557L230.05898437500002,-39.55555555555557L230.175,158.2222222222222L230.63906250000002,158.2222222222222L230.75507812499998,-39.55555555555557L230.87109375000003,158.2222222222222L231.10312499999998,-39.55555555555557L231.219140625,158.2222222222222L231.33515624999998,-39.55555555555557L231.79921875,158.2222222222222L232.03125,158.2222222222222L232.26328124999998,-39.55555555555557L232.49531249999998,158.2222222222222L232.611328125,-39.55555555555557L232.843359375,158.2222222222222L233.307421875,158.2222222222222L233.539453125,158.2222222222222L233.65546874999998,158.2222222222222L234.003515625,-39.55555555555557L234.3515625,158.2222222222222L234.815625,158.2222222222222L235.04765625,158.2222222222222L235.163671875,158.2222222222222L235.51171875,158.2222222222222L235.97578125,158.2222222222222L236.091796875,-39.55555555555557L236.20781250000002,158.2222222222222L236.323828125,158.2222222222222L236.671875,158.2222222222222L236.78789062500002,-39.55555555555557L237.1359375,-39.55555555555557L237.251953125,158.2222222222222L237.36796875000002,158.2222222222222L237.60000000000002,-39.55555555555557L237.716015625,158.2222222222222L238.0640625,-39.55555555555557L238.18007812500002,-39.55555555555557L238.412109375,158.2222222222222L238.644140625,158.2222222222222L238.76015625000002,158.2222222222222L238.876171875,158.2222222222222L239.68828125,158.2222222222222L239.80429687499998,158.2222222222222L239.9203125,158.2222222222222L240.03632812499998,-39.55555555555557L240.732421875,158.2222222222222L240.8484375,158.2222222222222L240.96445312499998,158.2222222222222L241.08046875,-39.55555555555557L242.124609375,-39.55555555555557L242.588671875,158.2222222222222L242.7046875,158.2222222222222L242.820703125,158.2222222222222L242.93671875,158.2222222222222L243.052734375,158.2222222222222L243.284765625,158.2222222222222L243.40078125,158.2222222222222L243.86484375,158.2222222222222L244.212890625,158.2222222222222L244.32890625,158.2222222222222L244.676953125,158.2222222222222L244.79296875,158.2222222222222L244.90898437500002,158.2222222222222L245.025,158.2222222222222L245.141015625,158.2222222222222L245.373046875,158.2222222222222L245.48906250000002,158.2222222222222L245.605078125,158.2222222222222L245.72109375,158.2222222222222L245.837109375,-39.55555555555557L246.30117187500002,158.2222222222222L246.4171875,158.2222222222222L246.533203125,158.2222222222222L246.88125000000002,158.2222222222222L247.11328125,158.2222222222222L247.22929687500002,-39.55555555555557L247.3453125,158.2222222222222L247.57734375,158.2222222222222L247.69335937499997,158.2222222222222L247.80937500000002,158.2222222222222L248.04140625000002,158.2222222222222L248.15742187499998,-39.55555555555557L248.50546874999998,-39.55555555555557L248.73749999999998,158.2222222222222L248.96953125,-39.55555555555557L249.08554687499998,158.2222222222222L249.31757812499998,-39.55555555555557L249.66562499999998,-39.55555555555557L249.89765624999998,158.2222222222222L250.013671875,158.2222222222222L250.1296875,158.2222222222222L250.36171875,158.2222222222222L250.59375,158.2222222222222L250.709765625,-39.55555555555557L250.82578125,158.2222222222222L251.28984375,158.2222222222222L251.405859375,158.2222222222222L251.637890625,-39.55555555555557L251.869921875,158.2222222222222L252.45,-39.55555555555557L252.9140625,158.2222222222222L253.030078125,-39.55555555555557L253.14609375,158.2222222222222L253.262109375,158.2222222222222L254.654296875,158.2222222222222L254.886328125,-39.55555555555557L255.118359375,158.2222222222222" style="fill: none;" fill="none"></path></g></g></g></g></g></g><g transform="translate(51, 178)" clip-path="url(#clip_1)"><clipPath id="clip_1"><rect width="278" height="22"></rect></clipPath><g><g><line x1="0" y1="0" x2="0" y2="5" style="visibility: inherit;" fill="rgb(0, 0, 0)" stroke="rgb(204, 204, 204)" stroke-width="1px"></line><line x1="23.203125" y1="0" x2="23.203125" y2="5" style="visibility: inherit;" fill="rgb(0, 0, 0)" stroke="rgb(204, 204, 204)" stroke-width="1px"></line><line x1="46.40625" y1="0" x2="46.40625" y2="5" style="visibility: inherit;" fill="rgb(0, 0, 0)" stroke="rgb(204, 204, 204)" stroke-width="1px"></line><line x1="69.609375" y1="0" x2="69.609375" y2="5" style="visibility: inherit;" fill="rgb(0, 0, 0)" stroke="rgb(204, 204, 204)" stroke-width="1px"></line><line x1="92.8125" y1="0" x2="92.8125" y2="5" style="visibility: inherit;" fill="rgb(0, 0, 0)" stroke="rgb(204, 204, 204)" stroke-width="1px"></line><line x1="116.015625" y1="0" x2="116.015625" y2="5" style="visibility: inherit;" fill="rgb(0, 0, 0)" stroke="rgb(204, 204, 204)" stroke-width="1px"></line><line x1="139.21875" y1="0" x2="139.21875" y2="5" style="visibility: inherit;" fill="rgb(0, 0, 0)" stroke="rgb(204, 204, 204)" stroke-width="1px"></line><line x1="162.421875" y1="0" x2="162.421875" y2="5" style="visibility: inherit;" fill="rgb(0, 0, 0)" stroke="rgb(204, 204, 204)" stroke-width="1px"></line><line x1="185.625" y1="0" x2="185.625" y2="5" style="visibility: inherit;" fill="rgb(0, 0, 0)" stroke="rgb(204, 204, 204)" stroke-width="1px"></line><line x1="208.828125" y1="0" x2="208.828125" y2="5" style="visibility: inherit;" fill="rgb(0, 0, 0)" stroke="rgb(204, 204, 204)" stroke-width="1px"></line><line x1="232.03125" y1="0" x2="232.03125" y2="5" style="visibility: inherit;" fill="rgb(0, 0, 0)" stroke="rgb(204, 204, 204)" stroke-width="1px"></line><line x1="255.234375" y1="0" x2="255.234375" y2="5" style="visibility: inherit;" fill="rgb(0, 0, 0)" stroke="rgb(204, 204, 204)" stroke-width="1px"></line><line x1="278.4375" y1="0" x2="278.4375" y2="5" style="visibility: inherit;" fill="rgb(0, 0, 0)" stroke="rgb(204, 204, 204)" stroke-width="1px"></line></g><g transform="translate(0, 8)"><text x="0" y="0" dx="0em" dy="0.95em" style="text-anchor: middle; visibility: hidden; font-family: Roboto, sans-serif; font-size: 12px; font-weight: 200;" fill="rgb(50, 49, 63)" stroke="none" stroke-width="1px">-200</text><text x="23.203125" y="0" dx="0em" dy="0.95em" style="text-anchor: middle; visibility: inherit; font-family: Roboto, sans-serif; font-size: 12px; font-weight: 200;" fill="rgb(50, 49, 63)" stroke="none" stroke-width="1px">0</text><text x="46.40625" y="0" dx="0em" dy="0.95em" style="text-anchor: middle; visibility: hidden; font-family: Roboto, sans-serif; font-size: 12px; font-weight: 200;" fill="rgb(50, 49, 63)" stroke="none" stroke-width="1px">200</text><text x="69.609375" y="0" dx="0em" dy="0.95em" style="text-anchor: middle; visibility: inherit; font-family: Roboto, sans-serif; font-size: 12px; font-weight: 200;" fill="rgb(50, 49, 63)" stroke="none" stroke-width="1px">400</text><text x="92.8125" y="0" dx="0em" dy="0.95em" style="text-anchor: middle; visibility: hidden; font-family: Roboto, sans-serif; font-size: 12px; font-weight: 200;" fill="rgb(50, 49, 63)" stroke="none" stroke-width="1px">600</text><text x="116.015625" y="0" dx="0em" dy="0.95em" style="text-anchor: middle; visibility: inherit; font-family: Roboto, sans-serif; font-size: 12px; font-weight: 200;" fill="rgb(50, 49, 63)" stroke="none" stroke-width="1px">800</text><text x="139.21875" y="0" dx="0em" dy="0.95em" style="text-anchor: middle; visibility: hidden; font-family: Roboto, sans-serif; font-size: 12px; font-weight: 200;" fill="rgb(50, 49, 63)" stroke="none" stroke-width="1px">1k</text><text x="162.421875" y="0" dx="0em" dy="0.95em" style="text-anchor: middle; visibility: inherit; font-family: Roboto, sans-serif; font-size: 12px; font-weight: 200;" fill="rgb(50, 49, 63)" stroke="none" stroke-width="1px">1.2k</text><text x="185.625" y="0" dx="0em" dy="0.95em" style="text-anchor: middle; visibility: hidden; font-family: Roboto, sans-serif; font-size: 12px; font-weight: 200;" fill="rgb(50, 49, 63)" stroke="none" stroke-width="1px">1.4k</text><text x="208.828125" y="0" dx="0em" dy="0.95em" style="text-anchor: middle; visibility: inherit; font-family: Roboto, sans-serif; font-size: 12px; font-weight: 200;" fill="rgb(50, 49, 63)" stroke="none" stroke-width="1px">1.6k</text><text x="232.03125" y="0" dx="0em" dy="0.95em" style="text-anchor: middle; visibility: hidden; font-family: Roboto, sans-serif; font-size: 12px; font-weight: 200;" fill="rgb(50, 49, 63)" stroke="none" stroke-width="1px">1.8k</text><text x="255.234375" y="0" dx="0em" dy="0.95em" style="text-anchor: middle; visibility: inherit; font-family: Roboto, sans-serif; font-size: 12px; font-weight: 200;" fill="rgb(50, 49, 63)" stroke="none" stroke-width="1px">2k</text><text x="278.4375" y="0" dx="0em" dy="0.95em" style="text-anchor: middle; visibility: hidden; font-family: Roboto, sans-serif; font-size: 12px; font-weight: 200;" fill="rgb(50, 49, 63)" stroke="none" stroke-width="1px">2.2k</text></g><line x1="0" y1="0" x2="278.4375" y2="0" fill="rgb(0, 0, 0)" stroke="rgb(204, 204, 204)" stroke-width="1px"></line></g></g></g></g></svg>