<svg viewBox="0 0 330 200" xmlns="http://www.w3.org/2000/svg"><g><g><g><g><g><line x1="51.125" y1="175" x2="46.125" y2="175" style="visibility: inherit;" fill="rgb(0, 0, 0)" stroke="rgb(204, 204, 204)" stroke-width="1px"></line><line x1="51.125" y1="157.5" x2="46.125" y2="157.5" style="visibility: inherit;" fill="rgb(0, 0, 0)" stroke="rgb(204, 204, 204)" stroke-width="1px"></line><line x1="51.125" y1="140" x2="46.125" y2="140" style="visibility: inherit;" fill="rgb(0, 0, 0)" stroke="rgb(204, 204, 204)" stroke-width="1px"></line><line x1="51.125" y1="122.49999999999999" x2="46.125" y2="122.49999999999999" style="visibility: inherit;" fill="rgb(0, 0, 0)" stroke="rgb(204, 204, 204)" stroke-width="1px"></line><line x1="51.125" y1="105" x2="46.125" y2="105" style="visibility: inherit;" fill="rgb(0, 0, 0)" stroke="rgb(204, 204, 204)" stroke-width="1px"></line><line x1="51.125" y1="87.5" x2="46.125" y2="87.5" style="visibility: inherit;" fill="rgb(0, 0, 0)" stroke="rgb(204, 204, 204)" stroke-width="1px"></line><line x1="51.125" y1="70" x2="46.125" y2="70" style="visibility: inherit;" fill="rgb(0, 0, 0)" stroke="rgb(204, 204, 204)" stroke-width="1px"></line><line x1="51.125" y1="52.50000000000001" x2="46.125" y2="52.50000000000001" style="visibility: inherit;" fill="rgb(0, 0, 0)" stroke="rgb(204, 204, 204)" stroke-width="1px"></line><line x1="51.125" y1="34.99999999999999" x2="46.125" y2="34.99999999999999" style="visibility: inherit;" fill="rgb(0, 0, 0)" stroke="rgb(204, 204, 204)" stroke-width="1px"></line><line x1="51.125" y1="17.499999999999996" x2="46.125" y2="17.499999999999996" style="visibility: inherit;" fill="rgb(0, 0, 0)" stroke="rgb(204, 204, 204)" stroke-width="1px"></line><line x1="51.125" y1="0" x2="46.125" y2="0" style="visibility: inherit;" fill="rgb(0, 0, 0)" stroke="rgb(204, 204, 204)" stroke-width="1px"></line></g><g transform="translate(41.125, 0)"><text x="0" y="175" dx="0em" dy="0.3em" style="text-anchor: end; visibility: hidden; font-family: Roboto, sans-serif; font-size: 12px; font-weight: 200;" fill="rgb(50, 49, 63)" stroke="none" stroke-width="1px">-180</text><text x="0" y="157.5" dx="0em" dy="0.3em" style="text-anchor: end; visibility: inherit; font-family: Roboto, sans-serif; font-size: 12px; font-weight: 200;" fill="rgb(50, 49, 63)" stroke="none" stroke-width="1px">-160</text><text x="0" y="140" dx="0em" dy="0.3em" style="text-anchor: end; visibility: hidden; font-family: Roboto, sans-serif; font-size: 12px; font-weight: 200;" fill="rgb(50, 49, 63)" stroke="none" stroke-width="1px">-140</text><text x="0" y="122.49999999999999" dx="0em" dy="0.3em" style="text-anchor: end; visibility: inherit; font-family: Roboto, sans-serif; font-size: 12px; font-weight: 200;" fill="rgb(50, 49, 63)" stroke="none" stroke-width="1px">-120</text><text x="0" y="105" dx="0em" dy="0.3em" style="text-anchor: end; visibility: hidden; font-family: Roboto, sans-serif; font-size: 12px; font-weight: 200;" fill="rgb(50, 49, 63)" stroke="none" stroke-width="1px">-100</text><text x="0" y="87.5" dx="0em" dy="0.3em" style="text-anchor: end; visibility: inherit; font-family: Roboto, sans-serif; font-size: 12px; font-weight: 200;" fill="rgb(50, 49, 63)" stroke="none" stroke-width="1px">-80</text><text x="0" y="70" dx="0em" dy="0.3em" style="text-anchor: end; visibility: hidden; font-family: Roboto, sans-serif; font-size: 12px; font-weight: 200;" fill="rgb(50, 49, 63)" stroke="none" stroke-width="1px">-60</text><text x="0" y="52.50000000000001" dx="0em" dy="0.3em" style="text-anchor: end; visibility: inherit; font-family: Roboto, sans-serif; font-size: 12px; font-weight: 200;" fill="rgb(50, 49, 63)" stroke="none" stroke-width="1px">-40</text><text x="0" y="34.99999999999999" dx="0em" dy="0.3em" style="text-anchor: end; visibility: hidden; font-family: Roboto, sans-serif; font-size: 12px; font-weight: 200;" fill="rgb(50, 49, 63)" stroke="none" stroke-width="1px">-20</text><text x="0" y="17.499999999999996" dx="0em" dy="0.3em" style="text-anchor: end; visibility: inherit; font-family: Roboto, sans-serif; font-size: 12px; font-weight: 200;" fill="rgb(50, 49, 63)" stroke="none" stroke-width="1px">0</text><text x="0" y="0" dx="0em" dy="0.3em" style="text-anchor: end; visibility: hidden; font-family: Roboto, sans-serif; font-size: 12px; font-weight: 200;" fill="rgb(50, 49, 63)" stroke="none" stroke-width="1px">20</text></g><line x1="51.125" y1="0" x2="51.125" y2="175" fill="rgb(0, 0, 0)" stroke="rgb(204, 204, 204)" stroke-width="1px"></line></g></g><g transform="translate(51, 0)" clip-path="url(#clip_0)"><clipPath id="clip_0"><rect width="278" height="175"></rect></clipPath><g><g><g><line x1="0" y1="0" x2="0" y2="175" fill="rgb(0, 0, 0)" stroke="rgb(60, 60, 60)" stroke-width="1px" opacity="0.25"></line><line x1="23.239583333333332" y1="0" x2="23.239583333333332" y2="175" fill="rgb(0, 0, 0)" stroke="rgb(60, 60, 60)" stroke-width="1px" opacity="0.25"></line><line x1="46.479166666666664" y1="0" x2="46.479166666666664" y2="175" fill="rgb(0, 0, 0)" stroke="rgb(60, 60, 60)" stroke-width="1px" opacity="0.25"></line><line x1="69.71875" y1="0" x2="69.71875" y2="175" fill="rgb(0, 0, 0)" stroke="rgb(60, 60, 60)" stroke-width="1px" opacity="0.25"></line><line x1="92.95833333333333" y1="0" x2="92.95833333333333" y2="175" fill="rgb(0, 0, 0)" stroke="rgb(60, 60, 60)" stroke-width="1px" opacity="0.25"></line><line x1="116.19791666666667" y1="0" x2="116.19791666666667" y2="175" fill="rgb(0, 0, 0)" stroke="rgb(60, 60, 60)" stroke-width="1px" opacity="0.25"></line><line x1="139.4375" y1="0" x2="139.4375" y2="175" fill="rgb(0, 0, 0)" stroke="rgb(60, 60, 60)" stroke-width="1px" opacity="0.25"></line><line x1="162.67708333333334" y1="0" x2="162.67708333333334" y2="175" fill="rgb(0, 0, 0)" stroke="rgb(60, 60, 60)" stroke-width="1px" opacity="0.25"></line><line x1="185.91666666666666" y1="0" x2="185.91666666666666" y2="175" fill="rgb(0, 0, 0)" stroke="rgb(60, 60, 60)" stroke-width="1px" opacity="0.25"></line><line x1="209.15625" y1="0" x2="209.15625" y2="175" fill="rgb(0, 0, 0)" stroke="rgb(60, 60, 60)" stroke-width="1px" opacity="0.25"></line><line x1="232.39583333333334" y1="0" x2="232.39583333333334" y2="175" fill="rgb(0, 0, 0)" stroke="rgb(60, 60, 60)" stroke-width="1px" opacity="0.25"></line><line x1="255.63541666666666" y1="0" x2="255.63541666666666" y2="175" fill="rgb(0, 0, 0)" stroke="rgb(60, 60, 60)" stroke-width="1px" opacity="0.25"></line><line x1="278.875" y1="0" x2="278.875" y2="175" fill="rgb(0, 0, 0)" stroke="rgb(60, 60, 60)" stroke-width="1px" opacity="0.25"></line></g><g><line x1="0" y1="175" x2="278.875" y2="175" fill="rgb(0, 0, 0)" stroke="rgb(60, 60, 60)" stroke-width="1px" opacity="0.25"></line><line x1="0" y1="157.5" x2="278.875" y2="157.5" fill="rgb(0, 0, 0)" stroke="rgb(60, 60, 60)" stroke-width="1px" opacity="0.25"></line><line x1="0" y1="140" x2="278.875" y2="140" fill="rgb(0, 0, 0)" stroke="rgb(60, 60, 60)" stroke-width="1px" opacity="0.25"></line><line x1="0" y1="122.49999999999999" x2="278.875" y2="122.49999999999999" fill="rgb(0, 0, 0)" stroke="rgb(60, 60, 60)" stroke-width="1px" opacity="0.25"></line><line x1="0" y1="105" x2="278.875" y2="105" fill="rgb(0, 0, 0)" stroke="rgb(60, 60, 60)" stroke-width="1px" opacity="0.25"></line><line x1="0" y1="87.5" x2="278.875" y2="87.5" fill="rgb(0, 0, 0)" stroke="rgb(60, 60, 60)" stroke-width="1px" opacity="0.25"></line><line x1="0" y1="70" x2="278.875" y2="70" fill="rgb(0, 0, 0)" stroke="rgb(60, 60, 60)" stroke-width="1px" opacity="0.25"></line><line x1="0" y1="52.50000000000001" x2="278.875" y2="52.50000000000001" fill="rgb(0, 0, 0)" stroke="rgb(60, 60, 60)" stroke-width="1px" opacity="0.25"></line><line x1="0" y1="34.99999999999999" x2="278.875" y2="34.99999999999999" fill="rgb(0, 0, 0)" stroke="rgb(60, 60, 60)" stroke-width="1px" opacity="0.25"></line><line x1="0" y1="17.499999999999996" x2="278.875" y2="17.499999999999996" fill="rgb(0, 0, 0)" stroke="rgb(60, 60, 60)" stroke-width="1px" opacity="0.25"></line><line x1="0" y1="0" x2="278.875" y2="0" fill="rgb(0, 0, 0)" stroke="rgb(60, 60, 60)" stroke-width="1px" opacity="0.25"></line></g></g></g><g><g><line x1="0" y1="17.499999999999996" x2="278.875" y2="17.499999999999996" fill="rgb(0, 0, 0)" stroke="rgb(153, 153, 153)" stroke-width="1.5px"></line></g></g><g><g><line x1="23.239583333333332" y1="0" x2="23.239583333333332" y2="175" fill="rgb(0, 0, 0)" stroke="rgb(153, 153, 153)" stroke-width="1.5px"></line></g></g><g><g><g><g><g><path stroke="rgb(0, 119, 187)" stroke-width="2px" d="M25.09875,219.3356552717899L25.331145833333334,172.9710440890794L25.563541666666666,317.45681658239226L26.493125,209.95145602278149L26.725520833333334,157.10596531993025L26.957916666666666,178.2671610754981L27.1903125,194.4619413864855L27.422708333333333,140.82389634537324L27.655104166666668,195.79634768714342L27.887500000000003,144.7766893965604L28.11989583333333,118.36566601154645L28.352291666666666,109.86933250881432L28.584687499999998,101.27155876575794L28.817083333333333,132.51302407984048L29.049479166666668,156.85785597573928L29.281875,163.76472065455303L29.514270833333335,243.50888136316016L29.74666666666667,167.4553007954575L29.9790625,127.07317154983889L30.211458333333333,243.19391833266457L30.443854166666664,160.26634439967415L30.67625,140.25980568445294L30.908645833333335,107.95588248512622L31.141041666666666,141.07353006039153L31.3734375,203.9941186852246L31.605833333333333,148.9964708707733L31.838229166666668,115.29788239733465L32.070625,97.87872939959237L32.303020833333335,90.92723763046303L32.53541666666667,80.45634256987964L32.7678125,76.97380554025187L33.00020833333333,74.53428332344674L33.23260416666667,82.17056999539099L33.464999999999996,67.1523419956735L33.69739583333333,70.39140519760612L33.92979166666667,59.73484311816489L34.1621875,61.39090587093614L34.39458333333334,64.83454352260806L34.626979166666665,100.50072611385312L34.859375,86.55043566824422L35.09177083333333,74.33026140091097L35.32416666666667,72.59815684054357L35.5565625,63.85889410431699L35.78895833333333,64.2153364625904L36.02135416666667,70.02920187755643L36.253750000000004,68.61752112653356L36.48614583333333,70.92051267592045L36.71854166666666,63.552307605551675L36.9509375,100.4313845633328L37.18333333333333,83.00883073799916L37.415729166666665,75.35529844279937L37.648125,121.16317906568011L37.880520833333335,141.2979074394082L38.11291666666666,101.92874446364476L38.345312500000006,166.857246678187L38.577708333333334,120.76434800691216L38.81010416666666,137.9086088041473L39.042500000000004,101.29516528248836L39.27489583333333,91.927099169493L39.50729166666667,80.70625950169581L39.739687499999995,75.72375570101751L39.97208333333334,62.23425342061049L40.204479166666665,96.84055205236629L40.436875,79.45433123141979L40.669270833333336,67.62259873885186L40.901666666666664,61.22355924331113L41.1340625,57.73413554598667L41.366458333333334,57.040481327592005L41.59885416666667,52.07428879655521L41.83125,50.49457327793314L42.06364583333334,53.04674396675988L42.29604166666667,53.528046380055926L42.5284375,91.96682782803356L42.76083333333333,70.58009669682014L42.993229166666666,65.79805801809206L43.225625,58.728834810855254L43.45802083333333,59.03730088651315L43.69041666666667,49.42238053190788L43.9228125,45.05342831914474L44.155208333333334,51.182056991486846L44.38760416666667,54.159234194892115L44.62,54.895540516935256L44.85239583333333,53.587324310161144L45.08479166666666,90.2523945860967L45.3171875,118.55143675165803L45.54958333333333,94.5808620509948L45.781979166666666,110.99851723059689L46.014375,86.19911033835812L46.246770833333336,72.71946620301489L46.479166666666664,69.88167972180894L46.7115625,132.92900783308534L46.943958333333335,102.15740469985121L47.17635416666666,131.99444281991074L47.408750000000005,97.74666569194645L47.64114583333333,113.59799941516785L47.87354166666667,95.8087996491007L48.105937499999996,74.28527978946042L48.33833333333334,58.221167873676265L48.570729166666666,84.98270072420576L48.803124999999994,68.48962043452345L49.03552083333334,140.84377226071408L49.267916666666665,106.55626335642845L49.5003125,113.98375801385706L49.732708333333335,83.44025480831424L49.96510416666667,70.01415288498855L50.1975,59.858491730993116L50.42989583333334,98.21509503859588L50.66229166666667,73.97905702315752L50.894687499999996,103.18743421389449L51.12708333333333,77.3124605283367L51.35947916666667,63.88747631700202L51.591875,63.88248579020121L51.82427083333333,53.02949147412072L52.05666666666667,93.76769488447243L52.2890625,72.36061693068346L52.52145833333333,60.91637015841007L52.75385416666667,61.749822095046035L52.98625,97.59989325702763L53.21864583333333,71.85993595421658L53.45104166666667,94.91596157252995L53.683437500000004,76.54957694351796L53.91583333333333,63.429746166110775L54.14822916666666,91.60784769966648L54.380625,73.16470861979988L54.61302083333333,100.94882517187995L54.845416666666665,78.06929510312796L55.0778125,59.79157706187677L55.310208333333335,56.17494623712605L55.54260416666666,45.95496774227563L55.775000000000006,86.37298064536537L56.007395833333334,70.37378838721924L56.23979166666666,55.524273032331536L56.472187500000004,50.114563819398924L56.70458333333333,48.26873829163934L56.93697916666667,46.46124297498363L57.169374999999995,40.82674578499016L57.40177083333334,41.99604747099411L57.634166666666665,40.24762848259647L57.8665625,41.64857708955789L58.098958333333336,36.88914625373473L58.331354166666664,35.433487752240836L58.56375,116.8100926513445L58.796145833333334,87.93605559080672L59.02854166666667,108.76163335448402L59.2609375,83.10698001269041L59.49333333333334,104.81418800761423L59.72572916666667,121.68851280456855L59.958125,86.31310768274112L60.19052083333333,65.08786460964468L60.422916666666666,59.352718765786804L60.6553125,53.811631259472094L60.88770833333333,44.88697875568325L61.12010416666667,42.68218725340995L61.3525,79.50931235204598L61.584895833333334,64.15558741122759L61.81729166666667,52.14335244673654L62.0496875,46.68601146804193L62.28208333333333,47.611606880825164L62.51447916666666,40.81696412849511L62.746875,38.14017847709705L62.97927083333333,42.83410708625822L63.211666666666666,37.95046425175494L63.4440625,42.72027855105297L63.676458333333336,37.53216713063178L63.908854166666664,38.26930027837906L64.14125,39.41158016702744L64.37364583333333,35.896948100216456L64.60604166666667,37.288168860129886L64.8384375,72.42290131607793L65.07083333333334,59.55374078964676L65.30322916666667,52.532244473788055L65.535625,47.61934668427283L65.76802083333334,43.6216080105637L66.00041666666667,38.42296480633821L66.2328125,37.753778883802916L66.46520833333334,34.55226733028176L66.69760416666666,34.38136039816905L66.92999999999999,79.77881623890143L67.16239583333333,63.26728974334086L67.39479166666666,54.760373846004526L67.6271875,47.20622430760271L67.85958333333333,122.47373458456163L68.09197916666666,92.03424075073698L68.324375,67.47054445044219L68.55677083333333,54.132326670265314L68.78916666666667,44.72939600215919L69.0215625,83.88763760129552L69.25395833333333,64.33258256077731L69.48635416666667,130.64954953646637L69.71875,96.23972972187981L69.95114583333334,73.4938378331279L70.18354166666666,57.04630269987672L70.4159375,46.47778161992606L70.64833333333334,44.686668971955626L70.88072916666667,39.06200138317339L71.113125,38.137200829904025L71.34552083333334,38.63232049794242L71.57791666666667,36.82939229876546L71.8103125,33.64763537925928L72.04270833333334,115.03858122755558L72.27510416666667,86.87314873653335L72.50750000000001,142.77388924192L72.73989583333332,98.964333545152L72.97229166666666,110.47860012709121L73.2046875,82.03716007625471L73.43708333333332,60.77229604575284L73.66947916666666,51.16337762745171L73.901875,45.04802657647103L74.13427083333333,78.82881594588261L74.36666666666666,58.84728956752957L74.5990625,92.70837374051776L74.83145833333333,74.87502424431065L75.06385416666667,56.82501454658639L75.29625,46.34500872795183L75.52864583333333,40.05700523677111L75.76104166666667,39.08420314206268L75.9934375,155.0505218852376L76.22583333333333,107.03031313114255L76.45822916666667,152.76818787868552L76.69062500000001,103.21091272721132L76.92302083333333,76.97654763632679L77.15541666666667,95.53592858179609L77.38781250000001,68.87155714907765L77.62020833333332,54.62293428944659L77.85260416666667,83.52376057366794L78.08500000000001,61.66425634420075L78.31739583333334,51.34855380652047L78.54979166666666,45.50913228391228L78.78218749999999,40.255479370347366L79.01458333333333,36.40328762220841L79.24697916666668,34.791972573325054L79.47937499999999,35.22518354399502L79.71177083333333,71.53511012639702L79.94416666666667,54.47106607583822L80.17656249999999,48.78263964550292L80.40895833333333,81.41958378730175L80.64135416666667,64.25175027238106L80.87375,50.801050163428634L81.10614583333333,44.13063009805719L81.33854166666667,40.82837805883431L81.5709375,40.247026835300574L81.80333333333333,36.74821610118036L82.03572916666667,33.59892966070822L82.268125,33.10935779642492L82.50052083333334,34.21561467785495L82.73291666666667,37.67936880671297L82.9653125,35.20762128402779L83.19770833333334,32.674572770416674L83.43010416666668,31.15474366225001L83.6625,69.44284619735L83.89489583333334,53.91570771841001L84.12729166666668,43.899424631046L84.35968749999999,38.58965477862758L84.59208333333333,34.70379286717657L84.82447916666666,33.07227572030593L85.056875,31.393365432183558L85.28927083333333,30.38601925931014L85.52166666666666,32.931611555586095L85.7540625,31.308966933351652L85.98645833333333,31.38538016001098L86.21885416666666,73.0812280960066L86.45125,55.39873685760395L86.68364583333334,44.78924211456238L86.91604166666666,38.42354526873742L87.1484375,35.304127161242455L87.38083333333334,69.83247629674548L87.61322916666666,132.89948577804728L87.845625,130.13969146682837L88.07802083333334,94.18381488009702L88.31041666666667,68.0602889280582L88.5428125,54.486173356834925L88.77520833333334,44.241704014100954L89.00760416666667,38.09502240846057L89.24,34.407013445076345L89.47239583333334,32.19420806704579L89.70479166666667,32.26652484022747L89.93718750000001,33.70991490413647L90.16958333333332,37.0259489424819L90.40197916666666,33.76556936548914L90.634375,34.60934161929349L90.86677083333332,32.31560497157607L91.09916666666666,30.939362982945635L91.3315625,69.6636177897674L91.56395833333333,54.74817067386046L91.79635416666666,45.09890240431628L92.02875,38.60934144258976L92.26114583333333,35.41560486555386L92.49354166666667,71.29936291933231L92.7259375,92.4796177515994L92.95833333333333,67.03777065095963L93.19072916666667,89.57266239057579L93.423125,65.99359743434546L93.65552083333333,52.896158460607275L93.88791666666667,43.98769507636438L94.12031250000001,39.34261704581862L94.35270833333333,35.85557022749118L94.58510416666667,70.51334213649471L94.81750000000001,53.85800528189683L95.04989583333332,78.86480316913811L95.28229166666667,59.56888190148285L95.51468750000001,49.04132914088971L95.74708333333334,46.574797484533825L95.97947916666666,75.1948784907203L96.21187499999999,94.81692709443217L96.44427083333333,69.14015625665931L96.67666666666668,53.034093753995585L96.90906249999999,43.37045625239735L97.14145833333333,38.27227375143841L97.37385416666667,35.213364250863044L97.60624999999999,32.678018550517834L97.83864583333333,104.3068111303107L98.07104166666667,74.13408667818643L98.3034375,56.030452006911865L98.53583333333333,46.918271204147125L98.76822916666667,41.100962722488255L99.000625,38.66057763349297L99.23302083333333,34.746346580095775L99.46541666666667,32.39780794805746L99.6978125,30.988684768834478L99.93020833333334,30.843210861300673L100.16260416666667,30.75592651678042L100.395,30.003555910068254L100.62739583333334,29.55213354604096L100.85979166666668,29.981280127624572L101.0921875,31.638768076574745L101.32458333333334,30.53326084594484L101.55697916666668,29.869956507566908L101.78937499999999,29.471973904540157L102.02177083333333,29.933184342724072L102.25416666666666,67.65991060563445L102.4865625,89.59594636338068L102.71895833333333,65.3075678180284L102.95135416666666,51.08454069081703L103.18375,42.20072441449023L103.41614583333333,73.27043464869412L103.64854166666666,56.562260789216474L103.8809375,120.73735647352989L104.11333333333334,85.74241388411792L104.34572916666666,103.59544833047076L104.578125,75.10726899828245L104.81052083333334,59.06436139896947L105.04291666666666,122.93861683938168L105.2753125,86.36317010362902L105.50770833333334,63.36790206217742L105.74010416666667,50.270741237306446L105.9725,41.712444742383866L106.20489583333334,74.37746684543032L106.43729166666667,56.1764801072582L106.6696875,45.255888064354906L106.90208333333334,75.80353283861295L107.13447916666667,57.03211970316779L107.36687500000001,47.16927182190067L107.59927083333332,39.85156309314039L107.83166666666666,38.61093785588423L108.0640625,35.416562713530546L108.29645833333332,33.49993762811831L108.52885416666666,33.04996257687102L108.76125,32.079977546122606L108.99364583333333,31.497986527673557L109.22604166666666,30.44879191660412L109.4584375,103.66927514996249L109.69083333333333,74.45156508997749L109.92322916666667,56.920939053986494L110.155625,81.75256343239188L110.38802083333333,97.00153805943513L110.62041666666667,70.45092283566109L110.8528125,53.82055370139664L111.08520833333333,45.24233222083798L111.31760416666667,38.69539933250279L111.55000000000001,35.467239599501674L111.78239583333333,32.83034375970101L112.01479166666667,31.598206255820596L112.24718750000001,31.908923753492356L112.47958333333332,30.695354252095424L112.71197916666667,29.96721255125727L112.94437500000001,29.530327530754352L113.17677083333334,30.66819651845262L113.40916666666666,31.350917911071566L113.64156249999999,66.76055074664295L113.87395833333333,53.00633044798576L114.10635416666668,80.45379826879146L114.33874999999999,59.82227896127489L114.57114583333333,83.84336737676492L114.80354166666667,61.856020426058954L115.03593749999999,85.06361225563539L115.26833333333333,174.23816735338124L115.50072916666667,116.09290041202874L115.733125,81.55574024721723L115.96552083333333,60.48344414833034L116.19791666666667,85.64006648899822L116.4303125,63.98403989339893L116.66270833333333,49.940423936039366L116.89510416666667,42.56425436162361L117.1275,37.08855261697418L117.35989583333334,35.20313157018451L117.59229166666667,32.6718789421107L117.8246875,35.00312736526642L118.05708333333334,32.551876419159846L118.28947916666668,105.28112585149589L118.521875,74.71867551089753L118.75427083333334,92.78120530653852L118.98666666666668,67.9187231839231L119.21906249999999,52.30123391035386L119.45145833333333,42.930740346212325L119.68385416666666,38.00844420772737L119.91625,72.15506652463644L120.14864583333333,54.84303991478186L120.38104166666666,44.80582394886913L120.6134375,39.13349436932148L120.84583333333333,35.38009662159286L121.07822916666666,33.12805797295573L121.310625,70.62683478377343L121.54302083333334,55.32610087026405L121.77541666666666,45.445660522158434L122.0078125,76.61739631329506L122.24020833333334,61.370437787977046L122.47260416666666,49.072262672786216L122.705,42.39335760367172L122.93739583333334,36.986014562203025L123.16979166666667,35.14160873732182L123.4021875,32.6349652423931L123.63458333333334,31.130979145435862L123.86697916666667,106.52858748726152L124.099375,75.81715249235691L124.33177083333334,57.04029149541415L124.56416666666667,45.77417489724851L124.79656250000001,41.114504938349086L125.02895833333332,36.218702963009456L125.26135416666666,33.281221777805676L125.49375,71.06873306668341L125.72614583333332,55.59123984001005L125.95854166666666,45.604743904006014L126.1909375,38.912846342403625L126.42333333333333,71.64770780544217L126.65572916666666,93.7386246832653L126.888125,104.5431748099592L127.12052083333333,74.27590488597549L127.35291666666667,92.51554293158532L127.5853125,67.7593257589512L127.81770833333333,52.90559545537071L128.05010416666667,43.293357273222426L128.2825,112.77601436393347L128.51489583333333,115.96560861836006L128.74729166666665,81.82936517101605L128.9796875,60.64761910260962L129.21208333333334,48.28857146156578L129.44447916666667,76.57314287693946L129.676875,58.193885726163685L129.90927083333332,46.466331435698194L130.14166666666668,40.12979886141893L130.3740625,37.02787931685136L130.60645833333334,72.61672759011081L130.83885416666666,56.5200365540665L131.07125,46.16202193243988L131.30364583333332,39.94721315946394L131.53604166666668,75.41832789567836L131.7684375,56.80099673740704L132.00083333333333,45.63059804244423L132.23322916666666,191.17835882546655L132.465625,126.2570152952799L132.69802083333335,88.70420917716794L132.93041666666667,102.92252550630079L133.1628125,73.30351530378046L133.39520833333333,55.53210918226828L133.62760416666669,44.86926550936097L133.85999999999999,39.17155930561657L134.09239583333334,35.05293558336994L134.32479166666667,32.581761350021964L134.5571875,31.09905681001318L134.78958333333333,103.7094340860079L135.02197916666668,74.47566045160475L135.254375,58.33539627096285L135.48677083333334,46.55123776257771L135.71916666666667,149.73074265754664L135.9515625,177.68844559452802L136.18395833333332,118.8630673567168L136.41635416666668,117.86784041403008L136.64875,82.27070424841804L136.88114583333333,62.312422549050815L137.11354166666666,87.78745352943051L137.3459375,64.2224721176583L137.57833333333335,51.48348327059498L137.81072916666665,44.54008996235697L138.043125,80.27405397741418L138.27552083333333,59.71443238644852L138.50791666666666,47.3786594318691L138.7403125,39.97719565912146L138.97270833333334,37.63631739547287L139.20510416666667,34.131790437283726L139.4375,32.029074262370216L139.66989583333333,70.31744455742215L139.90229166666668,92.9404667344533L140.13468749999998,67.31428004067197L140.3670833333333,51.938568024403175L140.59947916666667,80.51314081464193L140.831875,60.557884488785156L141.06427083333335,47.8847306932711L141.29666666666668,40.98083841596266L141.52906249999998,40.68850304957759L141.76145833333334,73.76310182974656L141.99385416666667,58.257861097847936L142.22625,46.50471665870876L142.45864583333335,40.152829995225254L142.69104166666668,35.641697997135154L142.92343749999998,33.6350187982811L143.15583333333333,32.43101127896866L143.38822916666666,31.008606767381185L143.620625,30.155164060428703L143.85302083333335,29.64309843625722L144.08541666666667,29.33585906175432L144.3178125,29.50151543705261L144.55020833333333,30.300909262231563L144.78260416666666,31.130545557338937L145.01500000000001,67.67832733440338L145.24739583333334,92.75699640064202L145.47979166666664,67.20419784038522L145.7121875,54.32251870423111L145.94458333333333,44.14351122253868L146.17697916666665,38.3861067335232L146.409375,35.281664040113924L146.64177083333334,32.71899842406835L146.87416666666664,106.431399054441L147.1065625,76.8088394326646L147.33895833333332,57.63530365959876L147.57135416666668,47.53118219575924L147.80375,40.06870931745555L148.03614583333334,36.29122559047334L148.26854166666666,69.02473535428399L148.5009375,54.36484121257041L148.73333333333332,44.16890472754223L148.96572916666668,38.051342836525336L149.198125,71.13080570191521L149.43052083333336,93.42848342114912L149.66291666666666,68.30709005268949L149.8953125,53.23425403161367L150.12770833333335,83.74055241896822L150.36010416666667,61.79433145138092L150.5925,50.02659887082856L150.82489583333336,42.265959322497146L151.05729166666666,37.60957559349826L151.28968749999999,106.56574535609897L151.52208333333334,75.48944721365939L151.75447916666667,58.24366832819564L151.986875,47.19620099691736L152.21927083333333,39.867720598150434L152.45166666666665,35.470632358890256L152.6840625,33.532379415334134L152.91645833333334,31.6694276492005L153.14885416666667,144.3016565895203L153.38125000000002,98.83099395371217L153.61364583333332,72.24859637222731L153.84604166666665,168.6491578233364L154.0784375,112.73949469400183L154.31083333333333,118.39369681640109L154.54322916666666,83.98621808984065L154.77562500000002,63.34173085390438L155.00802083333332,49.55503851234263L155.24041666666665,41.98302310740558L155.4728125,36.73981386444335L155.70520833333333,34.643888318665994L155.9376041666667,35.13633299119962L156.17000000000002,69.03179979471975L156.40239583333332,90.41907987683187L156.63479166666667,103.25144792609913L156.8671875,74.20086875565947L157.09958333333333,56.77052125339568L157.33197916666668,45.61231275203739L157.56437499999998,40.66738765122244L157.7967708333333,35.950432590733485L158.02916666666667,70.22025955444008L158.2615625,55.78215573266405L158.49395833333335,45.01929343959842L158.72635416666668,39.96157606375907L158.95874999999998,35.52694563825545L159.19114583333334,37.06616738295326L159.42354166666667,35.53970042977196L159.6559375,106.02382025786318L159.88833333333335,111.56429215471792L160.12072916666668,79.18857529283075L160.35312499999998,59.76314517569844L160.58552083333333,47.407887105419064L160.81791666666666,39.99473226325144L161.0503125,36.946839357950864L161.28270833333335,73.26810361477051L161.51510416666667,56.21086216886233L161.7475,82.72651730131739L161.97989583333333,61.885910380790435L162.21229166666666,86.83154622847427L162.44468750000001,143.79892773708454L162.67708333333334,98.52935664225072L162.90947916666664,71.36761398535045L163.141875,55.770568391210254L163.37427083333333,45.01234103472616L163.60666666666665,39.95740462083568L163.8390625,35.52444277250143L164.07145833333334,35.31466566350084L164.30385416666664,33.43879939810053L164.53625,68.36327963886032L164.76864583333332,90.71796778331618L165.00104166666668,68.78078066998972L165.2334375,54.218468401993825L165.46583333333334,44.0810810411963L165.69822916666666,37.99864862471776L165.930625,34.34918917483067L166.16302083333332,32.85951350489838L166.39541666666668,31.615708102939045L166.6278125,104.01942486176343L166.86020833333336,260.16165491705806L167.09260416666666,167.9969929502348L167.325,149.4481957701409L167.55739583333335,101.91891746208452L167.78979166666667,72.70135047725071L168.0221875,56.22081028635043L168.25458333333336,45.98248617181025L168.48697916666666,40.53949170308615L168.71937499999999,35.87369502185169L168.95177083333334,33.07421701311101L169.18416666666667,67.79453020786661L169.4165625,52.926718124719955L169.64895833333333,43.65603087483197L169.88135416666665,39.84361852489918L170.11375,35.45617111493951L170.34614583333334,32.8237026689637L170.57854166666667,32.294221601378226L170.81093750000002,68.37653296082695L171.04333333333332,52.57591977649617L171.27572916666665,44.49555186589771L171.508125,38.247331119538615L171.74052083333333,35.19839867172319L171.97291666666666,68.3690392030339L172.20531250000002,52.57142352182036L172.43770833333332,43.0928541130922L172.67010416666665,37.40571246785532L172.9025,34.69342748071318L173.13489583333333,33.06605648842791L173.3672916666667,31.38963389305676L173.59968750000002,66.08378033583405L173.83208333333332,51.90026820150042L174.06447916666667,42.69016092090025L174.296875,37.16409655254015L174.52927083333333,36.648457931524085L174.76166666666668,34.58907475891444L174.99406249999998,32.653444855348674L175.2264583333333,71.3920669132092L175.45885416666667,55.08524014792552L175.69125,79.60114408875533L175.92364583333335,59.310686453253176L176.15604166666668,82.83641187195191L176.38843749999998,99.05184712317116L176.62083333333334,107.03110827390269L176.85322916666667,76.46866496434161L177.085625,58.13119897860498L177.31802083333335,83.17871938716299L177.55041666666668,62.50723163229779L177.78281249999998,49.05433897937869L178.01520833333333,40.9826033876272L178.24760416666666,36.13956203257631L178.48,33.23373721954581L178.71239583333335,31.490242331727472L178.94479166666667,30.444145399036483L179.1771875,30.51648723942189L179.40958333333333,30.559892343653136L179.64197916666666,30.235935406191867L179.87437500000001,68.19156124371511L180.10677083333334,53.86493674622906L180.33916666666664,47.01896204773746L180.5715625,39.761377228642466L180.80395833333333,35.406826337185485L181.03635416666665,33.49409580231129L181.26875,32.34645748138678L181.50114583333334,30.95787448883208L181.73354166666664,31.524724693299238L181.9659375,31.864834815979545L182.19833333333332,30.66890088958772L182.43072916666668,68.80134053375264L182.663125,54.58080432025157L182.89552083333334,45.34848259215095L183.12791666666666,39.10908955529057L183.3603125,35.36545373317435L183.59270833333332,32.769272239904616L183.82510416666668,31.91156334394275L184.0575,30.696938006365656L184.28989583333336,31.368162803819395L184.52229166666666,31.07089768229165L184.7546875,30.192538609374978L184.98708333333335,31.065523165625006L185.21947916666667,30.539313899375006L185.451875,65.57358833962499L185.68427083333336,50.894153003774996L185.91666666666666,42.786491802264976L186.14906249999999,37.921895081359004L186.38145833333334,70.70313704881539L186.61385416666667,55.02188222928925L186.84625,45.96312933757354L187.07864583333333,40.52787760254413L187.31104166666665,36.56672656152647L187.5434375,33.49003593691588L187.77583333333334,31.64402156214952L188.00822916666667,31.936412937289727L188.24062500000002,32.11184776237383L188.47302083333332,31.5171086574243L188.70541666666665,66.16026519445458L188.9378125,51.24615911667273L189.17020833333333,44.74769547000364L189.40260416666666,39.0986172820022L189.63500000000002,35.35917036920131L189.86739583333332,32.76550222152078L190.09979166666665,31.90930133291248L190.3321875,31.39558079974749L190.56458333333333,33.88734847984848L190.7969791666667,31.882409087909092L191.02937500000002,33.47944545274546L191.26177083333332,31.63766727164728L191.49416666666667,67.63260036298837L191.7265625,52.82956021779303L191.95895833333333,43.94773613067581L192.19135416666668,37.918641678405486L192.42374999999998,111.65118500704328L192.6561458333333,80.64071100422598L192.88854166666667,59.93442660253558L193.1209375,48.21065596152136L193.35333333333335,41.17639357691282L193.58572916666668,36.25583614614767L193.81812499999998,34.003501687688605L194.05052083333334,66.95210101261317L194.28291666666667,51.7212606075679L194.5153125,81.08275636454076L194.74770833333335,133.69965381872444L194.98010416666668,128.16979229123467L195.21249999999998,89.1518753747408L195.44489583333333,65.04112522484448L195.67729166666666,86.97467513490668L195.9096875,64.08480508094402L196.14208333333335,52.10088304856641L196.37447916666667,43.51052982913985L196.606875,37.6563178974839L196.83927083333333,34.14379073849034L197.07166666666666,146.4862744430942L197.30406250000001,102.24176466585652L197.53645833333334,72.8950587995139L197.76885416666664,55.28703527970835L198.00125,46.122221167825L198.23364583333333,39.923332700695006L198.46604166666665,36.55399962041701L198.6984375,34.18239977225019L198.93083333333334,34.15943986335012L199.16322916666664,32.04566391801008L199.395625,30.777398350806052L199.62802083333332,31.766439010483627L199.86041666666668,69.45986340629017L200.0928125,54.9759180437741L200.32520833333334,45.93555082626447L200.55760416666666,74.11133049575868L200.79,56.01679829745521L201.02239583333332,45.16007897847311L201.25479166666668,38.64604738708388L201.4871875,34.73762843225032L201.71958333333336,32.392577059350195L201.95197916666666,30.985546235610105L202.184375,30.14132774136605L202.41677083333335,31.38479664481963L202.64916666666667,105.2808779868918L202.8815625,74.71852679213508L203.11395833333336,57.081116075281024L203.34635416666666,48.24866964516862L203.57874999999999,43.999201787101164L203.81114583333334,37.949521072260694L204.04354166666667,34.319712643356425L204.2759375,34.59182758601384L204.50833333333333,33.00509655160832L204.74072916666665,31.703057930964995L204.973125,67.32183475857899L205.20552083333334,51.9431008551474L205.43791666666667,82.26586051308844L205.67031250000002,60.909516307853046L205.90270833333332,48.79570978471184L206.13510416666665,40.827425870827106L206.3675,36.04645552249625L206.59989583333333,33.177873313497756L206.83229166666666,31.45672398809865L207.06468750000002,69.27403439285919L207.29708333333332,53.46442063571553L207.52947916666665,79.67865238142932L207.761875,60.75719142885759L207.99427083333333,49.75431485731454L208.2266666666667,42.102588914388726L208.45906250000002,186.61155334863327L208.69145833333332,124.56693200917995L208.92385416666667,86.29015920550796L209.15625,66.47409552330477L209.38864583333333,88.53445731398287L209.62104166666668,64.67067438838973L209.85343749999998,51.05240463303381L210.0858333333333,42.181442779820316L210.31822916666667,36.85886566789217L210.550625,35.065319400735305L210.78302083333335,32.5891916404412L211.01541666666668,31.103514984264702L211.24781249999998,30.21210899055884L211.48020833333334,29.677265394335286L211.71260416666667,29.35635923660119L211.945,31.2638155419607L212.17739583333335,30.30828932517641L212.40979166666668,29.734973595105867L212.64218749999998,29.390984157063496L212.87458333333333,29.88459049423809L213.10697916666666,137.28075429654288L213.339375,94.2684525779257L213.57177083333335,182.56107154675544L213.80416666666667,157.48664292805327L214.0365625,106.04198575683196L214.26895833333333,75.87519145409918L214.50135416666666,93.1251148724595L214.73375000000001,68.4750689234757L214.96614583333334,90.08504135408542L215.19854166666664,182.15102481245125L215.4309375,120.84061488747076L215.66333333333333,84.05436893248245L215.89572916666665,100.48262135948947L216.128125,73.23957281569368L216.36052083333334,56.193743689416195L216.59291666666664,45.26624621364973L216.8253125,39.40974772818985L217.05770833333332,35.895848636913904L217.29010416666668,35.18750918214835L217.5225,32.662505509289005L217.75489583333334,31.147503305573395L217.98729166666666,30.23850198334405L218.2196875,29.69310119000641L218.45208333333332,67.16586071400387L218.68447916666668,88.9495164284023L218.916875,65.61970985704139L219.14927083333336,85.92182591422483L219.38166666666666,63.4530955485349L219.6140625,50.32185732912094L219.84645833333335,42.09311439747256L220.07885416666667,36.80586863848355L220.31125,33.63352118309012L220.54364583333336,31.730112709854076L220.77604166666666,30.588067625912444L221.00843749999999,29.902840575547458L221.24083333333334,29.491704345328465L221.47322916666667,29.245022607197086L221.705625,29.79701356431825L221.93802083333333,30.128208138590974L222.17041666666665,29.62692488315455L222.4028125,67.12615492989273L222.63520833333334,53.92569295793565L222.86760416666667,43.90541577476138L223.10000000000002,38.24324946485685L223.33239583333332,144.0459496789141L223.56479166666665,176.72756980734846L223.7971875,117.58654188440909L224.02958333333333,83.15192513064545L224.26197916666666,62.49115507838727L224.49437500000002,87.54469304703234L224.72677083333332,64.07681582821942L224.95916666666665,50.34608949693167L225.1915625,41.757653698159004L225.42395833333333,36.604592218895405L225.6563541666667,33.51275533133723L225.88875000000002,31.65765319880235L226.12114583333332,31.244591919281394L226.35354166666667,103.79675515156885L226.5859375,75.22805309094129L226.81833333333333,95.53683185456478L227.05072916666668,106.32209911273885L227.28312499999998,75.34325946764332L227.5155208333333,59.555955680585974L227.74791666666667,47.98357340835157L227.9803125,41.040144045010955L228.21270833333335,36.174086427006564L228.44510416666668,33.954451856203946L228.67749999999998,31.922671113722355L228.90989583333334,32.103602668233414L229.14229166666667,68.96216160094006L229.3746875,52.927296960564014L229.60708333333335,43.30637817633842L229.83947916666668,38.233826905803056L230.07187499999998,70.89029614348182L230.30427083333333,54.784177686089095L230.53666666666666,44.42050661165346L230.7690625,39.60230396699206L231.00145833333335,35.31138238019524L231.23385416666667,33.43682942811714L231.46625,31.612097656870294L231.69864583333333,108.91725859412219L231.93104166666666,76.9003551564733L232.16343750000001,59.09021309388398L232.39583333333334,85.5041278563304L232.62822916666664,136.70247671379826L232.860625,93.57148602827894L233.09302083333333,67.69289161696737L233.32541666666665,52.865734970180426L233.5578125,81.76944098210825L233.79020833333334,63.76166458926495L234.02260416666664,49.806998753558965L234.255,41.434199252135365L234.48739583333332,72.11051955128121L234.71979166666668,54.816311730768746L234.9521875,45.139787038461236L235.18458333333334,38.633872223076736L235.41697916666666,108.23032333384604L235.649375,76.48819400030764L235.88177083333332,132.69291640018457L236.11416666666668,96.76574984011074L236.3465625,71.70944990406645L236.57895833333336,92.37566994243988L236.81135416666666,105.47540196546392L237.04375,113.68524117927836L237.27614583333335,80.461144707567L237.50854166666667,60.52668682454021L237.7409375,87.41601209472412L237.97333333333336,67.14960725683449L238.20572916666666,51.83976435410067L238.43812499999999,84.65385861246041L238.67052083333334,63.04231516747626L238.90291666666667,50.07538910048573L239.1353125,43.34523346029143L239.36770833333333,37.557140076174846L239.60010416666665,34.784284045704915L239.8325,32.420570427422945L240.06489583333334,31.002342256453762L240.29729166666667,30.151405353872264L240.52968750000002,31.040843212323356L240.76208333333332,30.874505927394015L240.99447916666665,30.07470355643641L241.226875,34.14482213386185L241.45927083333333,32.03689328031711L241.69166666666666,31.47213596819027L241.92406250000002,30.43328158091416L242.15645833333332,29.80996894854851L242.38885416666665,30.135981369129098L242.62125,30.331588821477474L242.85364583333333,29.74895329288649L243.0860416666667,29.39937197573189L243.31843750000002,29.18962318543912L243.55083333333332,29.063773911263464L243.78322916666667,29.688264346758082L244.015625,32.16295860805485L244.24802083333333,31.197775164832912L244.48041666666668,30.268665098899742L244.71281249999998,30.411199059339843L244.9452083333333,65.49671943560392L245.17760416666667,120.84803166136234L245.41,84.05881899681742L245.64239583333335,97.68529139809044L245.87479166666668,70.16117483885427L246.10718749999998,55.046704903312545L246.33958333333334,44.57802294198753L246.57197916666667,38.296813765192525L246.804375,34.52808825911549L247.03677083333335,32.26685295546929L247.26916666666668,72.91011177328157L247.50156249999998,55.29606706396895L247.73395833333333,45.07764023838138L247.96635416666666,39.646584143028825L248.19875,35.33795048581731L248.43114583333335,32.75277029149038L248.66354166666667,31.20166217489422L248.8959375,30.97099730493653L249.12833333333333,30.132598382961906L249.36072916666666,66.37955902977717L249.59312500000001,89.87773541786629L249.82552083333334,65.47664125071978L250.05791666666664,51.53598475043185L250.2903125,43.171590850259115L250.52270833333333,38.852954510155485L250.75510416666665,34.86177270609326L250.9875,70.61706362365598L251.21989583333334,53.920238174193564L251.45229166666664,44.602142904516136L251.6846875,75.06128574270969L251.91708333333332,93.68677144562582L252.14947916666668,68.4620628673755L252.381875,55.42723772042528L252.61427083333334,119.7063426322552L252.84666666666666,84.0738055793531L253.0790625,99.44428334761186L253.31145833333332,71.91657000856713L253.54385416666668,55.39994200514027L253.77625,44.789965203084165L254.00864583333336,38.423979121850486L254.24104166666666,74.85438747311031L254.4734375,56.462632483866166L254.70583333333335,120.32757949031972L254.93822916666667,84.44654769419184L255.170625,99.66792861651511L255.40302083333336,115.45075716990905" style="fill: none;" fill="none"></path></g></g></g></g><g opacity="0.2"><g><g><g><path stroke="rgb(0, 119, 187)" stroke-width="2px" d="M23.704375000000002,803.25L23.936770833333334,159.25L24.16916666666667,427.87500000000006L24.401562499999997,107.625L24.633958333333332,131.25L24.866354166666667,118.99999999999999L25.09875,250.25L25.331145833333334,104.125L25.563541666666666,532.875L25.7959375,53.37500000000001L26.028333333333336,392.00000000000006L26.260729166666664,223.12499999999997L26.493125,135.625L26.725520833333334,77.87499999999999L26.957916666666666,210L27.1903125,218.75L27.422708333333333,60.37499999999999L27.655104166666668,278.25L27.887500000000003,68.25L28.11989583333333,78.74999999999999L28.352291666666666,97.12499999999999L28.584687499999998,88.375L28.817083333333333,179.37499999999997L29.049479166666668,193.375L29.281875,174.125L29.514270833333335,363.12500000000006L29.74666666666667,53.37500000000001L29.9790625,66.5L30.211458333333333,417.37499999999994L30.443854166666664,35.87499999999999L30.67625,110.25L30.908645833333335,59.49999999999999L31.141041666666666,190.75L31.3734375,298.375L31.605833333333333,66.5L31.838229166666668,64.75L32.070625,71.75L32.303020833333335,80.5L32.53541666666667,64.75L32.7678125,71.75L33.00020833333333,70.875L33.23260416666667,93.62499999999999L33.464999999999996,44.625L33.69739583333333,75.25000000000001L33.92979166666667,43.75L34.1621875,63.875L34.39458333333334,70L34.626979166666665,154L34.859375,65.625L35.09177083333333,55.99999999999999L35.32416666666667,70L35.5565625,50.75000000000001L35.78895833333333,64.75L36.02135416666667,78.74999999999999L36.253750000000004,66.5L36.48614583333333,74.37500000000001L36.71854166666666,52.50000000000001L36.9509375,155.75L37.18333333333333,56.87499999999999L37.415729166666665,63.875L37.648125,189.875L37.880520833333335,171.5L38.11291666666666,42.875L38.345312500000006,264.25L38.577708333333334,51.62500000000001L38.81010416666666,163.625L39.042500000000004,46.375L39.27489583333333,77.87499999999999L39.50729166666667,63.875L39.739687499999995,68.25L39.97208333333334,42L40.204479166666665,148.75L40.436875,53.37500000000001L40.669270833333336,49.87500000000001L40.901666666666664,51.62500000000001L41.1340625,52.50000000000001L41.366458333333334,55.99999999999999L41.59885416666667,44.625L41.83125,48.12500000000001L42.06364583333334,56.87499999999999L42.29604166666667,54.25000000000001L42.5284375,149.625L42.76083333333333,38.49999999999999L42.993229166666666,58.62499999999999L43.225625,48.12500000000001L43.45802083333333,59.49999999999999L43.69041666666667,34.99999999999999L43.9228125,38.49999999999999L44.155208333333334,60.37499999999999L44.38760416666667,58.62499999999999L44.62,55.99999999999999L44.85239583333333,51.62500000000001L45.08479166666666,145.25L45.3171875,161L45.54958333333333,58.62499999999999L45.781979166666666,135.625L46.014375,49.00000000000001L46.246770833333336,52.50000000000001L46.479166666666664,65.625L46.7115625,227.5L46.943958333333335,55.99999999999999L47.17635416666666,176.75L47.408750000000005,46.375L47.64114583333333,137.375L47.87354166666667,69.125L48.105937499999996,42L48.33833333333334,34.12499999999999L48.570729166666666,125.12500000000001L48.803124999999994,43.75L49.03552083333334,249.375L49.267916666666665,55.12499999999999L49.5003125,125.12500000000001L49.732708333333335,37.62499999999999L49.96510416666667,49.87500000000001L50.1975,44.625L50.42989583333334,155.75L50.66229166666667,37.62499999999999L50.894687499999996,147L51.12708333333333,38.49999999999999L51.35947916666667,43.75L51.591875,63.875L51.82427083333333,36.74999999999999L52.05666666666667,154.875L52.2890625,40.25L52.52145833333333,43.75L52.75385416666667,63L52.98625,151.375L53.21864583333333,33.24999999999999L53.45104166666667,129.5L53.683437500000004,49.00000000000001L53.91583333333333,43.75L54.14822916666666,133.875L54.380625,45.5L54.61302083333333,142.625L54.845416666666665,43.75L55.0778125,32.37500000000001L55.310208333333335,50.75000000000001L55.54260416666666,30.625000000000007L55.775000000000006,147L56.007395833333334,46.375L56.23979166666666,33.24999999999999L56.472187500000004,42L56.70458333333333,45.5L56.93697916666667,43.75L57.169374999999995,32.37500000000001L57.40177083333334,43.75L57.634166666666665,37.62499999999999L57.8665625,43.75L58.098958333333336,29.750000000000007L58.331354166666664,33.24999999999999L58.56375,238.875L58.796145833333334,44.625L59.02854166666667,140L59.2609375,44.625L59.49333333333334,137.375L59.72572916666667,147L59.958125,33.24999999999999L60.19052083333333,33.24999999999999L60.422916666666666,50.75000000000001L60.6553125,45.5L60.88770833333333,31.500000000000007L61.12010416666667,39.37499999999999L61.3525,134.75L61.584895833333334,41.125L61.81729166666667,34.12499999999999L62.0496875,38.49999999999999L62.28208333333333,49.00000000000001L62.51447916666666,30.625000000000007L62.746875,34.12499999999999L62.97927083333333,49.87500000000001L63.211666666666666,30.625000000000007L63.4440625,49.87500000000001L63.676458333333336,29.750000000000007L63.908854166666664,39.37499999999999L64.14125,41.125L64.37364583333333,30.625000000000007L64.60604166666667,39.37499999999999L64.8384375,125.12500000000001L65.07083333333334,40.25L65.30322916666667,42L65.535625,40.25L65.76802083333334,37.62499999999999L66.00041666666667,30.625000000000007L66.2328125,36.74999999999999L66.46520833333334,29.750000000000007L66.69760416666666,34.12499999999999L66.92999999999999,147.875L67.16239583333333,38.49999999999999L67.39479166666666,42L67.6271875,35.87499999999999L67.85958333333333,235.375L68.09197916666666,46.375L68.324375,30.625000000000007L68.55677083333333,34.12499999999999L68.78916666666667,30.625000000000007L69.0215625,142.625L69.25395833333333,34.99999999999999L69.48635416666667,230.125L69.71875,44.625L69.95114583333334,39.37499999999999L70.18354166666666,32.37500000000001L70.4159375,30.625000000000007L70.64833333333334,42L70.88072916666667,30.625000000000007L71.113125,36.74999999999999L71.34552083333334,39.37499999999999L71.57791666666667,34.12499999999999L71.8103125,28.875000000000007L72.04270833333334,237.125L72.27510416666667,44.625L72.50750000000001,226.625L72.73989583333332,33.24999999999999L72.97229166666666,127.75L73.2046875,39.37499999999999L73.43708333333332,28.875000000000007L73.66947916666666,36.74999999999999L73.901875,35.87499999999999L74.13427083333333,129.5L74.36666666666666,28.875000000000007L74.5990625,143.5L74.83145833333333,48.12500000000001L75.06385416666667,29.750000000000007L75.29625,30.625000000000007L75.52864583333333,30.625000000000007L75.76104166666667,37.62499999999999L75.9934375,329L76.22583333333333,34.99999999999999L76.45822916666667,221.37500000000003L76.69062500000001,28.875000000000007L76.92302083333333,37.62499999999999L77.15541666666667,123.37500000000001L77.38781250000001,28.875000000000007L77.62020833333332,33.24999999999999L77.85260416666667,126.875L78.08500000000001,28.875000000000007L78.31739583333334,35.87499999999999L78.54979166666666,36.74999999999999L78.78218749999999,32.37500000000001L79.01458333333333,30.625000000000007L79.24697916666668,32.37500000000001L79.47937499999999,35.87499999999999L79.71177083333333,126L79.94416666666667,28.875000000000007L80.17656249999999,40.25L80.40895833333333,130.375L80.64135416666667,38.49999999999999L80.87375,30.625000000000007L81.10614583333333,34.12499999999999L81.33854166666667,35.87499999999999L81.5709375,39.37499999999999L81.80333333333333,31.500000000000007L82.03572916666667,28.875000000000007L82.268125,32.37500000000001L82.50052083333334,35.87499999999999L82.73291666666667,42.875L82.9653125,31.500000000000007L83.19770833333334,28.875000000000007L83.43010416666668,28.875000000000007L83.6625,126.875L83.89489583333334,30.625000000000007L84.12729166666668,28.875000000000007L84.35968749999999,30.625000000000007L84.59208333333333,28.875000000000007L84.82447916666666,30.625000000000007L85.056875,28.875000000000007L85.28927083333333,28.875000000000007L85.52166666666666,36.74999999999999L85.7540625,28.875000000000007L85.98645833333333,31.500000000000007L86.21885416666666,135.625L86.45125,28.875000000000007L86.68364583333334,28.875000000000007L86.91604166666666,28.875000000000007L87.1484375,30.625000000000007L87.38083333333334,121.62500000000001L87.61322916666666,227.5L87.845625,126L88.07802083333334,40.25L88.31041666666667,28.875000000000007L88.5428125,34.12499999999999L88.77520833333334,28.875000000000007L89.00760416666667,28.875000000000007L89.24,28.875000000000007L89.47239583333334,28.875000000000007L89.70479166666667,32.37500000000001L89.93718750000001,35.87499999999999L90.16958333333332,42L90.40197916666666,28.875000000000007L90.634375,35.87499999999999L90.86677083333332,28.875000000000007L91.09916666666666,28.875000000000007L91.3315625,127.75L91.56395833333333,32.37500000000001L91.79635416666666,30.625000000000007L92.02875,28.875000000000007L92.26114583333333,30.625000000000007L92.49354166666667,125.12500000000001L92.7259375,124.25L92.95833333333333,28.875000000000007L93.19072916666667,123.37500000000001L93.423125,30.625000000000007L93.65552083333333,33.24999999999999L93.88791666666667,30.625000000000007L94.12031250000001,32.37500000000001L94.35270833333333,30.625000000000007L94.58510416666667,122.49999999999999L94.81750000000001,28.875000000000007L95.04989583333332,116.375L95.28229166666667,30.625000000000007L95.51468750000001,33.24999999999999L95.74708333333334,42.875L95.97947916666666,118.12500000000001L96.21187499999999,124.25L96.44427083333333,30.625000000000007L96.67666666666668,28.875000000000007L96.90906249999999,28.875000000000007L97.14145833333333,30.625000000000007L97.37385416666667,30.625000000000007L97.60624999999999,28.875000000000007L97.83864583333333,211.75L98.07104166666667,28.875000000000007L98.3034375,28.875000000000007L98.53583333333333,33.24999999999999L98.76822916666667,32.37500000000001L99.000625,34.99999999999999L99.23302083333333,28.875000000000007L99.46541666666667,28.875000000000007L99.6978125,28.875000000000007L99.93020833333334,30.625000000000007L100.16260416666667,30.625000000000007L100.395,28.875000000000007L100.62739583333334,28.875000000000007L100.85979166666668,30.625000000000007L101.0921875,34.12499999999999L101.32458333333334,28.875000000000007L101.55697916666668,28.875000000000007L101.78937499999999,28.875000000000007L102.02177083333333,30.625000000000007L102.25416666666666,124.25L102.4865625,122.49999999999999L102.71895833333333,28.875000000000007L102.95135416666666,29.750000000000007L103.18375,28.875000000000007L103.41614583333333,119.87500000000001L103.64854166666666,31.500000000000007L103.8809375,217L104.11333333333334,33.24999999999999L104.34572916666666,130.375L104.578125,32.37500000000001L104.81052083333334,34.99999999999999L105.04291666666666,218.75L105.2753125,31.500000000000007L105.50770833333334,28.875000000000007L105.74010416666667,30.625000000000007L105.9725,28.875000000000007L106.20489583333334,123.37500000000001L106.43729166666667,28.875000000000007L106.6696875,28.875000000000007L106.90208333333334,121.62500000000001L107.13447916666667,28.875000000000007L107.36687500000001,32.37500000000001L107.59927083333332,28.875000000000007L107.83166666666666,36.74999999999999L108.0640625,30.625000000000007L108.29645833333332,30.625000000000007L108.52885416666666,32.37500000000001L108.76125,30.625000000000007L108.99364583333333,30.625000000000007L109.22604166666666,28.875000000000007L109.4584375,213.5L109.69083333333333,30.625000000000007L109.92322916666667,30.625000000000007L110.155625,118.99999999999999L110.38802083333333,119.87500000000001L110.62041666666667,30.625000000000007L110.8528125,28.875000000000007L111.08520833333333,32.37500000000001L111.31760416666667,28.875000000000007L111.55000000000001,30.625000000000007L111.78239583333333,28.875000000000007L112.01479166666667,29.750000000000007L112.24718750000001,32.37500000000001L112.47958333333332,28.875000000000007L112.71197916666667,28.875000000000007L112.94437500000001,28.875000000000007L113.17677083333334,32.37500000000001L113.40916666666666,32.37500000000001L113.64156249999999,119.87500000000001L113.87395833333333,32.37500000000001L114.10635416666668,121.62500000000001L114.33874999999999,28.875000000000007L114.57114583333333,119.87500000000001L114.80354166666667,28.875000000000007L115.03593749999999,119.87500000000001L115.26833333333333,308L115.50072916666667,28.875000000000007L115.733125,29.750000000000007L115.96552083333333,28.875000000000007L116.19791666666667,123.37500000000001L116.4303125,31.500000000000007L116.66270833333333,28.875000000000007L116.89510416666667,31.500000000000007L117.1275,28.875000000000007L117.35989583333334,32.37500000000001L117.59229166666667,28.875000000000007L117.8246875,38.49999999999999L118.05708333333334,28.875000000000007L118.28947916666668,214.37500000000003L118.521875,28.875000000000007L118.75427083333334,119.87500000000001L118.98666666666668,30.625000000000007L119.21906249999999,28.875000000000007L119.45145833333333,28.875000000000007L119.68385416666666,30.625000000000007L119.91625,123.37500000000001L120.14864583333333,28.875000000000007L120.38104166666666,29.750000000000007L120.6134375,30.625000000000007L120.84583333333333,29.750000000000007L121.07822916666666,29.750000000000007L121.310625,126.875L121.54302083333334,32.37500000000001L121.77541666666666,30.625000000000007L122.0078125,123.37500000000001L122.24020833333334,38.49999999999999L122.47260416666666,30.625000000000007L122.705,32.37500000000001L122.93739583333334,28.875000000000007L123.16979166666667,32.37500000000001L123.4021875,28.875000000000007L123.63458333333334,28.875000000000007L123.86697916666667,219.62499999999997L124.099375,29.750000000000007L124.33177083333334,28.875000000000007L124.56416666666667,28.875000000000007L124.79656250000001,34.12499999999999L125.02895833333332,28.875000000000007L125.26135416666666,28.875000000000007L125.49375,127.75L125.72614583333332,32.37500000000001L125.95854166666666,30.625000000000007L126.1909375,28.875000000000007L126.42333333333333,120.74999999999999L126.65572916666666,126.875L126.888125,120.74999999999999L127.12052083333333,28.875000000000007L127.35291666666667,119.87500000000001L127.5853125,30.625000000000007L127.81770833333333,30.625000000000007L128.05010416666667,28.875000000000007L128.2825,217L128.51489583333333,120.74999999999999L128.74729166666665,30.625000000000007L128.9796875,28.875000000000007L129.21208333333334,29.750000000000007L129.44447916666667,118.99999999999999L129.676875,30.625000000000007L129.90927083333332,28.875000000000007L130.14166666666668,30.625000000000007L130.3740625,32.37500000000001L130.60645833333334,126L130.83885416666666,32.37500000000001L131.07125,30.625000000000007L131.30364583333332,30.625000000000007L131.53604166666668,128.625L131.7684375,28.875000000000007L132.00083333333333,28.875000000000007L132.23322916666666,409.5L132.465625,28.875000000000007L132.69802083333335,32.37500000000001L132.93041666666667,124.25L133.1628125,28.875000000000007L133.39520833333333,28.875000000000007L133.62760416666669,28.875000000000007L133.85999999999999,30.625000000000007L134.09239583333334,28.875000000000007L134.32479166666667,28.875000000000007L134.5571875,28.875000000000007L134.78958333333333,212.625L135.02197916666668,30.625000000000007L135.254375,34.12499999999999L135.48677083333334,28.875000000000007L135.71916666666667,304.5L135.9515625,219.62499999999997L136.18395833333332,30.625000000000007L136.41635416666668,116.375L136.64875,28.875000000000007L136.88114583333333,32.37500000000001L137.11354166666666,126L137.3459375,28.875000000000007L137.57833333333335,32.37500000000001L137.81072916666665,34.12499999999999L138.043125,133.875L138.27552083333333,28.875000000000007L138.50791666666666,28.875000000000007L138.7403125,28.875000000000007L138.97270833333334,34.12499999999999L139.20510416666667,28.875000000000007L139.4375,28.875000000000007L139.66989583333333,127.75L139.90229166666668,126.875L140.13468749999998,28.875000000000007L140.3670833333333,28.875000000000007L140.59947916666667,123.37500000000001L140.831875,30.625000000000007L141.06427083333335,28.875000000000007L141.29666666666668,30.625000000000007L141.52906249999998,40.25L141.76145833333334,123.37500000000001L141.99385416666667,34.99999999999999L142.22625,28.875000000000007L142.45864583333335,30.625000000000007L142.69104166666668,28.875000000000007L142.92343749999998,30.625000000000007L143.15583333333333,30.625000000000007L143.38822916666666,28.875000000000007L143.620625,28.875000000000007L143.85302083333335,28.875000000000007L144.08541666666667,28.875000000000007L144.3178125,29.750000000000007L144.55020833333333,31.500000000000007L144.78260416666666,32.37500000000001L145.01500000000001,122.49999999999999L145.24739583333334,130.375L145.47979166666664,28.875000000000007L145.7121875,34.99999999999999L145.94458333333333,28.875000000000007L146.17697916666665,29.750000000000007L146.409375,30.625000000000007L146.64177083333334,28.875000000000007L146.87416666666664,217L147.1065625,32.37500000000001L147.33895833333332,28.875000000000007L147.57135416666668,32.37500000000001L147.80375,28.875000000000007L148.03614583333334,30.625000000000007L148.26854166666666,118.12500000000001L148.5009375,32.37500000000001L148.73333333333332,28.875000000000007L148.96572916666668,28.875000000000007L149.198125,120.74999999999999L149.43052083333336,126.875L149.66291666666666,30.625000000000007L149.8953125,30.625000000000007L150.12770833333335,129.5L150.36010416666667,28.875000000000007L150.5925,32.37500000000001L150.82489583333336,30.625000000000007L151.05729166666666,30.625000000000007L151.28968749999999,210L151.52208333333334,28.875000000000007L151.75447916666667,32.37500000000001L151.986875,30.625000000000007L152.21927083333333,28.875000000000007L152.45166666666665,28.875000000000007L152.6840625,30.625000000000007L152.91645833333334,28.875000000000007L153.14885416666667,313.25L153.38125000000002,30.625000000000007L153.61364583333332,32.37500000000001L153.84604166666665,313.25L154.0784375,28.875000000000007L154.31083333333333,126.875L154.54322916666666,32.37500000000001L154.77562500000002,32.37500000000001L155.00802083333332,28.875000000000007L155.24041666666665,30.625000000000007L155.4728125,28.875000000000007L155.70520833333333,31.500000000000007L155.9376041666667,35.87499999999999L156.17000000000002,119.87500000000001L156.40239583333332,122.49999999999999L156.63479166666667,122.49999999999999L156.8671875,30.625000000000007L157.09958333333333,30.625000000000007L157.33197916666668,28.875000000000007L157.56437499999998,33.24999999999999L157.7967708333333,28.875000000000007L158.02916666666667,121.62500000000001L158.2615625,34.12499999999999L158.49395833333335,28.875000000000007L158.72635416666668,32.37500000000001L158.95874999999998,28.875000000000007L159.19114583333334,39.37499999999999L159.42354166666667,33.24999999999999L159.6559375,211.75L159.88833333333335,119.87500000000001L160.12072916666668,30.625000000000007L160.35312499999998,30.625000000000007L160.58552083333333,28.875000000000007L160.81791666666666,28.875000000000007L161.0503125,32.37500000000001L161.28270833333335,127.75L161.51510416666667,30.625000000000007L161.7475,122.49999999999999L161.97989583333333,30.625000000000007L162.21229166666666,124.25L162.44468750000001,229.25L162.67708333333334,30.625000000000007L162.90947916666664,30.625000000000007L163.141875,32.37500000000001L163.37427083333333,28.875000000000007L163.60666666666665,32.37500000000001L163.8390625,28.875000000000007L164.07145833333334,34.99999999999999L164.30385416666664,30.625000000000007L164.53625,120.74999999999999L164.76864583333332,124.25L165.00104166666668,35.87499999999999L165.2334375,32.37500000000001L165.46583333333334,28.875000000000007L165.69822916666666,28.875000000000007L165.930625,28.875000000000007L166.16302083333332,30.625000000000007L166.39541666666668,29.750000000000007L166.6278125,212.625L166.86020833333336,494.37500000000006L167.09260416666666,29.750000000000007L167.325,121.62500000000001L167.55739583333335,30.625000000000007L167.78979166666667,28.875000000000007L168.0221875,31.500000000000007L168.25458333333336,30.625000000000007L168.48697916666666,32.37500000000001L168.71937499999999,28.875000000000007L168.95177083333334,28.875000000000007L169.18416666666667,119.87500000000001L169.4165625,30.625000000000007L169.64895833333333,29.750000000000007L169.88135416666665,34.12499999999999L170.11375,28.875000000000007L170.34614583333334,28.875000000000007L170.57854166666667,31.500000000000007L170.81093750000002,122.49999999999999L171.04333333333332,28.875000000000007L171.27572916666665,32.37500000000001L171.508125,28.875000000000007L171.74052083333333,30.625000000000007L171.97291666666666,118.12500000000001L172.20531250000002,28.875000000000007L172.43770833333332,28.875000000000007L172.67010416666665,28.875000000000007L172.9025,30.625000000000007L173.13489583333333,30.625000000000007L173.3672916666667,28.875000000000007L173.59968750000002,118.12500000000001L173.83208333333332,30.625000000000007L174.06447916666667,28.875000000000007L174.296875,28.875000000000007L174.52927083333333,35.87499999999999L174.76166666666668,31.500000000000007L174.99406249999998,29.750000000000007L175.2264583333333,129.5L175.45885416666667,30.625000000000007L175.69125,116.375L175.92364583333335,28.875000000000007L176.15604166666668,118.12500000000001L176.38843749999998,123.37500000000001L176.62083333333334,118.99999999999999L176.85322916666667,30.625000000000007L177.085625,30.625000000000007L177.31802083333335,120.74999999999999L177.55041666666668,31.500000000000007L177.78281249999998,28.875000000000007L178.01520833333333,28.875000000000007L178.24760416666666,28.875000000000007L178.48,28.875000000000007L178.71239583333335,28.875000000000007L178.94479166666667,28.875000000000007L179.1771875,30.625000000000007L179.40958333333333,30.625000000000007L179.64197916666666,29.750000000000007L179.87437500000001,125.12500000000001L180.10677083333334,32.37500000000001L180.33916666666664,36.74999999999999L180.5715625,28.875000000000007L180.80395833333333,28.875000000000007L181.03635416666665,30.625000000000007L181.26875,30.625000000000007L181.50114583333334,28.875000000000007L181.73354166666664,32.37500000000001L181.9659375,32.37500000000001L182.19833333333332,28.875000000000007L182.43072916666668,126L182.663125,33.24999999999999L182.89552083333334,31.500000000000007L183.12791666666666,29.750000000000007L183.3603125,29.750000000000007L183.59270833333332,28.875000000000007L183.82510416666668,30.625000000000007L184.0575,28.875000000000007L184.28989583333336,32.37500000000001L184.52229166666666,30.625000000000007L184.7546875,28.875000000000007L184.98708333333335,32.37500000000001L185.21947916666667,29.750000000000007L185.451875,118.12500000000001L185.68427083333336,28.875000000000007L185.91666666666666,30.625000000000007L186.14906249999999,30.625000000000007L186.38145833333334,119.87500000000001L186.61385416666667,31.500000000000007L186.84625,32.37500000000001L187.07864583333333,32.37500000000001L187.31104166666665,30.625000000000007L187.5434375,28.875000000000007L187.77583333333334,28.875000000000007L188.00822916666667,32.37500000000001L188.24062500000002,32.37500000000001L188.47302083333332,30.625000000000007L188.70541666666665,118.12500000000001L188.9378125,28.875000000000007L189.17020833333333,34.99999999999999L189.40260416666666,30.625000000000007L189.63500000000002,29.750000000000007L189.86739583333332,28.875000000000007L190.09979166666665,30.625000000000007L190.3321875,30.625000000000007L190.56458333333333,37.62499999999999L190.7969791666667,28.875000000000007L191.02937500000002,35.87499999999999L191.26177083333332,28.875000000000007L191.49416666666667,121.62500000000001L191.7265625,30.625000000000007L191.95895833333333,30.625000000000007L192.19135416666668,28.875000000000007L192.42374999999998,222.25L192.6561458333333,34.12499999999999L192.88854166666667,28.875000000000007L193.1209375,30.625000000000007L193.35333333333335,30.625000000000007L193.58572916666668,28.875000000000007L193.81812499999998,30.625000000000007L194.05052083333334,116.375L194.28291666666667,28.875000000000007L194.5153125,125.12500000000001L194.74770833333335,212.625L194.98010416666668,119.87500000000001L195.21249999999998,30.625000000000007L195.44489583333333,28.875000000000007L195.67729166666666,119.87500000000001L195.9096875,29.750000000000007L196.14208333333335,34.12499999999999L196.37447916666667,30.625000000000007L196.606875,28.875000000000007L196.83927083333333,28.875000000000007L197.07166666666666,315L197.30406250000001,35.87499999999999L197.53645833333334,28.875000000000007L197.76885416666664,28.875000000000007L198.00125,32.37500000000001L198.23364583333333,30.625000000000007L198.46604166666665,31.500000000000007L198.6984375,30.625000000000007L198.93083333333334,34.12499999999999L199.16322916666664,28.875000000000007L199.395625,28.875000000000007L199.62802083333332,33.24999999999999L199.86041666666668,126L200.0928125,33.24999999999999L200.32520833333334,32.37500000000001L200.55760416666666,116.375L200.79,28.875000000000007L201.02239583333332,28.875000000000007L201.25479166666668,28.875000000000007L201.4871875,28.875000000000007L201.71958333333336,28.875000000000007L201.95197916666666,28.875000000000007L202.184375,28.875000000000007L202.41677083333335,33.24999999999999L202.64916666666667,216.12499999999997L202.8815625,28.875000000000007L203.11395833333336,30.625000000000007L203.34635416666666,34.99999999999999L203.57874999999999,37.62499999999999L203.81114583333334,28.875000000000007L204.04354166666667,28.875000000000007L204.2759375,34.99999999999999L204.50833333333333,30.625000000000007L204.74072916666665,29.750000000000007L204.973125,120.74999999999999L205.20552083333334,28.875000000000007L205.43791666666667,127.75L205.67031250000002,28.875000000000007L205.90270833333332,30.625000000000007L206.13510416666665,28.875000000000007L206.3675,28.875000000000007L206.59989583333333,28.875000000000007L206.83229166666666,28.875000000000007L207.06468750000002,126L207.29708333333332,29.750000000000007L207.52947916666665,118.99999999999999L207.761875,32.37500000000001L207.99427083333333,33.24999999999999L208.2266666666667,30.625000000000007L208.45906250000002,403.37499999999994L208.69145833333332,31.500000000000007L208.92385416666667,28.875000000000007L209.15625,36.74999999999999L209.38864583333333,121.62500000000001L209.62104166666668,28.875000000000007L209.85343749999998,30.625000000000007L210.0858333333333,28.875000000000007L210.31822916666667,28.875000000000007L210.550625,32.37500000000001L210.78302083333335,28.875000000000007L211.01541666666668,28.875000000000007L211.24781249999998,28.875000000000007L211.48020833333334,28.875000000000007L211.71260416666667,28.875000000000007L211.945,34.12499999999999L212.17739583333335,28.875000000000007L212.40979166666668,28.875000000000007L212.64218749999998,28.875000000000007L212.87458333333333,30.625000000000007L213.10697916666666,298.375L213.339375,29.750000000000007L213.57177083333335,315L213.80416666666667,119.87500000000001L214.0365625,28.875000000000007L214.26895833333333,30.625000000000007L214.50135416666666,118.99999999999999L214.73375000000001,31.500000000000007L214.96614583333334,122.49999999999999L215.19854166666664,320.25L215.4309375,28.875000000000007L215.66333333333333,28.875000000000007L215.89572916666665,125.12500000000001L216.128125,32.37500000000001L216.36052083333334,30.625000000000007L216.59291666666664,28.875000000000007L216.8253125,30.625000000000007L217.05770833333332,30.625000000000007L217.29010416666668,34.12499999999999L217.5225,28.875000000000007L217.75489583333334,28.875000000000007L217.98729166666666,28.875000000000007L218.2196875,28.875000000000007L218.45208333333332,123.37500000000001L218.68447916666668,121.62500000000001L218.916875,30.625000000000007L219.14927083333336,116.375L219.38166666666666,29.750000000000007L219.6140625,30.625000000000007L219.84645833333335,29.750000000000007L220.07885416666667,28.875000000000007L220.31125,28.875000000000007L220.54364583333336,28.875000000000007L220.77604166666666,28.875000000000007L221.00843749999999,28.875000000000007L221.24083333333334,28.875000000000007L221.47322916666667,28.875000000000007L221.705625,30.625000000000007L221.93802083333333,30.625000000000007L222.17041666666665,28.875000000000007L222.4028125,123.37500000000001L222.63520833333334,34.12499999999999L222.86760416666667,28.875000000000007L223.10000000000002,29.750000000000007L223.33239583333332,302.75L223.56479166666665,225.75L223.7971875,28.875000000000007L224.02958333333333,31.500000000000007L224.26197916666666,31.500000000000007L224.49437500000002,125.12500000000001L224.72677083333332,28.875000000000007L224.95916666666665,29.750000000000007L225.1915625,28.875000000000007L225.42395833333333,28.875000000000007L225.6563541666667,28.875000000000007L225.88875000000002,28.875000000000007L226.12114583333332,30.625000000000007L226.35354166666667,212.625L226.5859375,32.37500000000001L226.81833333333333,126L227.05072916666668,122.49999999999999L227.28312499999998,28.875000000000007L227.5155208333333,35.87499999999999L227.74791666666667,30.625000000000007L227.9803125,30.625000000000007L228.21270833333335,28.875000000000007L228.44510416666668,30.625000000000007L228.67749999999998,28.875000000000007L228.90989583333334,32.37500000000001L229.14229166666667,124.25L229.3746875,28.875000000000007L229.60708333333335,28.875000000000007L229.83947916666668,30.625000000000007L230.07187499999998,119.87500000000001L230.30427083333333,30.625000000000007L230.53666666666666,28.875000000000007L230.7690625,32.37500000000001L231.00145833333335,28.875000000000007L231.23385416666667,30.625000000000007L231.46625,28.875000000000007L231.69864583333333,224.875L231.93104166666666,28.875000000000007L232.16343750000001,32.37500000000001L232.39583333333334,125.12500000000001L232.62822916666664,213.5L232.860625,28.875000000000007L233.09302083333333,28.875000000000007L233.32541666666665,30.625000000000007L233.5578125,125.12500000000001L233.79020833333334,36.74999999999999L234.02260416666664,28.875000000000007L234.255,28.875000000000007L234.48739583333332,118.12500000000001L234.71979166666668,28.875000000000007L234.9521875,30.625000000000007L235.18458333333334,28.875000000000007L235.41697916666666,212.625L235.649375,28.875000000000007L235.88177083333332,217L236.11416666666668,42.875L236.3465625,34.12499999999999L236.57895833333336,123.37500000000001L236.81135416666666,125.12500000000001L237.04375,126L237.27614583333335,30.625000000000007L237.50854166666667,30.625000000000007L237.7409375,127.75L237.97333333333336,36.74999999999999L238.20572916666666,28.875000000000007L238.43812499999999,133.875L238.67052083333334,30.625000000000007L238.90291666666667,30.625000000000007L239.1353125,33.24999999999999L239.36770833333333,28.875000000000007L239.60010416666665,30.625000000000007L239.8325,28.875000000000007L240.06489583333334,28.875000000000007L240.29729166666667,28.875000000000007L240.52968750000002,32.37500000000001L240.76208333333332,30.625000000000007L240.99447916666665,28.875000000000007L241.226875,40.25L241.45927083333333,28.875000000000007L241.69166666666666,30.625000000000007L241.92406250000002,28.875000000000007L242.15645833333332,28.875000000000007L242.38885416666665,30.625000000000007L242.62125,30.625000000000007L242.85364583333333,28.875000000000007L243.0860416666667,28.875000000000007L243.31843750000002,28.875000000000007L243.55083333333332,28.875000000000007L243.78322916666667,30.625000000000007L244.015625,35.87499999999999L244.24802083333333,29.750000000000007L244.48041666666668,28.875000000000007L244.71281249999998,30.625000000000007L244.9452083333333,118.12500000000001L245.17760416666667,203.875L245.41,28.875000000000007L245.64239583333335,118.12500000000001L245.87479166666668,28.875000000000007L246.10718749999998,32.37500000000001L246.33958333333334,28.875000000000007L246.57197916666667,28.875000000000007L246.804375,28.875000000000007L247.03677083333335,28.875000000000007L247.26916666666668,133.875L247.50156249999998,28.875000000000007L247.73395833333333,29.750000000000007L247.96635416666666,31.500000000000007L248.19875,28.875000000000007L248.43114583333335,28.875000000000007L248.66354166666667,28.875000000000007L248.8959375,30.625000000000007L249.12833333333333,28.875000000000007L249.36072916666666,120.74999999999999L249.59312500000001,125.12500000000001L249.82552083333334,28.875000000000007L250.05791666666664,30.625000000000007L250.2903125,30.625000000000007L250.52270833333333,32.37500000000001L250.75510416666665,28.875000000000007L250.9875,124.25L251.21989583333334,28.875000000000007L251.45229166666664,30.625000000000007L251.6846875,120.74999999999999L251.91708333333332,121.62500000000001L252.14947916666668,30.625000000000007L252.381875,35.87499999999999L252.61427083333334,216.12499999999997L252.84666666666666,30.625000000000007L253.0790625,122.49999999999999L253.31145833333332,30.625000000000007L253.54385416666668,30.625000000000007L253.77625,28.875000000000007L254.00864583333336,28.875000000000007L254.24104166666666,129.5L254.4734375,28.875000000000007L254.70583333333335,216.12499999999997L254.93822916666667,30.625000000000007L255.170625,122.49999999999999L255.40302083333336,139.125" style="fill: none;" fill="none"></path></g></g></g></g></g></g><g transform="translate(51, 175)" clip-path="url(#clip_1)"><clipPath id="clip_1"><rect width="278" height="25"></rect></clipPath><g><g><line x1="0" y1="0" x2="0" y2="5" style="visibility: inherit;" fill="rgb(0, 0, 0)" stroke="rgb(204, 204, 204)" stroke-width="1px"></line><line x1="23.239583333333332" y1="0" x2="23.239583333333332" y2="5" style="visibility: inherit;" fill="rgb(0, 0, 0)" stroke="rgb(204, 204, 204)" stroke-width="1px"></line><line x1="46.479166666666664" y1="0" x2="46.479166666666664" y2="5" style="visibility: inherit;" fill="rgb(0, 0, 0)" stroke="rgb(204, 204, 204)" stroke-width="1px"></line><line x1="69.71875" y1="0" x2="69.71875" y2="5" style="visibility: inherit;" fill="rgb(0, 0, 0)" stroke="rgb(204, 204, 204)" stroke-width="1px"></line><line x1="92.95833333333333" y1="0" x2="92.95833333333333" y2="5" style="visibility: inherit;" fill="rgb(0, 0, 0)" stroke="rgb(204, 204, 204)" stroke-width="1px"></line><line x1="116.19791666666667" y1="0" x2="116.19791666666667" y2="5" style="visibility: inherit;" fill="rgb(0, 0, 0)" stroke="rgb(204, 204, 204)" stroke-width="1px"></line><line x1="139.4375" y1="0" x2="139.4375" y2="5" style="visibility: inherit;" fill="rgb(0, 0, 0)" stroke="rgb(204, 204, 204)" stroke-width="1px"></line><line x1="162.67708333333334" y1="0" x2="162.67708333333334" y2="5" style="visibility: inherit;" fill="rgb(0, 0, 0)" stroke="rgb(204, 204, 204)" stroke-width="1px"></line><line x1="185.91666666666666" y1="0" x2="185.91666666666666" y2="5" style="visibility: inherit;" fill="rgb(0, 0, 0)" stroke="rgb(204, 204, 204)" stroke-width="1px"></line><line x1="209.15625" y1="0" x2="209.15625" y2="5" style="visibility: inherit;" fill="rgb(0, 0, 0)" stroke="rgb(204, 204, 204)" stroke-width="1px"></line><line x1="232.39583333333334" y1="0" x2="232.39583333333334" y2="5" style="visibility: inherit;" fill="rgb(0, 0, 0)" stroke="rgb(204, 204, 204)" stroke-width="1px"></line><line x1="255.63541666666666" y1="0" x2="255.63541666666666" y2="5" style="visibility: inherit;" fill="rgb(0, 0, 0)" stroke="rgb(204, 204, 204)" stroke-width="1px"></line><line x1="278.875" y1="0" x2="278.875" y2="5" style="visibility: inherit;" fill="rgb(0, 0, 0)" stroke="rgb(204, 204, 204)" stroke-width="1px"></line></g><g transform="translate(0, 8)"><text x="0" y="0" dx="0em" dy="0.95em" style="text-anchor: middle; visibility: hidden; font-family: Roboto, sans-serif; font-size: 12px; font-weight: 200;" fill="rgb(50, 49, 63)" stroke="none" stroke-width="1px">-100</text><text x="23.239583333333332" y="0" dx="0em" dy="0.95em" style="text-anchor: middle; visibility: inherit; font-family: Roboto, sans-serif; font-size: 12px; font-weight: 200;" fill="rgb(50, 49, 63)" stroke="none" stroke-width="1px">0</text><text x="46.479166666666664" y="0" dx="0em" dy="0.95em" style="text-anchor: middle; visibility: hidden; font-family: Roboto, sans-serif; font-size: 12px; font-weight: 200;" fill="rgb(50, 49, 63)" stroke="none" stroke-width="1px">100</text><text x="69.71875" y="0" dx="0em" dy="0.95em" style="text-anchor: middle; visibility: inherit; font-family: Roboto, sans-serif; font-size: 12px; font-weight: 200;" fill="rgb(50, 49, 63)" stroke="none" stroke-width="1px">200</text><text x="92.95833333333333" y="0" dx="0em" dy="0.95em" style="text-anchor: middle; visibility: hidden; font-family: Roboto, sans-serif; font-size: 12px; font-weight: 200;" fill="rgb(50, 49, 63)" stroke="none" stroke-width="1px">300</text><text x="116.19791666666667" y="0" dx="0em" dy="0.95em" style="text-anchor: middle; visibility: inherit; font-family: Roboto, sans-serif; font-size: 12px; font-weight: 200;" fill="rgb(50, 49, 63)" stroke="none" stroke-width="1px">400</text><text x="139.4375" y="0" dx="0em" dy="0.95em" style="text-anchor: middle; visibility: hidden; font-family: Roboto, sans-serif; font-size: 12px; font-weight: 200;" fill="rgb(50, 49, 63)" stroke="none" stroke-width="1px">500</text><text x="162.67708333333334" y="0" dx="0em" dy="0.95em" style="text-anchor: middle; visibility: inherit; font-family: Roboto, sans-serif; font-size: 12px; font-weight: 200;" fill="rgb(50, 49, 63)" stroke="none" stroke-width="1px">600</text><text x="185.91666666666666" y="0" dx="0em" dy="0.95em" style="text-anchor: middle; visibility: hidden; font-family: Roboto, sans-serif; font-size: 12px; font-weight: 200;" fill="rgb(50, 49, 63)" stroke="none" stroke-width="1px">700</text><text x="209.15625" y="0" dx="0em" dy="0.95em" style="text-anchor: middle; visibility: inherit; font-family: Roboto, sans-serif; font-size: 12px; font-weight: 200;" fill="rgb(50, 49, 63)" stroke="none" stroke-width="1px">800</text><text x="232.39583333333334" y="0" dx="0em" dy="0.95em" style="text-anchor: middle; visibility: hidden; font-family: Roboto, sans-serif; font-size: 12px; font-weight: 200;" fill="rgb(50, 49, 63)" stroke="none" stroke-width="1px">900</text><text x="255.63541666666666" y="0" dx="0em" dy="0.95em" style="text-anchor: middle; visibility: inherit; font-family: Roboto, sans-serif; font-size: 12px; font-weight: 200;" fill="rgb(50, 49, 63)" stroke="none" stroke-width="1px">1k</text><text x="278.875" y="0" dx="0em" dy="0.95em" style="text-anchor: middle; visibility: hidden; font-family: Roboto, sans-serif; font-size: 12px; font-weight: 200;" fill="rgb(50, 49, 63)" stroke="none" stroke-width="1px">1.1k</text></g><line x1="0" y1="0" x2="278.875" y2="0" fill="rgb(0, 0, 0)" stroke="rgb(204, 204, 204)" stroke-width="1px"></line></g></g></g></g></svg>