<svg viewBox="0 0 330 200" xmlns="http://www.w3.org/2000/svg"><g><g><g><g><g><line x1="51.5625" y1="178" x2="46.5625" y2="178" style="visibility: inherit;" fill="rgb(0, 0, 0)" stroke="rgb(204, 204, 204)" stroke-width="1px"></line><line x1="51.5625" y1="161.8181818181818" x2="46.5625" y2="161.8181818181818" style="visibility: inherit;" fill="rgb(0, 0, 0)" stroke="rgb(204, 204, 204)" stroke-width="1px"></line><line x1="51.5625" y1="145.63636363636363" x2="46.5625" y2="145.63636363636363" style="visibility: inherit;" fill="rgb(0, 0, 0)" stroke="rgb(204, 204, 204)" stroke-width="1px"></line><line x1="51.5625" y1="129.45454545454547" x2="46.5625" y2="129.45454545454547" style="visibility: inherit;" fill="rgb(0, 0, 0)" stroke="rgb(204, 204, 204)" stroke-width="1px"></line><line x1="51.5625" y1="113.27272727272727" x2="46.5625" y2="113.27272727272727" style="visibility: inherit;" fill="rgb(0, 0, 0)" stroke="rgb(204, 204, 204)" stroke-width="1px"></line><line x1="51.5625" y1="97.09090909090908" x2="46.5625" y2="97.09090909090908" style="visibility: inherit;" fill="rgb(0, 0, 0)" stroke="rgb(204, 204, 204)" stroke-width="1px"></line><line x1="51.5625" y1="80.90909090909092" x2="46.5625" y2="80.90909090909092" style="visibility: inherit;" fill="rgb(0, 0, 0)" stroke="rgb(204, 204, 204)" stroke-width="1px"></line><line x1="51.5625" y1="64.72727272727273" x2="46.5625" y2="64.72727272727273" style="visibility: inherit;" fill="rgb(0, 0, 0)" stroke="rgb(204, 204, 204)" stroke-width="1px"></line><line x1="51.5625" y1="48.54545454545454" x2="46.5625" y2="48.54545454545454" style="visibility: inherit;" fill="rgb(0, 0, 0)" stroke="rgb(204, 204, 204)" stroke-width="1px"></line><line x1="51.5625" y1="32.36363636363635" x2="46.5625" y2="32.36363636363635" style="visibility: inherit;" fill="rgb(0, 0, 0)" stroke="rgb(204, 204, 204)" stroke-width="1px"></line><line x1="51.5625" y1="16.181818181818187" x2="46.5625" y2="16.181818181818187" style="visibility: inherit;" fill="rgb(0, 0, 0)" stroke="rgb(204, 204, 204)" stroke-width="1px"></line><line x1="51.5625" y1="0" x2="46.5625" y2="0" style="visibility: inherit;" fill="rgb(0, 0, 0)" stroke="rgb(204, 204, 204)" stroke-width="1px"></line></g><g transform="translate(41.5625, 0)"><text x="0" y="178" dx="0em" dy="0.3em" style="text-anchor: end; visibility: hidden; font-family: Roboto, sans-serif; font-size: 12px; font-weight: 200;" fill="rgb(50, 49, 63)" stroke="none" stroke-width="1px">-110</text><text x="0" y="161.8181818181818" dx="0em" dy="0.3em" style="text-anchor: end; visibility: inherit; font-family: Roboto, sans-serif; font-size: 12px; font-weight: 200;" fill="rgb(50, 49, 63)" stroke="none" stroke-width="1px">-100</text><text x="0" y="145.63636363636363" dx="0em" dy="0.3em" style="text-anchor: end; visibility: hidden; font-family: Roboto, sans-serif; font-size: 12px; font-weight: 200;" fill="rgb(50, 49, 63)" stroke="none" stroke-width="1px">-90</text><text x="0" y="129.45454545454547" dx="0em" dy="0.3em" style="text-anchor: end; visibility: inherit; font-family: Roboto, sans-serif; font-size: 12px; font-weight: 200;" fill="rgb(50, 49, 63)" stroke="none" stroke-width="1px">-80</text><text x="0" y="113.27272727272727" dx="0em" dy="0.3em" style="text-anchor: end; visibility: hidden; font-family: Roboto, sans-serif; font-size: 12px; font-weight: 200;" fill="rgb(50, 49, 63)" stroke="none" stroke-width="1px">-70</text><text x="0" y="97.09090909090908" dx="0em" dy="0.3em" style="text-anchor: end; visibility: inherit; font-family: Roboto, sans-serif; font-size: 12px; font-weight: 200;" fill="rgb(50, 49, 63)" stroke="none" stroke-width="1px">-60</text><text x="0" y="80.90909090909092" dx="0em" dy="0.3em" style="text-anchor: end; visibility: hidden; font-family: Roboto, sans-serif; font-size: 12px; font-weight: 200;" fill="rgb(50, 49, 63)" stroke="none" stroke-width="1px">-50</text><text x="0" y="64.72727272727273" dx="0em" dy="0.3em" style="text-anchor: end; visibility: inherit; font-family: Roboto, sans-serif; font-size: 12px; font-weight: 200;" fill="rgb(50, 49, 63)" stroke="none" stroke-width="1px">-40</text><text x="0" y="48.54545454545454" dx="0em" dy="0.3em" style="text-anchor: end; visibility: hidden; font-family: Roboto, sans-serif; font-size: 12px; font-weight: 200;" fill="rgb(50, 49, 63)" stroke="none" stroke-width="1px">-30</text><text x="0" y="32.36363636363635" dx="0em" dy="0.3em" style="text-anchor: end; visibility: inherit; font-family: Roboto, sans-serif; font-size: 12px; font-weight: 200;" fill="rgb(50, 49, 63)" stroke="none" stroke-width="1px">-20</text><text x="0" y="16.181818181818187" dx="0em" dy="0.3em" style="text-anchor: end; visibility: hidden; font-family: Roboto, sans-serif; font-size: 12px; font-weight: 200;" fill="rgb(50, 49, 63)" stroke="none" stroke-width="1px">-10</text><text x="0" y="0" dx="0em" dy="0.3em" style="text-anchor: end; visibility: hidden; font-family: Roboto, sans-serif; font-size: 12px; font-weight: 200;" fill="rgb(50, 49, 63)" stroke="none" stroke-width="1px">0</text></g><line x1="51.5625" y1="0" x2="51.5625" y2="178" fill="rgb(0, 0, 0)" stroke="rgb(204, 204, 204)" stroke-width="1px"></line></g></g><g transform="translate(51, 0)" clip-path="url(#clip_0)"><clipPath id="clip_0"><rect width="278" height="178"></rect></clipPath><g><g><g><line x1="0" y1="0" x2="0" y2="178" fill="rgb(0, 0, 0)" stroke="rgb(60, 60, 60)" stroke-width="1px" opacity="0.25"></line><line x1="23.203125" y1="0" x2="23.203125" y2="178" fill="rgb(0, 0, 0)" stroke="rgb(60, 60, 60)" stroke-width="1px" opacity="0.25"></line><line x1="46.40625" y1="0" x2="46.40625" y2="178" fill="rgb(0, 0, 0)" stroke="rgb(60, 60, 60)" stroke-width="1px" opacity="0.25"></line><line x1="69.609375" y1="0" x2="69.609375" y2="178" fill="rgb(0, 0, 0)" stroke="rgb(60, 60, 60)" stroke-width="1px" opacity="0.25"></line><line x1="92.8125" y1="0" x2="92.8125" y2="178" fill="rgb(0, 0, 0)" stroke="rgb(60, 60, 60)" stroke-width="1px" opacity="0.25"></line><line x1="116.015625" y1="0" x2="116.015625" y2="178" fill="rgb(0, 0, 0)" stroke="rgb(60, 60, 60)" stroke-width="1px" opacity="0.25"></line><line x1="139.21875" y1="0" x2="139.21875" y2="178" fill="rgb(0, 0, 0)" stroke="rgb(60, 60, 60)" stroke-width="1px" opacity="0.25"></line><line x1="162.421875" y1="0" x2="162.421875" y2="178" fill="rgb(0, 0, 0)" stroke="rgb(60, 60, 60)" stroke-width="1px" opacity="0.25"></line><line x1="185.625" y1="0" x2="185.625" y2="178" fill="rgb(0, 0, 0)" stroke="rgb(60, 60, 60)" stroke-width="1px" opacity="0.25"></line><line x1="208.828125" y1="0" x2="208.828125" y2="178" fill="rgb(0, 0, 0)" stroke="rgb(60, 60, 60)" stroke-width="1px" opacity="0.25"></line><line x1="232.03125" y1="0" x2="232.03125" y2="178" fill="rgb(0, 0, 0)" stroke="rgb(60, 60, 60)" stroke-width="1px" opacity="0.25"></line><line x1="255.234375" y1="0" x2="255.234375" y2="178" fill="rgb(0, 0, 0)" stroke="rgb(60, 60, 60)" stroke-width="1px" opacity="0.25"></line><line x1="278.4375" y1="0" x2="278.4375" y2="178" fill="rgb(0, 0, 0)" stroke="rgb(60, 60, 60)" stroke-width="1px" opacity="0.25"></line></g><g><line x1="0" y1="178" x2="278.4375" y2="178" fill="rgb(0, 0, 0)" stroke="rgb(60, 60, 60)" stroke-width="1px" opacity="0.25"></line><line x1="0" y1="161.8181818181818" x2="278.4375" y2="161.8181818181818" fill="rgb(0, 0, 0)" stroke="rgb(60, 60, 60)" stroke-width="1px" opacity="0.25"></line><line x1="0" y1="145.63636363636363" x2="278.4375" y2="145.63636363636363" fill="rgb(0, 0, 0)" stroke="rgb(60, 60, 60)" stroke-width="1px" opacity="0.25"></line><line x1="0" y1="129.45454545454547" x2="278.4375" y2="129.45454545454547" fill="rgb(0, 0, 0)" stroke="rgb(60, 60, 60)" stroke-width="1px" opacity="0.25"></line><line x1="0" y1="113.27272727272727" x2="278.4375" y2="113.27272727272727" fill="rgb(0, 0, 0)" stroke="rgb(60, 60, 60)" stroke-width="1px" opacity="0.25"></line><line x1="0" y1="97.09090909090908" x2="278.4375" y2="97.09090909090908" fill="rgb(0, 0, 0)" stroke="rgb(60, 60, 60)" stroke-width="1px" opacity="0.25"></line><line x1="0" y1="80.90909090909092" x2="278.4375" y2="80.90909090909092" fill="rgb(0, 0, 0)" stroke="rgb(60, 60, 60)" stroke-width="1px" opacity="0.25"></line><line x1="0" y1="64.72727272727273" x2="278.4375" y2="64.72727272727273" fill="rgb(0, 0, 0)" stroke="rgb(60, 60, 60)" stroke-width="1px" opacity="0.25"></line><line x1="0" y1="48.54545454545454" x2="278.4375" y2="48.54545454545454" fill="rgb(0, 0, 0)" stroke="rgb(60, 60, 60)" stroke-width="1px" opacity="0.25"></line><line x1="0" y1="32.36363636363635" x2="278.4375" y2="32.36363636363635" fill="rgb(0, 0, 0)" stroke="rgb(60, 60, 60)" stroke-width="1px" opacity="0.25"></line><line x1="0" y1="16.181818181818187" x2="278.4375" y2="16.181818181818187" fill="rgb(0, 0, 0)" stroke="rgb(60, 60, 60)" stroke-width="1px" opacity="0.25"></line><line x1="0" y1="0" x2="278.4375" y2="0" fill="rgb(0, 0, 0)" stroke="rgb(60, 60, 60)" stroke-width="1px" opacity="0.25"></line></g></g></g><g><g><line x1="0" y1="0" x2="278.4375" y2="0" fill="rgb(0, 0, 0)" stroke="rgb(153, 153, 153)" stroke-width="1.5px"></line></g></g><g><g><line x1="23.203125" y1="0" x2="23.203125" y2="178" fill="rgb(0, 0, 0)" stroke="rgb(153, 153, 153)" stroke-width="1.5px"></line></g></g><g><g><g><g><g><path stroke="rgb(255, 112, 67)" stroke-width="2px" d="M26.683593750000004,220.25743975909873L26.915625,161.2717522762906L27.14765625,151.1329307584094L27.3796875,315.94071026852214L28.07578125,225.01145113705377L28.3078125,162.83910696116718L28.53984375,258.8748283214793L28.771875,226.52480502083955L29.00390625,177.34025365810055L29.2359375,164.01141128019128L29.46796875,141.77410583958672L29.700000000000003,140.08264469870394L29.932031249999998,127.41685674641971L30.1640625,141.8246614135112L30.39609375,211.96025697541566L30.628125,178.9579707911435L30.860156250000003,142.32750869790738L31.092187499999998,133.29468688164565L31.32421875,202.95863102934908L32.9484375,188.38958706392205L33.18046875,146.69193404931121L33.4125,166.98243315896858L33.64453125,123.49127807448691L33.8765625,107.75294866228505L34.10859375,92.48449646975547L34.340625,100.79978879105622L34.57265625,88.31260054726006L34.8046875,159.78756032870265L35.03671875,115.93799074254855L35.268750000000004,95.45370353640247L35.50078125,94.81404030365898L35.7328125,153.97933327314166L35.96484375000001,261.3257817821073L36.660937499999996,195.661787046748L36.89296875,143.9352540462281L37.125,133.61206151864565L37.35703125,111.88360054755064L37.589062500000004,85.9010694194392L37.82109375,157.04609619711852L38.053124999999994,114.2931122637255L38.28515625,119.71041281278077L38.5171875,90.59715677857751L38.74921875,86.07465770351014L38.98125,82.713885531197L39.21328125,85.87560404599094L39.4453125,78.0635442457764L39.67734375,76.6126720020113L39.909375000000004,66.68033047393405L40.14140625,63.31001646617861L40.373437499999994,67.11328260697988L40.60546875,68.1006968369152L40.8375,164.48950901124005L41.06953125,129.11552358856218L41.3015625,102.06567778950098L41.53359375,79.36304303733695L41.765625,69.62509854967489L41.997656250000006,68.96051367525948L42.229687500000004,59.49994456879206L42.461718749999996,70.6526940140025L42.693749999999994,61.809798226583325L42.92578125,146.4749698450409L43.1578125,109.24498190702452L43.38984375,89.49608005330563L43.621875,69.23219348652883L43.85390625,69.37204336464457L44.0859375,59.74686238242309L44.317968750000006,65.62266288399931L44.550000000000004,55.55541591221776L44.782031249999996,54.04597682005792L45.014062499999994,59.61304063748931L45.24609375,59.716915291584485L45.478125,59.7792400840416L45.71015625,56.580271323152225L45.9421875,53.366344612073135L46.17421875,139.46707949451664L46.40625,244.85115678761906L46.638281250000006,179.92160316348054L46.8703125,140.31659826172466L47.102343749999996,99.72450441158026L47.334375,85.07833901058451L47.56640625,73.70154886089618L47.7984375,69.46456568017405L48.03046875,66.27510304446807L48.2625,140.09233455395358L48.49453125,104.7681280050994L48.7265625,84.22087680305964L48.958593750000006,72.53979880910852L49.190625,59.70569746728329L49.422656249999996,62.36160029855177L49.6546875,57.482414724585624L49.88671875,48.08217610747865L50.11875,57.32930566448719L50.350781250000004,49.284856125965035L50.5828125,126.01455003921538L50.81484375,98.26327547807468L51.04687499999999,73.84523801411754L51.27890625,67.60896099028872L51.5109375,61.27810386690048L51.742968749999996,51.65413504741302L51.975,49.11611739208418L52.20703125,44.356943162523244L52.4390625,55.74143862478666L52.671093750000004,48.33213590214472L52.903125,47.77019063219592L53.13515625,42.25484165204482L53.36718750000001,43.47654135486325L53.59921875,45.50410663109977L53.83125,44.778827615023495L54.063281249999996,63.114569296286845L54.2953125,57.934196123226634L54.52734375,49.647790401208724L54.759375,51.14867424072523L54.991406250000004,63.700113635344216L55.2234375,58.932795453933814L55.455468749999994,64.486949999633L55.6875,63.288533636143434L55.91953125,57.39130199986789L56.1515625,49.96932665446619L56.38359375,43.57432326540698L56.615625,52.682775777426016L56.84765625,46.49693819372831L57.0796875,43.43270837078246L57.311718750000004,46.12507956792401L57.54375,49.68232046802713L57.775781249999994,42.107574098998086L58.0078125,40.151817186671586L58.23984375,38.97836303927567L58.471875,46.6888360053836L58.70390625,112.80602887595744L58.9359375,85.1599809619381L59.16796875,69.21962494079924L59.400000000000006,57.71359314629771L59.632031250000004,48.2208831605059L59.864062499999996,50.292529896303556L60.096093749999994,46.35733611960031L60.328125,43.99621985357835L60.56015625,38.69591373032885L60.7921875,45.87209369274275L61.02421875,42.41052894291838L61.25625,55.22086282029649L61.48828125,53.84524496490517L61.720312500000006,125.51441970621583L61.952343750000004,87.60683364191132L62.184374999999996,133.4731910942377L62.416406249999994,107.26936920199716L62.6484375,82.48525788483467L62.88046875,65.02570018544624L63.1125,52.60814738399503L63.34453125,46.452161157669735L63.5765625,44.70038760369276L63.80859375,112.26023256221566L64.040625,82.24341226460214L64.27265625,69.41150190421581L64.5046875,66.2432647788931L64.73671875000001,56.57504977642679L64.96875,51.421393502219715L65.20078125,43.15101791951364L65.4328125,47.25061075170817L65.66484375,45.826730087388555L65.896875,41.0887653251604L66.12890625,39.54053192236897L66.3609375,36.66977369887594L66.59296875,40.77277331023467L66.825,38.05639125886807L67.05703125000001,103.09565293713902L67.2890625,72.86102812591976L67.52109374999999,63.7820714210064L67.753125,63.512879216240215L67.98515625,52.34772752974414L68.2171875,42.41227288148284L68.44921875,39.04009100161698L68.68125,108.8640546009702L68.91328125,82.79479639694576L69.1453125,60.68051420180381L69.37734375000001,53.88467215744592L69.609375,47.21807602174028L69.84140625,43.2181183403169L70.0734375,46.643598276917395L70.30546875,44.16797714796862L70.53750000000001,40.093513561508445L70.76953125,42.179744500541446L71.0015625,40.19511942759758L71.23359375000001,36.415253474740375L71.465625,39.32551572120785L71.69765625000001,35.89349125090654L71.92968750000001,36.42336747781665L72.16171874999999,34.79947503214454L72.39375,33.82513956474126L72.62578124999999,40.360538284299295L72.8578125,36.51450478876139L73.08984375,36.14870287325683L73.32187499999999,31.398312633044995L73.55390625,32.4317148525543L73.7859375,29.16811982062348L74.01796875,40.15541734691952L74.25,39.627795862697184L74.48203125,37.36940479034559L74.7140625,36.0143701469346L74.94609375,36.4958948154335L75.17812500000001,34.19571870744191L75.41015625,32.81561304264696L75.6421875,33.92936782558817L75.87421875000001,32.655802513534724L76.10624999999999,30.597117871757206L76.33828125,32.59827072305432L76.5703125,29.91532607019624L76.80234374999999,32.18919564211773L77.034375,106.04806283981611L77.26640625,78.51611043116239L77.4984375,124.13512080415195L77.73046875,84.19016339158209L77.9625,67.99046167131287L78.19453125,54.38700427551501L78.4265625,50.108566201672645L78.65859375,43.65786699373084L78.890625,41.08199292351125L79.12265625,35.65283211774312L79.3546875,34.98442654337315L79.58671875,36.525201380569335L79.81875000000001,32.91875719197796L80.05078125,43.053072497004955L80.2828125,36.83547986183935L80.51484375000001,36.98856064437634L80.74687499999999,39.66950002298945L80.97890625,43.86715455924822L81.2109375,37.32392909918529L81.44296874999999,35.987084732238436L81.675,38.42134174843399L81.90703125,35.35098686724221L82.1390625,33.508773938527156L82.37109375,31.108900726752655L82.603125,32.25806770877887L82.83515625,32.94756789799461L83.0671875,35.30308619334221L83.29921875000001,39.95276080691442L83.53125,34.975292847785035L83.76328125,30.694266617761915L83.99531250000001,28.125650879748047L84.22734375,26.584481436939743L84.45937500000001,29.543416134891125L84.69140624999999,30.02423149911649L84.92343749999999,32.90181162674263L85.15546875,32.03926879422739L85.38749999999999,37.99447036744552L85.61953125,36.38940949319459L85.8515625,34.13182751409856L86.08359374999999,37.95546014482277L86.315625,35.07145790507549L86.54765625,107.77742019759077L86.7796875,79.55372484582719L87.01171875,57.44132581658722L87.24375,46.76297730813414L87.47578125,37.7668772939714L87.7078125,38.19467183092829L87.93984375000001,35.86225764401153L88.171875,37.699172768225075L88.40390625,35.5649582063896L88.63593750000001,34.93170219656104L88.86796875,34.551748590663905L89.10000000000001,35.618321881671065L89.33203125000001,105.51644767445718L89.56406249999999,76.90259587740158L89.79609375,64.91246661735003L90.02812499999999,53.83475269768276L90.26015625,43.304487982246L90.4921875,38.28087460752944L90.72421874999999,103.87761567360855L90.95625,74.62475122234694L91.18828125,57.073032551589996L91.4203125,49.77836498549945L91.65234375,43.45974626402694L91.884375,38.37402957659799L92.11640625,35.322599564140596L92.3484375,34.786287011211634L92.58046875000001,31.875408570363327L92.8125,35.30706332403619L93.04453125,34.77696526714898L93.27656250000001,31.222542796653013L93.50859374999999,98.34807113253727L93.740625,68.71793358861326L93.97265625,52.23439651680434L94.20468749999999,41.04972881917351L94.43671875,38.869837291504105L94.66875,33.03099328399338L94.90078125,30.822232334032385L95.1328125,32.733339400419425L95.36484375,30.643640003888034L95.596875,33.273456729605535L95.82890625,30.967710401399703L96.0609375,32.1733535135671L96.29296875,30.3076484717766L96.525,31.130043628520507L96.75703125,30.32893526802139L96.9890625,27.906452069903757L97.22109375000001,30.336598514669507L97.453125,27.911050017892602L97.68515625,26.45572091982648L97.91718750000001,25.5825234609868L98.14921874999999,28.942241349319357L98.38125,30.95807208231889L98.61328125,28.283934158482232L98.84531249999999,27.9739968587257L99.07734375,29.082579933417257L99.309375,27.158638869141253L99.54140625,31.18245604875747L99.7734375,31.654928174709042L100.00546875,28.70204781391635L100.2375,34.69759232471343L100.46953125,30.52764630391898L100.70156250000001,37.087496873260484L100.93359375,33.256134487592654L101.165625,30.957317056191947L101.39765625000001,29.57802659735153L101.6296875,28.750452322047295L101.86171875000001,32.78481684777384L102.09374999999999,29.379981017755217L102.32578124999999,28.63162497428948L102.5578125,26.888065893664603L102.78984374999999,25.841930445289673L103.021875,27.803340085355625L103.25390625,27.685640414849736L103.48593749999999,27.615020612546207L103.71796875,27.57264873116408L103.95,26.252680147789363L104.18203125,28.049789906855455L104.4140625,28.48078303502234L104.64609375,26.797560730104315L104.878125,27.082172801698952L105.11015625,25.958394590110274L105.34218750000001,25.284127663157072L105.57421875,26.82138568880334L105.80625,25.80192232237292L106.03828125000001,27.77933521160558L106.2703125,26.376692036054255L106.50234375000001,25.535106130723463L106.73437500000001,25.030154587524994L106.96640624999999,24.727183661605906L107.1984375,24.545401106054438L107.43046874999999,25.73087702726902L107.6625,26.442162579997778L107.89453125,25.57438845708956L108.12656249999999,25.05372398334466L108.35859375,26.683143480915884L108.590625,28.95534063400408L108.82265625,27.082295289493366L109.0546875,29.842104446423296L109.28671875,28.90889903149032L109.51875,29.643521237076026L109.75078125,27.4952036513365L109.98281250000001,27.500758554438285L110.21484375,26.20954604175386L110.446875,25.43481853414324L110.67890625000001,26.911800211395025L110.91093749999999,25.85617103592791L111.14296875,25.222793530647674L111.375,27.43185793657043L111.60703124999999,27.462751125578624L111.8390625,26.18674158443808L112.07109375,25.421135859753747L112.303125,27.55086333403407L112.53515625,28.828699818602264L112.7671875,29.595401709343182L112.99921875,27.466331934696807L113.23125,28.7779809789999L113.46328125,26.97587949649085L113.6953125,25.894618606985425L113.92734375,26.54040752782762L114.159375,26.927880880332943L114.39140625,28.454910346381595L114.62343750000001,28.076582571465295L114.85546875,33.02776772469735L115.0875,35.9984788166366L115.31953125000001,37.13363274452742L115.55156249999999,36.52017964671645L115.78359375,39.388471424393515L116.015625,39.81490103645428L116.24765624999999,177.29257698550893L116.4796875,116.08463710039628L116.71171875,79.35987316932868L116.94375,57.32501481068812L117.17578125,45.39864525004921L117.4078125,36.94827805912044L117.63984375,35.76169410819954L117.871875,34.402471010374256L118.10390625000001,31.645118969860928L118.3359375,32.57979865464382L118.56796875,29.25697010187718L118.80000000000001,27.263272970217216L119.03203125,26.067054691221237L119.26406250000001,26.643869178369126L119.49609374999999,30.22632150702145L119.72812499999999,30.433974722394698L119.96015625,27.969475742527727L120.19218749999999,26.490776354607544L120.42421875,26.898102176400887L120.65625,30.378861305840523L120.88828124999999,30.525498601686138L121.1203125,29.966208251920776L121.35234375,27.688815860243388L121.584375,27.616925879782368L121.81640625,26.27924643696035L122.0484375,25.476638771267112L122.28046875,24.99507417185119L122.5125,24.70613541220162L122.74453125000001,97.67459033823008L122.9765625,69.60839056657439L123.20859375,54.710488885399194L123.44062500000001,42.5353842403304L123.67265625,36.52486690783463L123.90468750000001,31.62401105379167L124.13671875000001,28.683497541365906L124.36874999999999,26.919189433910443L124.60078125,25.86060456943718L124.83281249999999,30.403635468935033L125.06484375,31.18763582681556L125.296875,38.778036041543906L125.52890624999999,32.97591253401725L125.7609375,30.78918388404669L125.99296875,32.713510330428036L126.225,33.220833470984076L126.45703125,29.641590991681372L126.6890625,27.494045504099724L126.92109375,30.089154575187102L127.153125,30.351674563294097L127.38515625000001,31.156459283430983L127.6171875,28.402966479149512L127.84921875,29.339961705671513L128.08125,33.138522477948385L128.31328125,34.770386214041764L128.5453125,31.8658680920614L128.77734375,31.417702673418667L129.009375,31.14880342223301L129.24140625,30.340191144248912L129.47343750000002,29.855023777458428L129.70546875,30.858468811929622L129.9375,31.460535832612315L130.16953125,29.87995786320374L130.4015625,30.226156536104067L130.63359375,30.43387573984427L130.865625,30.558507262088355L131.09765625,31.927831629980304L131.3296875,33.39669897798818L131.56171874999998,100.94711029588382L131.79375,73.51372072298484L132.02578125,53.81732334288182L132.2578125,43.94130309663818L132.48984375,37.36841822161929L132.721875,36.66105093297156L132.95390625,31.70572146887384L133.1859375,31.321614699506128L133.41796875,33.68024154697641L133.65,36.38996311000404L133.88203125,34.13215968418424L134.11406250000002,35.366568537783266L134.34609375,34.16539566812451L134.578125,34.091964673601964L134.81015625,30.81154244052483L135.04218749999998,28.84328910067854L135.27421875,31.545973460407122L135.50625,42.87667498533517L135.73828125,38.02418680938294L135.9703125,40.9381484492661L136.20234375,36.86107088774148L136.434375,35.70936980537217L136.66640625,35.018349155950574L136.8984375,33.95646403902488L137.13046875,31.377514787051282L137.3625,33.066508872230784L137.59453125,33.43263259606575L137.8265625,33.65230683036672L138.05859375,34.43138409822002L138.290625,31.66246682256838L138.52265625,33.23748009354104L138.75468750000002,30.94612441976098L138.98671875,34.749492833674765L139.21875,33.14787751838667L139.45078125,32.18690832921382L139.6828125,32.25759954298284L139.91484375,31.65274154397153L140.146875,32.58437219911019L140.37890625,31.84880513764792L140.6109375,33.34928308258875L140.84296875,32.95502439500781L141.07500000000002,32.071196455186495L141.30703125,31.540899691293728L141.5390625,29.9281761784126L141.77109375,33.491451161593L142.003125,38.86577978786489L142.23515625000002,34.3231042363553L142.46718750000002,35.481135269085904L142.69921875,34.881408434178795L142.93125,34.52157233323457L143.16328125,31.716579763577098L143.39531250000002,31.328129676328082L143.62734375000002,106.17869598761501L143.85937500000003,73.41630850165991L144.09140624999998,56.34796691917778L144.32343749999998,47.40150742423393L144.55546875,40.73908627272216L144.7875,34.152542672724216L145.01953125,30.200616512725425L145.25156249999998,27.829460816726176L145.48359374999998,26.406767399126615L145.715625,25.55315134856689L145.94765625,25.68825444550375L146.1796875,27.71113448548407L146.41171875,91.06304432765408L146.64374999999998,65.64146296022881L146.87578125,53.62487777613728L147.1078125,43.17856302931874L147.33984375,38.205319635773066L147.571875,34.57410087237292L147.80390625,33.04264234160558L148.0359375,31.47649449587243L148.26796875,29.88953306115983L148.5,29.584628927604985L148.73203125,31.343504629290265L148.9640625,33.04610277757415L149.19609375000002,33.42038893927178L149.428125,31.70314245447216L149.66015625,31.96734001813783L149.8921875,32.77313128360997L150.12421875,35.84569695198418L150.35625000000002,32.511054534826876L150.58828125000002,35.6884509027143L150.8203125,33.71125235981038L151.05234375,31.230387779522594L151.284375,32.33095994044085L151.51640625000002,30.402212327900866L151.74843750000002,31.83405466946779L151.98046874999997,97.42043280168069L152.21249999999998,71.39771422646297L152.44453124999998,55.78408308133232L152.6765625,45.12135893970849L152.90859375,38.72372445473417L153.140625,36.17968921829505L153.37265624999998,32.71144989461341L153.60468749999998,33.21959720949532L153.83671875,30.93539468933353L154.06875,30.859418631781956L154.30078125,28.872014815432813L154.5328125,28.32684525289606L154.76484374999998,27.999743515373982L154.996875,93.82530065467894L155.22890625,67.29881675644371L155.4609375,50.08838096295714L155.69296875,108.37302857777428L155.925,74.73290805575547L156.15703125,54.5488357425442L156.3890625,43.73293780916289L156.62109375,111.032489958225L156.853125,104.80858488402593L157.08515625,73.88878729405192L157.3171875,59.220545103703884L157.54921875,45.24141797131326L157.78125,40.09030532824251L158.01328125,33.7632741060364L158.2453125,35.145237190894555L158.47734375000002,32.09077867817312L158.709375,30.25810357054023L158.94140625,29.158498505960512L159.1734375,27.20419001266719L159.40546875,29.915241280327585L159.63750000000002,28.952781131832914L159.86953125000002,28.37530504273613L160.1015625,26.734273934732567L160.33359375,27.044200724475914L160.565625,29.819247707412835L160.79765625000002,28.895184988084043L161.02968750000002,27.693474629214073L161.26171875000003,26.97244841389209L161.49374999999998,32.36528723015342L161.72578124999998,30.42280870172841L161.9578125,31.846412493764344L162.18984375,31.40602931444042L162.421875,32.43634486139153L162.65390624999998,31.759988735016748L162.88593749999998,30.059629604646407L163.11796875,30.333959580969672L163.35,29.204012112218155L163.58203125,28.52604363096726L163.8140625,28.766535269489445L164.04609374999998,29.558102979875482L164.278125,29.385770878834375L164.51015625,29.929644345482444L164.7421875,32.84505933456221L164.97421875,30.71067196437368L165.20625,30.077312269533305L165.43828125,33.58093281626543L165.6703125,31.799468780668374L165.90234375,32.02513581385555L166.134375,31.51326330649515L166.36640625,29.911594347533445L166.59843750000002,97.56150206306553L166.83046875,70.18781032874843L167.0625,54.410868015430864L167.29453125,43.65015717289488L167.5265625,39.13554884919146L167.75859375000002,37.72132930951487L167.99062500000002,33.6364339493453L168.22265625,36.363678551425366L168.4546875,32.821843494491596L168.68671875,31.34401518760403L168.91875000000002,31.751863658016955L169.15078125000002,30.054754558446547L169.38281249999997,33.56739818961338L169.61484374999998,31.144075277404404L169.84687499999998,29.69008153007899L170.07890625,29.4649580089565L170.3109375,28.68261116901025L170.54296875,29.507748519587974L170.77499999999998,28.708285475389125L171.00703124999998,28.875880376142582L171.2390625,30.27098277114008L171.47109375,29.813498753593137L171.703125,27.59719016124679L171.93515625,28.209223187657166L172.16718749999998,26.634624821685204L172.39921875,27.63168398392021L172.63125,26.28810129944305L172.86328125,26.129224416029448L173.0953125,25.386625558708587L173.32734375,28.177429880679693L173.559375,26.61554883749872L173.79140625,26.972965666135586L174.0234375,25.892870308772245L174.25546875,29.128449457990623L174.4875,93.20797876570346L174.71953125,68.22296907760389L174.9515625,51.93741781019871L175.18359375,42.81335977702831L175.415625,37.986197684398796L175.64765625,33.795354974275625L175.87968750000002,36.45903116638355L176.11171875,110.55178233619377L176.34375,77.33470576535262L176.57578125,59.993550731938846L176.8078125,48.294312257345126L177.03984375000002,41.2747691725889L177.27187500000002,37.7103160490079L177.50390625,32.33528053849562L177.7359375,30.40480468673374L177.96796875,28.599246448403875L178.20000000000002,29.457729687224145L178.43203125000002,27.38372872142541L178.66406250000003,31.317509960127975L178.89609374999998,31.0886877942586L179.12812499999998,32.24593994928245L179.36015625,29.056654878660375L179.5921875,27.143083836287133L179.82421875,25.99494121086319L180.05624999999998,26.600601090154285L180.28828124999998,28.258542472274364L180.5203125,29.25330730154644L180.75234375,31.144711653655122L180.984375,28.395917901284008L181.21640625,28.041187104406774L181.44843749999998,27.828348626280402L181.68046875,31.58428190304099L181.9125,31.248750960006404L182.14453125,29.752886939640213L182.3765625,27.560823072875024L182.60859375,26.245584752815915L182.840625,25.456441760780464L183.07265625,24.982955965559196L183.3046875,24.698864488426405L183.53671875,24.528409602146752L183.76875,28.30977303401533L184.00078125000002,26.694954729500097L184.2328125,26.37333647406369L184.46484375,27.474910975347306L184.696875,28.783128403390208L184.92890625,28.273513405670492L185.16093750000002,26.67319895249321L185.39296875000002,25.71301028058683L185.625,26.431442531988456L185.85703125,25.567956428283974L186.0890625,26.34441022060675L186.32109375000002,28.7521006778186L186.55312500000002,95.57126040669118L186.78515624999997,69.6409380621965L187.01718749999998,51.49365374640882L187.24921874999998,40.60528315693619L187.48125,40.54498807597988L187.71328125,34.03608375467884L187.9453125,30.13074116189823L188.17734374999998,97.69299015168438L188.40937499999998,68.32488500010153L188.64140625,51.99856736369728L188.8734375,44.14459496367291L189.10546875,38.13766606911284L189.3375,35.82805418692225L189.56953124999998,31.205923421244265L189.8015625,28.43264496183745L190.03359375,29.357768795284297L190.265625,27.323752186261498L190.49765625,31.28152403902963L190.7296875,33.00891442341777L190.96171875,30.80898501768702L191.19375,34.6672091924304L191.42578125,31.15668915182188L191.6578125,32.28674076382042L191.88984375,30.3756808219286L192.121875,29.229044856793525L192.35390625,28.541063277712492L192.5859375,29.42281978480931L192.81796875,27.362782779976495L193.05,28.068578758894976L193.28203125000002,26.55023816442788L193.5140625,26.933779262293097L193.74609375,31.047540284648605L193.978125,29.6321605344255L194.21015625,30.07747813883713L194.44218750000002,27.755577792393193L194.67421875000002,26.362437584526823L194.90625,26.821098914352433L195.13828125,25.801750257702402L195.3703125,26.48468651825779L195.60234375000002,26.894448274591046L195.83437500000002,28.434850782936444L196.06640625000003,28.06454683339825L196.29843749999998,27.84236446367529L196.53046874999998,26.414509587296074L196.7625,28.794160297832203L196.99453125,26.985587087790226L197.2265625,27.19498861631048L197.45859374999998,26.026084078877226L197.69062499999998,25.324741356417228L197.92265625,24.903935722941235L198.1546875,25.945997797401116L198.38671875,31.102144132986133L198.61875,29.66492284342806L198.85078124999998,28.80259006969318L199.0828125,28.28519040545229L199.31484375,27.327477879635L199.546875,29.98921400050827L199.77890625,27.702619309395857L200.0109375,27.625207949273904L200.24296875,26.931488405927986L200.475,25.867983952647688L200.70703125,25.229881280679535L200.9390625,26.788837859316796L201.17109375,28.371484533771913L201.40312500000002,28.026527083899502L201.63515625,29.11409806852152L201.8671875,29.119367932021998L202.09921875,27.180711668304113L202.33125,26.01751791007338L202.56328125000002,25.319601655134925L202.79531250000002,24.900851902171862L203.02734375,25.29687477766676L203.259375,24.88721577569096L203.49140625,25.935965829050932L203.72343750000002,26.565215861066914L203.95546875000002,25.64822042573106L204.18749999999997,27.68711407362045L204.41953124999998,26.321359353263205L204.65156249999998,26.149179248321545L204.88359375,26.693143912629303L205.115625,29.608613620304855L205.34765625,30.063349990364735L205.57968749999998,29.041646357855207L205.81171874999998,29.72316963289495L206.04375,27.542992688827884L206.27578125,26.234886522387644L206.5078125,25.450022822523493L206.73984375,26.27365005715045L206.97187499999998,90.84782639792664L207.20390625,65.51233220239234L207.4359375,50.958308412344486L207.66796875,42.22589413831578L207.9,37.633718301171285L208.13203125,33.58386734433913L208.3640625,31.153956770239848L208.59609375,30.34328315305301L208.828125,29.856878982740895L209.06015625,29.565036480553626L209.2921875,30.684476433786728L209.52421875,30.708867678453853L209.75625,101.2762296979814L209.98828125,71.76937418242521L210.2203125,54.065260873091496L210.45234375,43.44279288749125L210.68437500000002,37.069312096131114L210.91640625,33.89249634858776L211.1484375,31.986406900061752L211.38046875,28.90093504912794L211.6125,27.049651938567678L211.84453125000002,28.52797298132244L212.07656250000002,26.825874697884366L212.30859375,28.39370663691243L212.540625,28.039860345783833L212.77265625,27.82755257110667L213.00468750000002,27.05289517902764L213.23671875000002,26.588100743780213L213.46875000000003,28.89831499172268L213.70078124999998,27.048079904124492L213.93281249999998,25.937938851565605L214.16484375,26.566399674575717L214.396875,28.23802162292726L214.62890625,26.651903882847257L214.86093749999998,27.642051420617452L215.09296874999998,26.294321761461383L215.325,26.7802294205132L215.55703125,25.77722856139882L215.7890625,25.175428045930214L216.02109375,27.403438645739932L216.25312499999998,28.740245005625777L216.48515625,29.542328821557295L216.7171875,28.729033656570728L216.94921875,26.94651110303336L217.18125,27.171543025456387L217.41328125,26.659289451637463L217.6453125,26.999210034618834L217.87734375,27.203162384407676L218.109375,27.32553379428096L218.34140625,28.046229367477665L218.5734375,26.5368285295775L218.80546875000002,26.92573348138288L219.0375,27.806349179738802L219.26953125,26.392900416934197L219.5015625,25.54483115925142L219.73359375,28.91962596827813L219.96562500000002,99.55541194460324L220.19765625000002,70.7368835303983L220.4296875,53.44576648187535L220.66171875,43.07109625276157L220.89375,38.14083956983876L221.12578125000002,33.88814010553963L221.35781250000002,33.27833860877832L221.58984374999997,30.970639528903334L221.82187499999998,30.233292808251118L222.05390624999998,27.849066594041567L222.2859375,93.7348945018795L222.51796875,68.53911851930951L222.75,55.36347111158572L222.98203124999998,44.86899175786051L223.21406249999998,37.925031418352674L223.44609375,33.75865521464797L223.678125,29.964284037879693L223.91015625,30.27675224090961L224.1421875,27.875142253636668L224.37421874999998,27.728721715818384L224.60625,27.640869393127385L224.83828125,28.235430726785538L225.0703125,27.94489479970767L225.30234375,27.77057324346096L225.534375,27.66598030971295L225.76640625,28.897770004009587L225.9984375,28.989571093314854L226.23046875,27.102833565079816L226.4625,28.5598819572297L226.69453125,26.845020083428743L226.9265625,28.405193868239074L227.15859375,28.046752684579808L227.390625,29.126233428929684L227.62265625,28.479376420994182L227.8546875,26.796716761687435L228.08671875000002,25.78712096610335L228.31875,29.064999852389292L228.55078125,28.442636275069937L228.7828125,29.363763583223776L229.01484375,29.916439968116087L229.24687500000002,27.658954889960555L229.47890625000002,26.30446384306723L229.7109375,91.51358739674943L229.94296875,67.20633425623147L230.175,51.327436917375245L230.40703125000002,43.094643968606974L230.63906250000002,35.56587729025509L230.87109375000003,32.34316273778942L231.10312499999998,30.409534006310015L231.33515624999998,29.89662949469511L231.5671875,101.43615951499889L231.79921875,73.15987752718115L232.03125,120.92138106176324L232.26328124999998,82.26191954614885L232.49531249999998,59.066242636780224L232.72734375,47.737927400249944L232.959375,38.351847349240884L233.19140625,32.72019931863544L233.4234375,29.341210500272155L233.65546874999998,28.608362663799664L233.8875,26.8741085073707L234.11953125,29.717192377149704L234.3515625,27.539406335380722L234.58359375,27.527280164864813L234.815625,30.109095371646145L235.04765625,92.50182085935133L235.2796875,66.50472887924717L235.51171875,50.90647369118465L235.74375,42.84206603289261L235.97578125,35.41433052882649L236.20781250000002,32.25223468093225L236.43984375,29.060431717650264L236.671875,28.43989539422652L236.90390625,29.362119054717734L237.1359375,28.62090779646702L237.36796875000002,28.823453768789292L237.60000000000002,28.29770862490995L237.83203125,26.687716084036875L238.0640625,27.663538741331212L238.29609375,30.190850517525995L238.52812500000002,30.41269212869741L238.76015625000002,30.54579709540025L238.99218749999997,28.03656916633105L239.22421874999998,27.178305136162265L239.45624999999998,26.01607399078826L239.68828125,27.907826212654786L239.9203125,27.74833209122924L240.15234375,28.299908345646614L240.38437499999998,31.86721773466071L240.61640624999998,33.36033064079644L240.8484375,31.019834748114235L241.08046875,30.262809939777622L241.3125,34.9867768729575L241.54453125,35.2320661237745L241.77656249999998,40.55742149244652L242.00859375,36.63263471364973L242.240625,32.9832171918262L242.47265625,33.382657587822976L242.7046875,31.03323091633016L242.93671875,30.270847640707174L243.16875,29.16614494806068L243.40078125,31.092414241563663L243.6328125,31.60090309039276L243.86484375,31.25872367241746L244.096875,35.58432511254139L244.32890625,32.35423143116119L244.5609375,30.416175222333095L244.79296875,29.253341497036207L245.025,28.555641261858085L245.25703125,28.13702112075123L245.48906250000002,29.18039449063255L245.72109375,29.15914578528861L245.953125,29.79366928935499L246.18515625,31.468928846340265L246.4171875,31.179539125985965L246.64921875000002,30.358632566500674L246.88125000000002,29.21881590353676L247.11328125,30.476744087576595L247.3453125,29.28968281618233L247.57734375,32.46108241698212L247.80937500000002,30.48028581382563L248.04140625000002,29.939080579204468L248.27343750000003,30.261630165704503L248.50546874999998,29.160614463059076L248.73749999999998,30.441823223289994L248.96953125,101.11600302488309L249.2015625,75.55687454220256L249.43359375,56.33776108895789L249.66562499999998,46.74811119882928L249.89765624999998,39.05250308293394L250.1296875,35.72968366794218L250.36171875,33.73599201894711L250.59375,35.128867938641015L250.82578125,32.08095712682098L251.05781249999998,31.546756094274393L251.28984375,32.52078092929193L251.521875,30.51610492121152L251.75390625,32.54966295272691L251.9859375,37.0061614079998L252.21796875,97.93460593570896L252.45,73.00076356142537L252.68203125,56.098639955037015L252.9140625,45.31009306393133L253.14609375,38.189692201995136L253.378125,34.56472441210619L253.61015625000002,33.03701646544553L253.8421875,94.25857351563094L254.07421875,67.55878047301495L254.30625,52.18617737471806L254.53828125,47.493524606649025L254.77031250000002,40.147023854898485L255.00234375000002,35.09185067657546" style="fill: none;" fill="none"></path></g></g></g></g><g opacity="0.2"><g><g><g><path stroke="rgb(255, 112, 67)" stroke-width="2px" d="M24.13125,268.6181818181818L24.36328125,98.70909090909092L24.5953125,621.3818181818182L24.82734375,95.47272727272727L25.059375,260.5272727272727L25.29140625,389.9818181818182L25.523437499999996,84.14545454545456L25.75546875,147.25454545454545L25.9875,296.1272727272727L26.4515625,283.1818181818182L26.683593750000004,105.18181818181817L26.915625,72.81818181818181L27.14765625,135.92727272727274L27.3796875,563.1272727272727L27.61171875,291.27272727272725L27.84375,135.92727272727274L28.07578125,205.5090909090909L28.3078125,69.58181818181818L28.53984375,402.92727272727274L28.771875,178L29.00390625,103.56363636363636L29.2359375,144.01818181818183L29.46796875,108.41818181818182L29.700000000000003,137.54545454545453L29.932031249999998,108.41818181818182L30.1640625,163.43636363636364L30.39609375,317.16363636363633L30.628125,129.45454545454547L30.860156250000003,87.38181818181819L31.092187499999998,119.74545454545455L31.32421875,307.45454545454544L32.0203125,389.9818181818182L32.25234375,84.14545454545456L32.484375,72.81818181818181L32.71640625,297.74545454545455L32.9484375,98.70909090909092L33.18046875,84.14545454545456L33.4125,197.41818181818184L33.64453125,58.25454545454546L33.8765625,84.14545454545456L34.10859375,69.58181818181818L34.340625,113.27272727272727L34.57265625,69.58181818181818L34.8046875,267L35.03671875,50.16363636363637L35.268750000000004,64.72727272727273L35.50078125,93.85454545454547L35.7328125,242.72727272727275L35.96484375000001,422.3454545454546L36.196875,69.58181818181818L36.42890625,422.3454545454546L36.660937499999996,69.58181818181818L36.89296875,66.34545454545454L37.125,118.12727272727271L37.35703125,79.29090909090908L37.589062500000004,46.92727272727274L37.82109375,263.7636363636364L38.053124999999994,50.16363636363637L38.28515625,127.83636363636364L38.5171875,46.92727272727274L38.74921875,79.29090909090908L38.98125,77.67272727272727L39.21328125,90.61818181818181L39.4453125,66.34545454545454L39.67734375,74.43636363636364L39.909375000000004,51.78181818181818L40.14140625,58.25454545454546L40.373437499999994,72.81818181818181L40.60546875,69.58181818181818L40.8375,309.07272727272726L41.06953125,76.05454545454545L41.3015625,61.49090909090909L41.53359375,45.309090909090905L41.765625,55.018181818181816L41.997656250000006,67.96363636363637L42.229687500000004,45.309090909090905L42.461718749999996,87.38181818181819L42.693749999999994,48.54545454545454L42.92578125,273.4727272727273L43.1578125,53.400000000000006L43.38984375,59.87272727272726L43.621875,38.83636363636363L43.85390625,69.58181818181818L44.0859375,45.309090909090905L44.317968750000006,74.43636363636364L44.550000000000004,40.45454545454546L44.782031249999996,51.78181818181818L45.014062499999994,67.96363636363637L45.24609375,59.87272727272726L45.478125,59.87272727272726L45.71015625,51.78181818181818L45.9421875,48.54545454545454L46.17421875,268.6181818181818L46.40625,402.92727272727274L46.638281250000006,82.52727272727273L46.8703125,80.90909090909092L47.102343749999996,38.83636363636363L47.334375,63.1090909090909L47.56640625,56.63636363636365L47.7984375,63.1090909090909L48.03046875,61.49090909090909L48.2625,250.81818181818184L48.49453125,51.78181818181818L48.7265625,53.400000000000006L48.958593750000006,55.018181818181816L49.190625,40.45454545454546L49.422656249999996,66.34545454545454L49.6546875,50.16363636363637L49.88671875,33.981818181818184L50.11875,71.2L50.350781250000004,37.21818181818182L50.5828125,241.1090909090909L50.81484375,56.63636363636365L51.04687499999999,37.21818181818182L51.27890625,58.25454545454546L51.5109375,51.78181818181818L51.742968749999996,37.21818181818182L51.975,45.309090909090905L52.20703125,37.21818181818182L52.4390625,72.81818181818181L52.671093750000004,37.21818181818182L52.903125,46.92727272727274L53.13515625,33.981818181818184L53.36718750000001,45.309090909090905L53.59921875,48.54545454545454L53.83125,43.690909090909095L54.063281249999996,90.61818181818181L54.2953125,50.16363636363637L54.52734375,37.21818181818182L54.759375,53.400000000000006L54.991406250000004,82.52727272727273L55.2234375,51.78181818181818L55.455468749999994,72.81818181818181L55.6875,61.49090909090909L55.91953125,48.54545454545454L56.1515625,38.83636363636363L56.38359375,33.981818181818184L56.615625,66.34545454545454L56.84765625,37.21818181818182L57.0796875,38.83636363636363L57.311718750000004,50.16363636363637L57.54375,55.018181818181816L57.775781249999994,30.745454545454546L58.0078125,37.21818181818182L58.23984375,37.21818181818182L58.471875,58.25454545454546L58.70390625,211.98181818181817L58.9359375,43.690909090909095L59.16796875,45.309090909090905L59.400000000000006,40.45454545454546L59.632031250000004,33.981818181818184L59.864062499999996,53.400000000000006L60.096093749999994,40.45454545454546L60.328125,40.45454545454546L60.56015625,30.745454545454546L60.7921875,56.63636363636365L61.02421875,37.21818181818182L61.25625,74.43636363636364L61.48828125,51.78181818181818L61.720312500000006,233.01818181818183L61.952343750000004,30.745454545454546L62.184374999999996,202.27272727272725L62.416406249999994,67.96363636363637L62.6484375,45.309090909090905L62.88046875,38.83636363636363L63.1125,33.981818181818184L63.34453125,37.21818181818182L63.5765625,42.07272727272726L63.80859375,213.6L64.040625,37.21818181818182L64.27265625,50.16363636363637L64.5046875,61.49090909090909L64.73671875000001,42.07272727272726L64.96875,43.690909090909095L65.20078125,30.745454545454546L65.4328125,53.400000000000006L65.66484375,43.690909090909095L65.896875,33.981818181818184L66.12890625,37.21818181818182L66.3609375,32.36363636363635L66.59296875,46.92727272727274L66.825,33.981818181818184L67.05703125000001,200.65454545454546L67.2890625,27.509090909090908L67.52109374999999,50.16363636363637L67.753125,63.1090909090909L67.98515625,35.599999999999994L68.2171875,27.509090909090908L68.44921875,33.981818181818184L68.68125,213.6L68.91328125,43.690909090909095L69.1453125,27.509090909090908L69.37734375000001,43.690909090909095L69.609375,37.21818181818182L69.84140625,37.21818181818182L70.0734375,51.78181818181818L70.30546875,40.45454545454546L70.53750000000001,33.981818181818184L70.76953125,45.309090909090905L71.0015625,37.21818181818182L71.23359375000001,30.745454545454546L71.465625,43.690909090909095L71.69765625000001,30.745454545454546L71.92968750000001,37.21818181818182L72.16171874999999,32.36363636363635L72.39375,32.36363636363635L72.62578124999999,50.16363636363637L72.8578125,30.745454545454546L73.08984375,35.599999999999994L73.32187499999999,24.27272727272727L73.55390625,33.981818181818184L73.7859375,24.27272727272727L74.01796875,56.63636363636365L74.25,38.83636363636363L74.48203125,33.981818181818184L74.7140625,33.981818181818184L74.94609375,37.21818181818182L75.17812500000001,30.745454545454546L75.41015625,30.745454545454546L75.6421875,35.599999999999994L75.87421875000001,30.745454545454546L76.10624999999999,27.509090909090908L76.33828125,35.599999999999994L76.5703125,25.890909090909098L76.80234374999999,35.599999999999994L77.034375,216.83636363636364L77.26640625,37.21818181818182L77.4984375,192.56363636363636L77.73046875,24.27272727272727L77.9625,43.690909090909095L78.19453125,33.981818181818184L78.4265625,43.690909090909095L78.65859375,33.981818181818184L78.890625,37.21818181818182L79.12265625,27.509090909090908L79.3546875,33.981818181818184L79.58671875,38.83636363636363L79.81875000000001,27.509090909090908L80.05078125,58.25454545454546L80.2828125,27.509090909090908L80.51484375000001,37.21818181818182L80.74687499999999,43.690909090909095L80.97890625,50.16363636363637L81.2109375,27.509090909090908L81.44296874999999,33.981818181818184L81.675,42.07272727272726L81.90703125,30.745454545454546L82.1390625,30.745454545454546L82.37109375,27.509090909090908L82.603125,33.981818181818184L82.83515625,33.981818181818184L83.0671875,38.83636363636363L83.29921875000001,46.92727272727274L83.53125,27.509090909090908L83.76328125,24.27272727272727L83.99531250000001,24.27272727272727L84.22734375,24.27272727272727L84.45937500000001,33.981818181818184L84.69140624999999,30.745454545454546L84.92343749999999,37.21818181818182L85.15546875,30.745454545454546L85.38749999999999,46.92727272727274L85.61953125,33.981818181818184L85.8515625,30.745454545454546L86.08359374999999,43.690909090909095L86.315625,30.745454545454546L86.54765625,216.83636363636364L86.7796875,37.21818181818182L87.01171875,24.27272727272727L87.24375,30.745454545454546L87.47578125,24.27272727272727L87.7078125,38.83636363636363L87.93984375000001,32.36363636363635L88.171875,40.45454545454546L88.40390625,32.36363636363635L88.63593750000001,33.981818181818184L88.86796875,33.981818181818184L89.10000000000001,37.21818181818182L89.33203125000001,210.36363636363637L89.56406249999999,33.981818181818184L89.79609375,46.92727272727274L90.02812499999999,37.21818181818182L90.26015625,27.509090909090908L90.4921875,30.745454545454546L90.72421874999999,202.27272727272725L90.95625,30.745454545454546L91.18828125,30.745454545454546L91.4203125,38.83636363636363L91.65234375,33.981818181818184L91.884375,30.745454545454546L92.11640625,30.745454545454546L92.3484375,33.981818181818184L92.58046875000001,27.509090909090908L92.8125,40.45454545454546L93.04453125,33.981818181818184L93.27656250000001,25.890909090909098L93.50859374999999,199.03636363636363L93.740625,24.27272727272727L93.97265625,27.509090909090908L94.20468749999999,24.27272727272727L94.43671875,35.599999999999994L94.66875,24.27272727272727L94.90078125,27.509090909090908L95.1328125,35.599999999999994L95.36484375,27.509090909090908L95.596875,37.21818181818182L95.82890625,27.509090909090908L96.0609375,33.981818181818184L96.29296875,27.509090909090908L96.525,32.36363636363635L96.75703125,29.127272727272736L96.9890625,24.27272727272727L97.22109375000001,33.981818181818184L97.453125,24.27272727272727L97.68515625,24.27272727272727L97.91718750000001,24.27272727272727L98.14921874999999,33.981818181818184L98.38125,33.981818181818184L98.61328125,24.27272727272727L98.84531249999999,27.509090909090908L99.07734375,30.745454545454546L99.309375,24.27272727272727L99.54140625,37.21818181818182L99.7734375,32.36363636363635L100.00546875,24.27272727272727L100.2375,43.690909090909095L100.46953125,24.27272727272727L100.70156250000001,46.92727272727274L100.93359375,27.509090909090908L101.165625,27.509090909090908L101.39765625000001,27.509090909090908L101.6296875,27.509090909090908L101.86171875000001,38.83636363636363L102.09374999999999,24.27272727272727L102.32578124999999,27.509090909090908L102.5578125,24.27272727272727L102.78984374999999,24.27272727272727L103.021875,30.745454545454546L103.25390625,27.509090909090908L103.48593749999999,27.509090909090908L103.71796875,27.509090909090908L103.95,24.27272727272727L104.18203125,30.745454545454546L104.4140625,29.127272727272736L104.64609375,24.27272727272727L104.878125,27.509090909090908L105.11015625,24.27272727272727L105.34218750000001,24.27272727272727L105.57421875,29.127272727272736L105.80625,24.27272727272727L106.03828125000001,30.745454545454546L106.2703125,24.27272727272727L106.50234375000001,24.27272727272727L106.73437500000001,24.27272727272727L106.96640624999999,24.27272727272727L107.1984375,24.27272727272727L107.43046874999999,27.509090909090908L107.6625,27.509090909090908L107.89453125,24.27272727272727L108.12656249999999,24.27272727272727L108.35859375,29.127272727272736L108.590625,32.36363636363635L108.82265625,24.27272727272727L109.0546875,33.981818181818184L109.28671875,27.509090909090908L109.51875,30.745454545454546L109.75078125,24.27272727272727L109.98281250000001,27.509090909090908L110.21484375,24.27272727272727L110.446875,24.27272727272727L110.67890625000001,29.127272727272736L110.91093749999999,24.27272727272727L111.14296875,24.27272727272727L111.375,30.745454545454546L111.60703124999999,27.509090909090908L111.8390625,24.27272727272727L112.07109375,24.27272727272727L112.303125,30.745454545454546L112.53515625,30.745454545454546L112.7671875,30.745454545454546L112.99921875,24.27272727272727L113.23125,30.745454545454546L113.46328125,24.27272727272727L113.6953125,24.27272727272727L113.92734375,27.509090909090908L114.159375,27.509090909090908L114.39140625,30.745454545454546L114.62343750000001,27.509090909090908L114.85546875,40.45454545454546L115.0875,40.45454545454546L115.31953125000001,38.83636363636363L115.55156249999999,35.599999999999994L115.78359375,43.690909090909095L116.015625,40.45454545454546L116.24765624999999,383.50909090909084L116.4796875,24.27272727272727L116.71171875,24.27272727272727L116.94375,24.27272727272727L117.17578125,27.509090909090908L117.4078125,24.27272727272727L117.63984375,33.981818181818184L117.871875,32.36363636363635L118.10390625000001,27.509090909090908L118.3359375,33.981818181818184L118.56796875,24.27272727272727L118.80000000000001,24.27272727272727L119.03203125,24.27272727272727L119.26406250000001,27.509090909090908L119.49609374999999,35.599999999999994L119.72812499999999,30.745454545454546L119.96015625,24.27272727272727L120.19218749999999,24.27272727272727L120.42421875,27.509090909090908L120.65625,35.599999999999994L120.88828124999999,30.745454545454546L121.1203125,29.127272727272736L121.35234375,24.27272727272727L121.584375,27.509090909090908L121.81640625,24.27272727272727L122.0484375,24.27272727272727L122.28046875,24.27272727272727L122.5125,24.27272727272727L122.74453125000001,207.12727272727273L122.9765625,27.509090909090908L123.20859375,32.36363636363635L123.44062500000001,24.27272727272727L123.67265625,27.509090909090908L123.90468750000001,24.27272727272727L124.13671875000001,24.27272727272727L124.36874999999999,24.27272727272727L124.60078125,24.27272727272727L124.83281249999999,37.21818181818182L125.06484375,32.36363636363635L125.296875,50.16363636363637L125.52890624999999,24.27272727272727L125.7609375,27.509090909090908L125.99296875,35.599999999999994L126.225,33.981818181818184L126.45703125,24.27272727272727L126.6890625,24.27272727272727L126.92109375,33.981818181818184L127.153125,30.745454545454546L127.38515625000001,32.36363636363635L127.6171875,24.27272727272727L127.84921875,30.745454545454546L128.08125,38.83636363636363L128.31328125,37.21818181818182L128.5453125,27.509090909090908L128.77734375,30.745454545454546L129.009375,30.745454545454546L129.24140625,29.127272727272736L129.47343750000002,29.127272727272736L129.70546875,32.36363636363635L129.9375,32.36363636363635L130.16953125,27.509090909090908L130.4015625,30.745454545454546L130.63359375,30.745454545454546L130.865625,30.745454545454546L131.09765625,33.981818181818184L131.3296875,35.599999999999994L131.56171874999998,202.27272727272725L131.79375,32.36363636363635L132.02578125,24.27272727272727L132.2578125,29.127272727272736L132.48984375,27.509090909090908L132.721875,35.599999999999994L132.95390625,24.27272727272727L133.1859375,30.745454545454546L133.41796875,37.21818181818182L133.65,40.45454545454546L133.88203125,30.745454545454546L134.11406250000002,37.21818181818182L134.34609375,32.36363636363635L134.578125,33.981818181818184L134.81015625,25.890909090909098L135.04218749999998,25.890909090909098L135.27421875,35.599999999999994L135.50625,59.87272727272726L135.73828125,30.745454545454546L135.9703125,45.309090909090905L136.20234375,30.745454545454546L136.434375,33.981818181818184L136.66640625,33.981818181818184L136.8984375,32.36363636363635L137.13046875,27.509090909090908L137.3625,35.599999999999994L137.59453125,33.981818181818184L137.8265625,33.981818181818184L138.05859375,35.599999999999994L138.290625,27.509090909090908L138.52265625,35.599999999999994L138.75468750000002,27.509090909090908L138.98671875,40.45454545454546L139.21875,30.745454545454546L139.45078125,30.745454545454546L139.6828125,32.36363636363635L139.91484375,30.745454545454546L140.146875,33.981818181818184L140.37890625,30.745454545454546L140.6109375,35.599999999999994L140.84296875,32.36363636363635L141.07500000000002,30.745454545454546L141.30703125,30.745454545454546L141.5390625,27.509090909090908L141.77109375,38.83636363636363L142.003125,46.92727272727274L142.23515625000002,27.509090909090908L142.46718750000002,37.21818181818182L142.69921875,33.981818181818184L142.93125,33.981818181818184L143.16328125,27.509090909090908L143.39531250000002,30.745454545454546L143.62734375000002,218.45454545454547L143.85937500000003,24.27272727272727L144.09140624999998,30.745454545454546L144.32343749999998,33.981818181818184L144.55546875,30.745454545454546L144.7875,24.27272727272727L145.01953125,24.27272727272727L145.25156249999998,24.27272727272727L145.48359374999998,24.27272727272727L145.715625,24.27272727272727L145.94765625,25.890909090909098L146.1796875,30.745454545454546L146.41171875,186.0909090909091L146.64374999999998,27.509090909090908L146.87578125,35.599999999999994L147.1078125,27.509090909090908L147.33984375,30.745454545454546L147.571875,29.127272727272736L147.80390625,30.745454545454546L148.0359375,29.127272727272736L148.26796875,27.509090909090908L148.5,29.127272727272736L148.73203125,33.981818181818184L148.9640625,35.599999999999994L149.19609375000002,33.981818181818184L149.428125,29.127272727272736L149.66015625,32.36363636363635L149.8921875,33.981818181818184L150.12421875,40.45454545454546L150.35625000000002,27.509090909090908L150.58828125000002,40.45454545454546L150.8203125,30.745454545454546L151.05234375,27.509090909090908L151.284375,33.981818181818184L151.51640625000002,27.509090909090908L151.74843750000002,33.981818181818184L151.98046874999997,195.8L152.21249999999998,32.36363636363635L152.44453124999998,32.36363636363635L152.6765625,29.127272727272736L152.90859375,29.127272727272736L153.140625,32.36363636363635L153.37265624999998,27.509090909090908L153.60468749999998,33.981818181818184L153.83671875,27.509090909090908L154.06875,30.745454545454546L154.30078125,25.890909090909098L154.5328125,27.509090909090908L154.76484374999998,27.509090909090908L154.996875,192.56363636363636L155.22890625,27.509090909090908L155.4609375,24.27272727272727L155.69296875,195.8L155.925,24.27272727272727L156.15703125,24.27272727272727L156.3890625,27.509090909090908L156.62109375,211.98181818181817L156.853125,95.47272727272727L157.08515625,27.509090909090908L157.3171875,37.21818181818182L157.54921875,24.27272727272727L157.78125,32.36363636363635L158.01328125,24.27272727272727L158.2453125,37.21818181818182L158.47734375000002,27.509090909090908L158.709375,27.509090909090908L158.94140625,27.509090909090908L159.1734375,24.27272727272727L159.40546875,33.981818181818184L159.63750000000002,27.509090909090908L159.86953125000002,27.509090909090908L160.1015625,24.27272727272727L160.33359375,27.509090909090908L160.565625,33.981818181818184L160.79765625000002,27.509090909090908L161.02968750000002,25.890909090909098L161.26171875000003,25.890909090909098L161.49374999999998,40.45454545454546L161.72578124999998,27.509090909090908L161.9578125,33.981818181818184L162.18984375,30.745454545454546L162.421875,33.981818181818184L162.65390624999998,30.745454545454546L162.88593749999998,27.509090909090908L163.11796875,30.745454545454546L163.35,27.509090909090908L163.58203125,27.509090909090908L163.8140625,29.127272727272736L164.04609374999998,30.745454545454546L164.278125,29.127272727272736L164.51015625,30.745454545454546L164.7421875,37.21818181818182L164.97421875,27.509090909090908L165.20625,29.127272727272736L165.43828125,38.83636363636363L165.6703125,29.127272727272736L165.90234375,32.36363636363635L166.134375,30.745454545454546L166.36640625,27.509090909090908L166.59843750000002,199.03636363636363L166.83046875,29.127272727272736L167.0625,30.745454545454546L167.29453125,27.509090909090908L167.5265625,32.36363636363635L167.75859375000002,35.599999999999994L167.99062500000002,27.509090909090908L168.22265625,40.45454545454546L168.4546875,27.509090909090908L168.68671875,29.127272727272736L168.91875000000002,32.36363636363635L169.15078125000002,27.509090909090908L169.38281249999997,38.83636363636363L169.61484374999998,27.509090909090908L169.84687499999998,27.509090909090908L170.07890625,29.127272727272736L170.3109375,27.509090909090908L170.54296875,30.745454545454546L170.77499999999998,27.509090909090908L171.00703124999998,29.127272727272736L171.2390625,32.36363636363635L171.47109375,29.127272727272736L171.703125,24.27272727272727L171.93515625,29.127272727272736L172.16718749999998,24.27272727272727L172.39921875,29.127272727272736L172.63125,24.27272727272727L172.86328125,25.890909090909098L173.0953125,24.27272727272727L173.32734375,32.36363636363635L173.559375,24.27272727272727L173.79140625,27.509090909090908L174.0234375,24.27272727272727L174.25546875,33.981818181818184L174.4875,189.32727272727274L174.71953125,30.745454545454546L174.9515625,27.509090909090908L175.18359375,29.127272727272736L175.415625,30.745454545454546L175.64765625,27.509090909090908L175.87968750000002,40.45454545454546L176.11171875,221.6909090909091L176.34375,27.509090909090908L176.57578125,33.981818181818184L176.8078125,30.745454545454546L177.03984375000002,30.745454545454546L177.27187500000002,32.36363636363635L177.50390625,24.27272727272727L177.7359375,27.509090909090908L177.96796875,25.890909090909098L178.20000000000002,30.745454545454546L178.43203125000002,24.27272727272727L178.66406250000003,37.21818181818182L178.89609374999998,30.745454545454546L179.12812499999998,33.981818181818184L179.36015625,24.27272727272727L179.5921875,24.27272727272727L179.82421875,24.27272727272727L180.05624999999998,27.509090909090908L180.28828124999998,30.745454545454546L180.5203125,30.745454545454546L180.75234375,33.981818181818184L180.984375,24.27272727272727L181.21640625,27.509090909090908L181.44843749999998,27.509090909090908L181.68046875,37.21818181818182L181.9125,30.745454545454546L182.14453125,27.509090909090908L182.3765625,24.27272727272727L182.60859375,24.27272727272727L182.840625,24.27272727272727L183.07265625,24.27272727272727L183.3046875,24.27272727272727L183.53671875,24.27272727272727L183.76875,33.981818181818184L184.00078125000002,24.27272727272727L184.2328125,25.890909090909098L184.46484375,29.127272727272736L184.696875,30.745454545454546L184.92890625,27.509090909090908L185.16093750000002,24.27272727272727L185.39296875000002,24.27272727272727L185.625,27.509090909090908L185.85703125,24.27272727272727L186.0890625,27.509090909090908L186.32109375000002,32.36363636363635L186.55312500000002,195.8L186.78515624999997,30.745454545454546L187.01718749999998,24.27272727272727L187.24921874999998,24.27272727272727L187.48125,40.45454545454546L187.71328125,24.27272727272727L187.9453125,24.27272727272727L188.17734374999998,199.03636363636363L188.40937499999998,24.27272727272727L188.64140625,27.509090909090908L188.8734375,32.36363636363635L189.10546875,29.127272727272736L189.3375,32.36363636363635L189.56953124999998,24.27272727272727L189.8015625,24.27272727272727L190.03359375,30.745454545454546L190.265625,24.27272727272727L190.49765625,37.21818181818182L190.7296875,35.599999999999994L190.96171875,27.509090909090908L191.19375,40.45454545454546L191.42578125,25.890909090909098L191.6578125,33.981818181818184L191.88984375,27.509090909090908L192.121875,27.509090909090908L192.35390625,27.509090909090908L192.5859375,30.745454545454546L192.81796875,24.27272727272727L193.05,29.127272727272736L193.28203125000002,24.27272727272727L193.5140625,27.509090909090908L193.74609375,37.21818181818182L193.978125,27.509090909090908L194.21015625,30.745454545454546L194.44218750000002,24.27272727272727L194.67421875000002,24.27272727272727L194.90625,27.509090909090908L195.13828125,24.27272727272727L195.3703125,27.509090909090908L195.60234375000002,27.509090909090908L195.83437500000002,30.745454545454546L196.06640625000003,27.509090909090908L196.29843749999998,27.509090909090908L196.53046874999998,24.27272727272727L196.7625,32.36363636363635L196.99453125,24.27272727272727L197.2265625,27.509090909090908L197.45859374999998,24.27272727272727L197.69062499999998,24.27272727272727L197.92265625,24.27272727272727L198.1546875,27.509090909090908L198.38671875,38.83636363636363L198.61875,27.509090909090908L198.85078124999998,27.509090909090908L199.0828125,27.509090909090908L199.31484375,25.890909090909098L199.546875,33.981818181818184L199.77890625,24.27272727272727L200.0109375,27.509090909090908L200.24296875,25.890909090909098L200.475,24.27272727272727L200.70703125,24.27272727272727L200.9390625,29.127272727272736L201.17109375,30.745454545454546L201.40312500000002,27.509090909090908L201.63515625,30.745454545454546L201.8671875,29.127272727272736L202.09921875,24.27272727272727L202.33125,24.27272727272727L202.56328125000002,24.27272727272727L202.79531250000002,24.27272727272727L203.02734375,25.890909090909098L203.259375,24.27272727272727L203.49140625,27.509090909090908L203.72343750000002,27.509090909090908L203.95546875000002,24.27272727272727L204.18749999999997,30.745454545454546L204.41953124999998,24.27272727272727L204.65156249999998,25.890909090909098L204.88359375,27.509090909090908L205.115625,33.981818181818184L205.34765625,30.745454545454546L205.57968749999998,27.509090909090908L205.81171874999998,30.745454545454546L206.04375,24.27272727272727L206.27578125,24.27272727272727L206.5078125,24.27272727272727L206.73984375,27.509090909090908L206.97187499999998,187.7090909090909L207.20390625,27.509090909090908L207.4359375,29.127272727272736L207.66796875,29.127272727272736L207.9,30.745454545454546L208.13203125,27.509090909090908L208.3640625,27.509090909090908L208.59609375,29.127272727272736L208.828125,29.127272727272736L209.06015625,29.127272727272736L209.2921875,32.36363636363635L209.52421875,30.745454545454546L209.75625,207.12727272727273L209.98828125,27.509090909090908L210.2203125,27.509090909090908L210.45234375,27.509090909090908L210.68437500000002,27.509090909090908L210.91640625,29.127272727272736L211.1484375,29.127272727272736L211.38046875,24.27272727272727L211.6125,24.27272727272727L211.84453125000002,30.745454545454546L212.07656250000002,24.27272727272727L212.30859375,30.745454545454546L212.540625,27.509090909090908L212.77265625,27.509090909090908L213.00468750000002,25.890909090909098L213.23671875000002,25.890909090909098L213.46875000000003,32.36363636363635L213.70078124999998,24.27272727272727L213.93281249999998,24.27272727272727L214.16484375,27.509090909090908L214.396875,30.745454545454546L214.62890625,24.27272727272727L214.86093749999998,29.127272727272736L215.09296874999998,24.27272727272727L215.325,27.509090909090908L215.55703125,24.27272727272727L215.7890625,24.27272727272727L216.02109375,30.745454545454546L216.25312499999998,30.745454545454546L216.48515625,30.745454545454546L216.7171875,27.509090909090908L216.94921875,24.27272727272727L217.18125,27.509090909090908L217.41328125,25.890909090909098L217.6453125,27.509090909090908L217.87734375,27.509090909090908L218.109375,27.509090909090908L218.34140625,29.127272727272736L218.5734375,24.27272727272727L218.80546875000002,27.509090909090908L219.0375,29.127272727272736L219.26953125,24.27272727272727L219.5015625,24.27272727272727L219.73359375,33.981818181818184L219.96562500000002,205.5090909090909L220.19765625000002,27.509090909090908L220.4296875,27.509090909090908L220.66171875,27.509090909090908L220.89375,30.745454545454546L221.12578125000002,27.509090909090908L221.35781250000002,32.36363636363635L221.58984374999997,27.509090909090908L221.82187499999998,29.127272727272736L222.05390624999998,24.27272727272727L222.2859375,192.56363636363636L222.51796875,30.745454545454546L222.75,35.599999999999994L222.98203124999998,29.127272727272736L223.21406249999998,27.509090909090908L223.44609375,27.509090909090908L223.678125,24.27272727272727L223.91015625,30.745454545454546L224.1421875,24.27272727272727L224.37421874999998,27.509090909090908L224.60625,27.509090909090908L224.83828125,29.127272727272736L225.0703125,27.509090909090908L225.30234375,27.509090909090908L225.534375,27.509090909090908L225.76640625,30.745454545454546L225.9984375,29.127272727272736L226.23046875,24.27272727272727L226.4625,30.745454545454546L226.69453125,24.27272727272727L226.9265625,30.745454545454546L227.15859375,27.509090909090908L227.390625,30.745454545454546L227.62265625,27.509090909090908L227.8546875,24.27272727272727L228.08671875000002,24.27272727272727L228.31875,33.981818181818184L228.55078125,27.509090909090908L228.7828125,30.745454545454546L229.01484375,30.745454545454546L229.24687500000002,24.27272727272727L229.47890625000002,24.27272727272727L229.7109375,189.32727272727274L229.94296875,30.745454545454546L230.175,27.509090909090908L230.40703125000002,30.745454545454546L230.63906250000002,24.27272727272727L230.87109375000003,27.509090909090908L231.10312499999998,27.509090909090908L231.33515624999998,29.127272727272736L231.5671875,208.74545454545458L231.79921875,30.745454545454546L232.03125,192.56363636363636L232.26328124999998,24.27272727272727L232.49531249999998,24.27272727272727L232.72734375,30.745454545454546L232.959375,24.27272727272727L233.19140625,24.27272727272727L233.4234375,24.27272727272727L233.65546874999998,27.509090909090908L233.8875,24.27272727272727L234.11953125,33.981818181818184L234.3515625,24.27272727272727L234.58359375,27.509090909090908L234.815625,33.981818181818184L235.04765625,186.0909090909091L235.2796875,27.509090909090908L235.51171875,27.509090909090908L235.74375,30.745454545454546L235.97578125,24.27272727272727L236.20781250000002,27.509090909090908L236.43984375,24.27272727272727L236.671875,27.509090909090908L236.90390625,30.745454545454546L237.1359375,27.509090909090908L237.36796875000002,29.127272727272736L237.60000000000002,27.509090909090908L237.83203125,24.27272727272727L238.0640625,29.127272727272736L238.29609375,33.981818181818184L238.52812500000002,30.745454545454546L238.76015625000002,30.745454545454546L238.99218749999997,24.27272727272727L239.22421874999998,25.890909090909098L239.45624999999998,24.27272727272727L239.68828125,30.745454545454546L239.9203125,27.509090909090908L240.15234375,29.127272727272736L240.38437499999998,37.21818181818182L240.61640624999998,35.599999999999994L240.8484375,27.509090909090908L241.08046875,29.127272727272736L241.3125,42.07272727272726L241.54453125,35.599999999999994L241.77656249999998,48.54545454545454L242.00859375,30.745454545454546L242.240625,27.509090909090908L242.47265625,33.981818181818184L242.7046875,27.509090909090908L242.93671875,29.127272727272736L243.16875,27.509090909090908L243.40078125,33.981818181818184L243.6328125,32.36363636363635L243.86484375,30.745454545454546L244.096875,42.07272727272726L244.32890625,27.509090909090908L244.5609375,27.509090909090908L244.79296875,27.509090909090908L245.025,27.509090909090908L245.25703125,27.509090909090908L245.48906250000002,30.745454545454546L245.72109375,29.127272727272736L245.953125,30.745454545454546L246.18515625,33.981818181818184L246.4171875,30.745454545454546L246.64921875000002,29.127272727272736L246.88125000000002,27.509090909090908L247.11328125,32.36363636363635L247.3453125,27.509090909090908L247.57734375,37.21818181818182L247.80937500000002,27.509090909090908L248.04140625000002,29.127272727272736L248.27343750000003,30.745454545454546L248.50546874999998,27.509090909090908L248.73749999999998,32.36363636363635L248.96953125,207.12727272727273L249.2015625,37.21818181818182L249.43359375,27.509090909090908L249.66562499999998,32.36363636363635L249.89765624999998,27.509090909090908L250.1296875,30.745454545454546L250.36171875,30.745454545454546L250.59375,37.21818181818182L250.82578125,27.509090909090908L251.05781249999998,30.745454545454546L251.28984375,33.981818181818184L251.521875,27.509090909090908L251.75390625,35.599999999999994L251.9859375,43.690909090909095L252.21796875,189.32727272727274L252.45,35.599999999999994L252.68203125,30.745454545454546L252.9140625,29.127272727272736L253.14609375,27.509090909090908L253.378125,29.127272727272736L253.61015625000002,30.745454545454546L253.8421875,186.0909090909091L254.07421875,27.509090909090908L254.30625,29.127272727272736L254.53828125,40.45454545454546L254.77031250000002,29.127272727272736L255.00234375000002,27.509090909090908" style="fill: none;" fill="none"></path></g></g></g></g></g></g><g transform="translate(51, 178)" clip-path="url(#clip_1)"><clipPath id="clip_1"><rect width="278" height="22"></rect></clipPath><g><g><line x1="0" y1="0" x2="0" y2="5" style="visibility: inherit;" fill="rgb(0, 0, 0)" stroke="rgb(204, 204, 204)" stroke-width="1px"></line><line x1="23.203125" y1="0" x2="23.203125" y2="5" style="visibility: inherit;" fill="rgb(0, 0, 0)" stroke="rgb(204, 204, 204)" stroke-width="1px"></line><line x1="46.40625" y1="0" x2="46.40625" y2="5" style="visibility: inherit;" fill="rgb(0, 0, 0)" stroke="rgb(204, 204, 204)" stroke-width="1px"></line><line x1="69.609375" y1="0" x2="69.609375" y2="5" style="visibility: inherit;" fill="rgb(0, 0, 0)" stroke="rgb(204, 204, 204)" stroke-width="1px"></line><line x1="92.8125" y1="0" x2="92.8125" y2="5" style="visibility: inherit;" fill="rgb(0, 0, 0)" stroke="rgb(204, 204, 204)" stroke-width="1px"></line><line x1="116.015625" y1="0" x2="116.015625" y2="5" style="visibility: inherit;" fill="rgb(0, 0, 0)" stroke="rgb(204, 204, 204)" stroke-width="1px"></line><line x1="139.21875" y1="0" x2="139.21875" y2="5" style="visibility: inherit;" fill="rgb(0, 0, 0)" stroke="rgb(204, 204, 204)" stroke-width="1px"></line><line x1="162.421875" y1="0" x2="162.421875" y2="5" style="visibility: inherit;" fill="rgb(0, 0, 0)" stroke="rgb(204, 204, 204)" stroke-width="1px"></line><line x1="185.625" y1="0" x2="185.625" y2="5" style="visibility: inherit;" fill="rgb(0, 0, 0)" stroke="rgb(204, 204, 204)" stroke-width="1px"></line><line x1="208.828125" y1="0" x2="208.828125" y2="5" style="visibility: inherit;" fill="rgb(0, 0, 0)" stroke="rgb(204, 204, 204)" stroke-width="1px"></line><line x1="232.03125" y1="0" x2="232.03125" y2="5" style="visibility: inherit;" fill="rgb(0, 0, 0)" stroke="rgb(204, 204, 204)" stroke-width="1px"></line><line x1="255.234375" y1="0" x2="255.234375" y2="5" style="visibility: inherit;" fill="rgb(0, 0, 0)" stroke="rgb(204, 204, 204)" stroke-width="1px"></line><line x1="278.4375" y1="0" x2="278.4375" y2="5" style="visibility: inherit;" fill="rgb(0, 0, 0)" stroke="rgb(204, 204, 204)" stroke-width="1px"></line></g><g transform="translate(0, 8)"><text x="0" y="0" dx="0em" dy="0.95em" style="text-anchor: middle; visibility: hidden; font-family: Roboto, sans-serif; font-size: 12px; font-weight: 200;" fill="rgb(50, 49, 63)" stroke="none" stroke-width="1px">-100</text><text x="23.203125" y="0" dx="0em" dy="0.95em" style="text-anchor: middle; visibility: inherit; font-family: Roboto, sans-serif; font-size: 12px; font-weight: 200;" fill="rgb(50, 49, 63)" stroke="none" stroke-width="1px">0</text><text x="46.40625" y="0" dx="0em" dy="0.95em" style="text-anchor: middle; visibility: hidden; font-family: Roboto, sans-serif; font-size: 12px; font-weight: 200;" fill="rgb(50, 49, 63)" stroke="none" stroke-width="1px">100</text><text x="69.609375" y="0" dx="0em" dy="0.95em" style="text-anchor: middle; visibility: inherit; font-family: Roboto, sans-serif; font-size: 12px; font-weight: 200;" fill="rgb(50, 49, 63)" stroke="none" stroke-width="1px">200</text><text x="92.8125" y="0" dx="0em" dy="0.95em" style="text-anchor: middle; visibility: hidden; font-family: Roboto, sans-serif; font-size: 12px; font-weight: 200;" fill="rgb(50, 49, 63)" stroke="none" stroke-width="1px">300</text><text x="116.015625" y="0" dx="0em" dy="0.95em" style="text-anchor: middle; visibility: inherit; font-family: Roboto, sans-serif; font-size: 12px; font-weight: 200;" fill="rgb(50, 49, 63)" stroke="none" stroke-width="1px">400</text><text x="139.21875" y="0" dx="0em" dy="0.95em" style="text-anchor: middle; visibility: hidden; font-family: Roboto, sans-serif; font-size: 12px; font-weight: 200;" fill="rgb(50, 49, 63)" stroke="none" stroke-width="1px">500</text><text x="162.421875" y="0" dx="0em" dy="0.95em" style="text-anchor: middle; visibility: inherit; font-family: Roboto, sans-serif; font-size: 12px; font-weight: 200;" fill="rgb(50, 49, 63)" stroke="none" stroke-width="1px">600</text><text x="185.625" y="0" dx="0em" dy="0.95em" style="text-anchor: middle; visibility: hidden; font-family: Roboto, sans-serif; font-size: 12px; font-weight: 200;" fill="rgb(50, 49, 63)" stroke="none" stroke-width="1px">700</text><text x="208.828125" y="0" dx="0em" dy="0.95em" style="text-anchor: middle; visibility: inherit; font-family: Roboto, sans-serif; font-size: 12px; font-weight: 200;" fill="rgb(50, 49, 63)" stroke="none" stroke-width="1px">800</text><text x="232.03125" y="0" dx="0em" dy="0.95em" style="text-anchor: middle; visibility: hidden; font-family: Roboto, sans-serif; font-size: 12px; font-weight: 200;" fill="rgb(50, 49, 63)" stroke="none" stroke-width="1px">900</text><text x="255.234375" y="0" dx="0em" dy="0.95em" style="text-anchor: middle; visibility: inherit; font-family: Roboto, sans-serif; font-size: 12px; font-weight: 200;" fill="rgb(50, 49, 63)" stroke="none" stroke-width="1px">1k</text><text x="278.4375" y="0" dx="0em" dy="0.95em" style="text-anchor: middle; visibility: hidden; font-family: Roboto, sans-serif; font-size: 12px; font-weight: 200;" fill="rgb(50, 49, 63)" stroke="none" stroke-width="1px">1.1k</text></g><line x1="0" y1="0" x2="278.4375" y2="0" fill="rgb(0, 0, 0)" stroke="rgb(204, 204, 204)" stroke-width="1px"></line></g></g></g></g></svg>